<svg width="17" height="20" viewBox="0 0 17 20" fill="none" xmlns="http://www.w3.org/2000/svg">
<path d="M16.6649 14.811C16.388 15.4565 16.0459 16.072 15.6439 16.648C15.1069 17.415 14.6659 17.945 14.3279 18.24C13.8029 18.722 13.2389 18.97 12.6359 18.984C12.2039 18.984 11.6819 18.861 11.0739 18.611C10.4639 18.362 9.9039 18.24 9.3909 18.24C8.8539 18.24 8.2779 18.362 7.6609 18.611C7.0449 18.861 6.5469 18.992 6.1659 19.004C5.5889 19.029 5.0119 18.775 4.4369 18.24C4.0699 17.92 3.6109 17.37 3.0599 16.592C2.4699 15.763 1.9849 14.798 1.6049 13.701C1.1979 12.514 0.993896 11.366 0.993896 10.254C0.993896 8.98102 1.2689 7.88202 1.8199 6.96202C2.23664 6.23949 2.83244 5.63646 3.5499 5.21102C4.25736 4.78669 5.06498 4.55821 5.8899 4.54902C6.3499 4.54902 6.9529 4.69102 7.6999 4.97102C8.4469 5.25102 8.9269 5.39302 9.1359 5.39302C9.2939 5.39302 9.8249 5.22602 10.7289 4.89502C11.5819 4.58802 12.3019 4.46102 12.8919 4.51102C14.4919 4.64002 15.6929 5.27002 16.4919 6.40602C15.0619 7.27302 14.3549 8.48602 14.3689 10.043C14.3809 11.256 14.8219 12.265 15.6859 13.066C16.0679 13.4316 16.5136 13.7241 17.0009 13.929C16.8949 14.236 16.7829 14.529 16.6649 14.811ZM12.9979 0.380024C12.9979 1.33002 12.6499 2.21802 11.9589 3.03902C11.1229 4.01502 10.1129 4.58002 9.0179 4.49102C9.00357 4.37156 8.99656 4.25134 8.9969 4.13102C8.9969 3.21802 9.3929 2.24202 10.0999 1.44302C10.4519 1.03902 10.8999 0.702024 11.4429 0.434023C11.9849 0.170024 12.4969 0.0240234 12.9789 -0.000976562C12.9919 0.127023 12.9979 0.254024 12.9979 0.380024Z" fill="black"/>
</svg>
