<svg width="20" height="20" viewBox="0 0 20 20" fill="none" xmlns="http://www.w3.org/2000/svg">
<path d="M9.11612 0.366117C9.60427 -0.122039 10.3957 -0.122039 10.8839 0.366116C11.372 0.854272 11.372 1.64573 10.8839 2.13388L4.26777 8.75H18.75C19.4404 8.75 20 9.30964 20 10C20 10.6904 19.4404 11.25 18.75 11.25H4.26777L10.8839 17.8661C11.372 18.3543 11.372 19.1457 10.8839 19.6339C10.3957 20.122 9.60427 20.122 9.11612 19.6339L0.367247 10.885C0.364147 10.8819 0.361063 10.8788 0.357996 10.8757C0.243122 10.7587 0.155893 10.6248 0.0963116 10.482C0.0342693 10.3337 0 10.1708 0 10C0 9.82916 0.0342712 9.66633 0.0963135 9.518C0.154951 9.3775 0.240366 9.24553 0.352558 9.12988C0.357637 9.12465 0.362762 9.11945 0.367931 9.1143L9.11612 0.366117Z" fill="black"/>
</svg>
