<svg width="20" height="20" viewBox="0 0 20 20" fill="none" xmlns="http://www.w3.org/2000/svg">
<path fill-rule="evenodd" clip-rule="evenodd" d="M1.13807 0.195262C0.877722 -0.0650874 0.455612 -0.0650874 0.195262 0.195262C-0.0650874 0.455612 -0.0650874 0.877722 0.195262 1.13807L3.9628 4.90561C2.37877 6.23635 1.06036 7.85773 0.0799887 9.68475C-0.0224339 9.87562 -0.0257334 10.1044 0.071141 10.2981L0.667426 9.99996C0.071141 10.2981 0.071256 10.2983 0.0713841 10.2986L0.0717058 10.2992L0.0725848 10.301L0.0752842 10.3063L0.0844421 10.3243C0.0922146 10.3394 0.103321 10.3608 0.117737 10.388C0.146563 10.4425 0.188649 10.5204 0.243796 10.6184C0.354041 10.8144 0.516781 11.0913 0.730455 11.4222C1.15698 12.0826 1.79079 12.9648 2.62026 13.8496C4.26706 15.6062 6.76421 17.454 10 17.454V17.4541L10.0109 17.4539C11.7808 17.4249 13.5006 16.8867 14.967 15.9098L18.8604 19.8032C19.1208 20.0636 19.5429 20.0636 19.8032 19.8032C20.0636 19.5429 20.0636 19.1208 19.8032 18.8604L15.5154 14.5726C15.514 14.5711 15.5125 14.5696 15.511 14.5682L12.2727 11.3299L12.268 11.3251L8.67476 7.73191L8.67017 7.72732L5.43182 4.48897C5.43036 4.48751 5.4289 4.48607 5.42744 4.48463L1.13807 0.195262ZM14.0022 14.9449L11.7628 12.7056C11.5996 12.8184 11.4259 12.9162 11.2437 12.9973C10.8498 13.1729 10.4244 13.2673 9.99318 13.2749C9.56191 13.2825 9.13353 13.2031 8.73359 13.0416C8.33365 12.8801 7.97035 12.6396 7.66535 12.3346C7.36035 12.0296 7.11991 11.6663 6.95837 11.2664C6.79682 10.8664 6.71749 10.4381 6.7251 10.0068C6.73271 9.57553 6.8271 9.15021 7.00266 8.75622C7.08381 8.57408 7.18155 8.40035 7.29437 8.23713L4.9095 5.85227C3.50677 7.01231 2.32658 8.41866 1.42735 10.0027C1.52553 10.1757 1.66705 10.4147 1.85051 10.6988C2.24589 11.311 2.83168 12.1256 3.59298 12.9377C5.12673 14.5737 7.29399 16.1186 9.9946 16.1206C11.4165 16.0964 12.8005 15.6878 14.0022 14.9449ZM8.26441 9.20722C8.24899 9.23734 8.23437 9.2679 8.22056 9.29888C8.11789 9.52932 8.06268 9.77808 8.05823 10.0303C8.05377 10.2826 8.10017 10.5331 8.19466 10.767C8.28914 11.0009 8.42977 11.2134 8.60816 11.3918C8.78654 11.5702 8.99903 11.7108 9.23295 11.8053C9.46687 11.8998 9.71742 11.9462 9.96966 11.9417C10.2219 11.9373 10.4707 11.8821 10.7011 11.7794C10.7321 11.7656 10.7626 11.751 10.7927 11.7356L8.26441 9.20722ZM17.4454 11.7085L9.63196 3.88794C9.75396 3.8819 9.87615 3.87901 9.99844 3.8793L10 3.8793C12.7031 3.8793 14.8723 5.42517 16.407 7.06226C17.1683 7.87432 17.7541 8.68892 18.1495 9.30113C18.3332 9.58553 18.4748 9.82478 18.573 9.99782C18.2364 10.5931 17.8596 11.1647 17.4454 11.7085ZM19.9289 9.70182L19.3326 9.99996C19.9289 9.70182 19.9288 9.70159 19.9286 9.70134L19.9283 9.7007L19.9274 9.69895L19.9247 9.6936L19.9156 9.67568C19.9078 9.66056 19.8967 9.63917 19.8823 9.61193C19.8534 9.55745 19.8114 9.47952 19.7562 9.38148C19.646 9.18549 19.4832 8.90861 19.2696 8.57776C18.843 7.91734 18.2092 7.03511 17.3797 6.15034C15.7331 4.3939 13.2362 2.54627 10.0008 2.54597H10V3.21264L10.0016 2.54597L10.0008 2.54597C9.3496 2.5445 8.70044 2.61872 8.06639 2.76713C7.83083 2.82227 7.64363 3.00069 7.57725 3.23333C7.51087 3.46596 7.57572 3.7163 7.74671 3.88744L17.0284 13.1776C17.1604 13.3098 17.3418 13.3804 17.5285 13.3725C17.7151 13.3645 17.8898 13.2786 18.0101 13.1356C18.7434 12.2642 19.3836 11.3186 19.9205 10.3142C20.0225 10.1235 20.0256 9.89523 19.9289 9.70182Z" fill="#3F0D28"/>
</svg>
