<svg width="98" height="98" viewBox="0 0 98 98" fill="none" xmlns="http://www.w3.org/2000/svg">
<g clip-path="url(#clip0)">
<g clip-path="url(#clip1)">
<path d="M79.3512 1.42472L74.4366 4.31531L76.8818 6.7859L79.666 1.72119C79.7628 1.52355 79.5449 1.3259 79.3512 1.42472Z" fill="white"/>
<path d="M73.6377 11.9988L73.7587 12.4435V12.4682L61.799 24.8458L60.5643 22.5976L72.4272 10.3435L73.2019 10.5658L73.6377 11.9988Z" fill="white"/>
<path d="M13.5484 64.8448L23.523 54.5177L25.4113 56.0495L15.2431 66.5495L13.5484 64.8448Z" fill="white"/>
<path d="M26.9366 57.3095L16.6231 67.9577L18.4147 69.7612L28.8976 58.9153L26.9366 57.3095Z" fill="white"/>
<path d="M12.1443 66.2776L17.0347 71.1941L12.6527 75.7647C12.0958 76.3082 11.2243 76.3082 10.6675 75.7647L7.76226 72.8494C7.22964 72.2812 7.22964 71.3918 7.76226 70.8235L12.1443 66.2776Z" fill="white"/>
<path d="M68.8925 7.52713L70.7567 8.09537L71.023 8.96007L59.5716 20.7448L58.3127 18.4718L68.8925 7.52713Z" fill="white"/>
<path d="M53.616 17.2611C53.616 17.2364 53.6402 17.2364 53.6644 17.2364C53.7613 17.2117 53.9065 17.187 53.9792 17.187H54.1971C54.2697 17.187 54.3665 17.2117 54.4392 17.2364C54.4531 17.2507 54.459 17.2567 54.4661 17.2593C54.4714 17.2611 54.4773 17.2611 54.4876 17.2611L54.7055 17.3353C54.7176 17.3353 54.7297 17.3414 54.7418 17.3476C54.7539 17.3538 54.766 17.36 54.7781 17.36L54.996 17.5082L55.2381 17.7553C55.3107 17.8294 55.3591 17.9035 55.4076 17.9776L55.4318 18.027L60.3706 26.5506L51.2434 31.2941L50.5171 30.2564L49.2098 28.3294L45.9172 23.4376C45.8446 23.3388 45.7962 23.24 45.7478 23.1411C45.7072 23.0584 45.6836 22.9582 45.6628 22.8698L45.6562 22.8419L45.6528 22.8277L45.6509 22.82C45.6267 22.7212 45.6267 22.5977 45.6267 22.4988C45.6267 22.4 45.6509 22.2764 45.6751 22.1776C45.6993 22.0541 45.7236 21.9553 45.772 21.8564C45.9172 21.56 46.1351 21.3129 46.4499 21.14L46.692 20.967C48.1203 19.9047 49.6456 18.9906 51.2434 18.2494C51.7761 18.0023 52.3087 17.78 52.8655 17.5576L53.3013 17.3847C53.3497 17.3723 53.3921 17.3538 53.4344 17.3353C53.4768 17.3167 53.5192 17.2982 53.5676 17.2859C53.5676 17.2612 53.5918 17.2611 53.616 17.2611Z" fill="white"/>
<path d="M44.1983 39.4719C44.6341 41.3248 46.0383 42.7825 47.854 43.2766L52.2845 44.4378L52.4781 44.4872L49.2098 46.7354C48.9677 46.9083 48.6772 46.9825 48.3866 46.9825C48.2172 46.9825 48.0235 46.9578 47.854 46.8836C47.8419 46.8713 47.8238 46.8651 47.8056 46.8589C47.7874 46.8528 47.7693 46.8466 47.7572 46.8342C47.741 46.826 47.7222 46.8205 47.7034 46.815C47.6657 46.804 47.6281 46.793 47.6119 46.7601C47.5151 46.6119 47.3698 46.3895 47.2246 46.2166L36.0153 33.1225C35.8217 32.9248 35.6038 32.7272 35.3859 32.5789L34.6838 31.7636C34.4659 31.5166 34.3448 31.1954 34.3206 30.8989C34.2964 30.5778 34.3691 30.2813 34.5143 30.0095C34.5506 29.9725 34.5809 29.9292 34.6111 29.886C34.6414 29.8428 34.6717 29.7995 34.708 29.7625C34.7806 29.6883 34.8533 29.6142 34.9501 29.5401C36.3301 27.9095 37.9763 26.5507 39.7921 25.4884C40.3973 25.1425 41.0268 24.8213 41.6805 24.5248L42.2857 24.2531C42.322 24.2284 42.3644 24.2098 42.4068 24.1913C42.4491 24.1728 42.4915 24.1542 42.5278 24.1295C42.5399 24.1295 42.552 24.1234 42.5641 24.1172C42.5762 24.111 42.5883 24.1048 42.6005 24.1048C42.6247 24.0925 42.6549 24.0863 42.6852 24.0801C42.7154 24.0739 42.7457 24.0678 42.7699 24.0554C42.7983 24.0554 42.8183 24.0469 42.835 24.0399C42.8467 24.0349 42.8567 24.0307 42.8668 24.0307C42.9394 24.006 42.9878 24.006 43.0604 24.006H43.2299C43.3268 24.006 43.3994 24.006 43.472 24.0307C43.4841 24.0307 43.5022 24.0369 43.5204 24.043C43.5385 24.0492 43.5567 24.0554 43.5689 24.0554C43.6052 24.0678 43.6354 24.0801 43.6657 24.0925C43.6959 24.1048 43.7262 24.1172 43.7625 24.1295C43.7746 24.1419 43.7928 24.1481 43.811 24.1542C43.8291 24.1604 43.8473 24.1666 43.8594 24.1789C43.932 24.2036 44.0046 24.2531 44.0531 24.3025L44.1257 24.3766C44.1983 24.4507 44.271 24.5249 44.3436 24.6236L49.6698 32.1095L46.1351 33.9378C44.9246 34.5801 44.1257 35.7413 43.932 37.0507V37.0754C43.8594 37.5942 43.8836 38.1378 44.0046 38.6813L44.1983 39.4719Z" fill="white"/>
<path d="M22.2883 45.7471L22.2156 45.8212L22.0219 46.0682C21.9735 46.13 21.9312 46.1918 21.8888 46.2535C21.8464 46.3153 21.8041 46.3771 21.7556 46.4388C21.7556 46.4388 21.7556 46.4635 21.7314 46.4635L21.7072 46.4882C21.4651 46.8588 21.2472 47.2788 21.0535 47.6741L20.9809 47.7977C20.8357 47.9706 20.7388 48.1435 20.6904 48.3412C20.642 48.5388 20.6178 48.7365 20.6178 48.9341C20.642 49.2306 20.763 49.5271 20.9567 49.7494L21.1746 49.9718L24.4187 52.6153L24.4672 52.64L28.3892 55.8518L33.3522 59.9035C33.5217 60.0518 33.7396 60.1506 33.9575 60.2C34.0301 60.2247 34.1027 60.2247 34.1754 60.2247H34.2964C34.6354 60.2247 34.9743 60.1012 35.2406 59.8541L38.3153 57.1859C38.6784 56.8647 38.8479 56.42 38.8237 56C38.8237 55.8024 38.7995 55.6047 38.7026 55.4318C38.5574 55.16 38.3395 54.9129 38.0974 54.6906L36.9595 53.5294L36.209 52.7882L35.8701 52.4424L29.4302 45.92L29.3576 45.8459L26.8882 43.3506C26.8155 43.2765 26.7429 43.2024 26.6461 43.1529C26.6461 43.1529 26.6218 43.1529 26.6218 43.1282H26.5976C26.5855 43.1282 26.5795 43.1221 26.5734 43.1159C26.5674 43.1097 26.5613 43.1035 26.5492 43.1035C26.525 43.0912 26.4947 43.0727 26.4645 43.0541C26.4342 43.0356 26.404 43.0171 26.3797 43.0047C26.3313 42.98 26.3071 42.98 26.2587 42.98C26.2345 42.9677 26.2042 42.9615 26.174 42.9553C26.1437 42.9491 26.1134 42.9429 26.0892 42.9306H25.7987C25.7503 42.9306 25.6777 42.9306 25.6292 42.9553C25.5808 42.9553 25.5566 42.9553 25.5082 42.98C25.484 42.9924 25.4537 42.9985 25.4235 43.0047C25.3932 43.0109 25.3629 43.0171 25.3387 43.0294C25.3145 43.0418 25.2964 43.0479 25.2782 43.0541C25.2601 43.0603 25.2419 43.0665 25.2177 43.0788C25.1721 43.0943 25.136 43.1196 25.1035 43.1423C25.0843 43.1558 25.0662 43.1685 25.0482 43.1777C25.0361 43.19 25.0179 43.1962 24.9998 43.2024C24.9816 43.2085 24.9635 43.2147 24.9514 43.2271C24.9151 43.2641 24.8727 43.3012 24.8304 43.3382C24.788 43.3753 24.7456 43.4124 24.7093 43.4494C23.9103 43.9682 23.184 44.6106 22.5788 45.3271C22.5126 45.462 22.4064 45.597 22.3148 45.7133L22.2883 45.7471Z" fill="white"/>
<path d="M46.1109 47.6247C46.232 47.8718 46.3046 48.1435 46.3046 48.4153C46.3046 48.5141 46.3046 48.5882 46.2562 48.6624C46.232 48.86 46.1593 49.0329 46.0625 49.1812C46.0141 49.2553 45.9656 49.3294 45.893 49.4035L44.0046 51.4541L43.9804 51.4294L43.9562 51.4788L41.8257 53.8012C41.5352 54.1224 41.1479 54.2706 40.7605 54.2706C40.3731 54.2706 39.9858 54.1224 39.6953 53.8012L27.8808 40.9047C27.8566 40.8677 27.8264 40.8246 27.7962 40.7814L27.796 40.7812C27.7658 40.7379 27.7355 40.6947 27.7113 40.6577C27.566 40.4106 27.4934 40.1388 27.4934 39.8424C27.4934 39.4718 27.6387 39.1012 27.9292 38.8047L28.026 38.6071C28.4376 37.9153 28.9218 37.273 29.4544 36.68C29.8176 36.2847 30.1807 35.9141 30.5923 35.5682C31.1975 35.0741 31.8512 34.6047 32.5533 34.2094C32.6259 34.1353 32.7228 34.0612 32.7954 34.0118C32.8139 34.0023 32.8289 33.9965 32.8416 33.9915C32.8623 33.9835 32.8773 33.9776 32.8922 33.9624C32.9292 33.9246 32.9803 33.9013 33.024 33.8814C33.0375 33.8752 33.0503 33.8694 33.0617 33.8635C33.0859 33.8635 33.1041 33.8574 33.1222 33.8512C33.1404 33.845 33.1586 33.8388 33.1828 33.8388C33.2312 33.8141 33.3038 33.7894 33.3522 33.7894H33.6428C33.667 33.7894 33.6972 33.7956 33.7275 33.8018C33.7577 33.8079 33.788 33.8141 33.8122 33.8141C33.8606 33.8388 33.8849 33.8388 33.9333 33.8388C33.9817 33.8388 34.0543 33.8635 34.1027 33.8882C34.127 33.9006 34.1451 33.9068 34.1633 33.913C34.1814 33.9191 34.1996 33.9253 34.2238 33.9377C34.248 33.95 34.2783 33.9685 34.3085 33.9871C34.3388 34.0056 34.3691 34.0241 34.3933 34.0365C34.4118 34.0459 34.4267 34.0518 34.4395 34.0567C34.4602 34.0648 34.4751 34.0706 34.4901 34.0859C34.5869 34.16 34.6596 34.2341 34.7322 34.3082L45.9414 47.4024C46.0141 47.4765 46.0625 47.5506 46.1109 47.6247Z" fill="white"/>
<path d="M34.1269 76.5552L28.6797 62.7199C28.6555 62.6952 28.6313 62.6458 28.7039 62.6458L30.9796 60.2493L32.3596 61.3611C32.9164 61.8305 33.6185 62.0776 34.3448 62.0776C35.0953 62.0776 35.8216 61.8058 36.4027 61.3117C36.4027 61.3117 39.5258 58.594 39.5984 58.5199C40.2036 57.927 40.5668 57.1117 40.591 56.2717V56.0493H40.8089C41.6805 56.0493 42.5278 55.654 43.1331 55.0117L47.2245 50.6387C47.7087 50.1199 47.9993 49.4529 48.0719 48.7858C48.1929 48.8105 48.3382 48.8105 48.4592 48.8105C48.9676 48.8105 49.4519 48.687 49.9119 48.4399L50.2266 48.2423L56.2791 44.0917C56.4728 43.9681 56.6422 43.8199 56.7875 43.6717L58.5548 43.2764L59.039 44.3881L58.7485 44.6105L58.4338 44.8576C57.538 45.5493 56.6907 46.2658 55.8675 47.0317L55.6254 47.254C54.3181 48.4646 53.0592 49.774 51.8971 51.1329L51.8244 51.207C50.2992 52.9858 48.9193 54.9128 47.6845 56.914C47.6361 56.9881 47.5877 57.0623 47.5635 57.1117C47.503 57.2228 47.4364 57.3278 47.3698 57.4328C47.3032 57.5378 47.2367 57.6429 47.1761 57.754C47.1277 57.8034 47.0551 57.927 47.0309 57.9764C45.9172 59.9034 44.9488 61.9046 44.1015 63.9799C44.0773 64.0417 44.047 64.1096 44.0167 64.1775C43.9865 64.2455 43.9562 64.3134 43.932 64.3752L43.8836 64.4987C43.6899 64.9928 43.4962 65.487 43.3267 65.9811C43.1089 66.8211 43.0604 67.3893 43.0846 67.8834L43.4236 73.2446L45.1425 73.1211L44.7793 67.5128C44.7589 66.908 45.0145 66.2855 45.1675 65.913C45.1957 65.8443 45.2205 65.7841 45.2393 65.734C45.2877 65.6599 45.312 65.5858 45.3362 65.5117C45.3362 65.5117 45.433 65.2646 45.4572 65.2152C45.7719 64.3999 46.1109 63.5846 46.474 62.794C46.6677 62.3493 47.1277 61.4105 47.273 61.114C49.5487 56.6176 52.5265 52.5658 56.1338 49.107L56.2065 49.0576C57.3685 47.9952 58.5548 47.007 59.7653 46.0434L61.1695 44.9564L59.6927 41.547L59.5474 41.2011L57.6833 41.6211L53.7612 42.5105L52.7928 42.7329L48.3624 41.5223C48.0719 41.4234 47.7814 41.2999 47.5151 41.1517C47.394 41.0776 47.273 41.0034 47.1519 40.9046C46.5709 40.4352 46.1351 39.7682 45.9414 39.0023L45.7477 38.2117C45.4814 37.1246 45.9898 35.9882 46.9824 35.4693L61.2906 28.0329L62.8158 27.2423L63.4452 26.9211C63.5131 26.8692 63.5928 26.8415 63.6761 26.8126C63.7117 26.8002 63.748 26.7877 63.7842 26.7729C63.7963 26.7729 63.8145 26.7667 63.8326 26.7605C63.8508 26.7543 63.8689 26.7482 63.881 26.7482L64.1715 26.674C64.22 26.674 64.3047 26.6679 64.3894 26.6617C64.4742 26.6555 64.5589 26.6493 64.6073 26.6493H64.68C64.801 26.6493 64.8979 26.6493 64.9947 26.674H65.0431C65.1642 26.6987 65.261 26.7235 65.382 26.7729C65.3942 26.7729 65.4063 26.779 65.4184 26.7852C65.4305 26.7914 65.4426 26.7976 65.4547 26.7976L65.7452 26.9458C65.7452 26.9705 65.7694 26.9705 65.7694 26.9705C65.8662 27.0199 65.9631 27.094 66.0599 27.1682C66.0841 27.1682 66.1083 27.1929 66.1326 27.2176C66.1658 27.2515 66.199 27.2825 66.2313 27.3126C66.293 27.3702 66.3512 27.4244 66.3989 27.4893L72.8387 41.0034C74.5576 44.6599 74.6061 48.9093 72.9598 52.5658L72.5724 53.3564L72.4756 53.5293C72.4272 53.6281 64.6073 68.3776 64.6073 68.3776L65.3578 88.1175C65.4063 88.9081 64.7768 89.5752 64.0021 89.5752H35.7974C35.0711 89.5752 34.4659 88.9822 34.4417 88.2164L34.1269 76.5552Z" fill="white"/>
</g>
</g>
<defs>
<clipPath id="clip0">
<rect width="98" height="98" fill="white"/>
</clipPath>
<clipPath id="clip1">
<rect width="83.3" height="88.2" fill="white" transform="translate(7.3501 1.40039)"/>
</clipPath>
</defs>
</svg>
