<svg width="88" height="88" viewBox="0 0 88 88" fill="none" xmlns="http://www.w3.org/2000/svg">
<path d="M56.5684 5.89488C55.0237 5.89488 53.5062 5.48828 52.1684 4.71594L48.3999 2.54024C45.6772 0.968331 42.3228 0.968331 39.6001 2.54024L35.8316 4.71594C34.4938 5.48828 32.9763 5.89488 31.4316 5.89488H27.0807C23.9368 5.89488 21.0316 7.57216 19.4597 10.2949L17.2842 14.063C16.5118 15.4008 15.4009 16.5117 14.0631 17.284L10.2948 19.4597C7.57206 21.0316 5.89478 23.9368 5.89478 27.0807V31.432C5.89478 32.9767 5.48816 34.4942 4.7158 35.832L2.54034 39.6C0.968373 42.3227 0.968373 45.6773 2.54034 48.4L4.7158 52.168C5.48816 53.5058 5.89478 55.0233 5.89478 56.568V60.9193C5.89478 64.0632 7.57206 66.9684 10.2948 68.5403L14.0631 70.716C15.4009 71.4883 16.5118 72.5992 17.2842 73.937L19.4597 77.7051C21.0316 80.4278 23.9368 82.1051 27.0807 82.1051H31.4316C32.9763 82.1051 34.4938 82.5117 35.8316 83.2841L39.6001 85.4598C42.3228 87.0317 45.6772 87.0317 48.3999 85.4598L52.1684 83.2841C53.5062 82.5117 55.0237 82.1051 56.5684 82.1051H60.9193C64.0632 82.1051 66.9684 80.4278 68.5403 77.7051L70.7158 73.937C71.4882 72.5992 72.5991 71.4883 73.9369 70.716L77.7052 68.5403C80.4279 66.9684 82.1052 64.0632 82.1052 60.9193V56.568C82.1052 55.0233 82.5118 53.5058 83.2842 52.168L85.4597 48.4C87.0316 45.6773 87.0316 42.3227 85.4597 39.6L83.2842 35.832C82.5118 34.4942 82.1052 32.9767 82.1052 31.432V27.0807C82.1052 23.9368 80.4279 21.0316 77.7052 19.4597L73.9369 17.284C72.5991 16.5117 71.4882 15.4008 70.7158 14.063L68.5403 10.2949C66.9684 7.57217 64.0632 5.89488 60.9193 5.89488H56.5684Z" fill="#51C2B8"/>
<path d="M59.8456 17.0122L57.6032 18.3563L58.7189 19.505L59.9892 17.1501C60.0333 17.0582 59.9339 16.9663 59.8456 17.0122Z" fill="white"/>
<path d="M57.2387 21.9289L57.2939 22.1357V22.1471L51.8371 27.9024L51.2738 26.8571L56.6864 21.1592L57.0398 21.2626L57.2387 21.9289Z" fill="white"/>
<path d="M29.8223 46.501L34.3733 41.6992L35.2349 42.4114L30.5955 47.2936L29.8223 46.501Z" fill="white"/>
<path d="M35.9308 42.9972L31.2251 47.9484L32.0425 48.787L36.8255 43.7439L35.9308 42.9972Z" fill="white"/>
<path d="M29.1816 47.1672L31.4129 49.4533L29.4136 51.5785C29.1595 51.8312 28.7619 51.8312 28.5078 51.5785L27.1823 50.2229C26.9392 49.9587 26.9392 49.5452 27.1823 49.2809L29.1816 47.1672Z" fill="white"/>
<path d="M55.0736 19.8497L55.9242 20.1139L56.0457 20.516L50.8209 25.9956L50.2465 24.9387L55.0736 19.8497Z" fill="white"/>
<path d="M48.1036 24.3758C48.1036 24.3643 48.1146 24.3643 48.1257 24.3643C48.1698 24.3528 48.2361 24.3413 48.2693 24.3413H48.3687C48.4018 24.3413 48.446 24.3528 48.4791 24.3643C48.4855 24.3709 48.4882 24.3737 48.4914 24.3749C48.4938 24.3758 48.4965 24.3758 48.5012 24.3758L48.6006 24.4102C48.6062 24.4102 48.6117 24.4131 48.6172 24.416C48.6227 24.4188 48.6283 24.4217 48.6338 24.4217L48.7332 24.4906L48.8436 24.6055C48.8768 24.64 48.8989 24.6744 48.921 24.7089L48.932 24.7319L51.1854 28.6951L47.021 30.9007L46.6897 30.4183L46.0932 29.5222L44.5909 27.2477C44.5578 27.2017 44.5357 27.1558 44.5136 27.1098C44.4951 27.0713 44.4843 27.0248 44.4748 26.9837L44.4718 26.9707L44.4703 26.9641L44.4694 26.9605C44.4584 26.9145 44.4584 26.8571 44.4584 26.8112C44.4584 26.7652 44.4694 26.7078 44.4804 26.6618C44.4915 26.6044 44.5025 26.5584 44.5246 26.5125C44.5909 26.3746 44.6903 26.2597 44.8339 26.1793L44.9444 26.0989C45.5961 25.6049 46.292 25.1799 47.021 24.8353C47.2641 24.7204 47.5071 24.617 47.7611 24.5136L47.96 24.4332C47.9821 24.4275 48.0014 24.4188 48.0207 24.4102C48.04 24.4016 48.0594 24.393 48.0815 24.3873C48.0815 24.3758 48.0925 24.3758 48.1036 24.3758Z" fill="white"/>
<path d="M43.8066 34.7032C44.0055 35.5648 44.6461 36.2425 45.4746 36.4723L47.496 37.0122L47.5844 37.0352L46.0932 38.0806C45.9827 38.161 45.8502 38.1954 45.7176 38.1954C45.6403 38.1954 45.5519 38.184 45.4746 38.1495C45.4691 38.1437 45.4608 38.1409 45.4525 38.138C45.4442 38.1351 45.4359 38.1323 45.4304 38.1265C45.423 38.1227 45.4144 38.1201 45.4059 38.1176C45.3887 38.1125 45.3715 38.1074 45.3641 38.0921C45.3199 38.0231 45.2537 37.9197 45.1874 37.8393L40.073 31.7509C39.9847 31.659 39.8853 31.5671 39.7859 31.4982L39.4655 31.1191C39.3661 31.0042 39.3109 30.8549 39.2998 30.717C39.2888 30.5677 39.3219 30.4298 39.3882 30.3034C39.4048 30.2862 39.4186 30.2661 39.4324 30.246C39.4462 30.2259 39.46 30.2058 39.4766 30.1886C39.5097 30.1541 39.5428 30.1196 39.587 30.0852C40.2166 29.327 40.9678 28.6952 41.7962 28.2012C42.0724 28.0404 42.3596 27.891 42.6578 27.7532L42.934 27.6268C42.9506 27.6153 42.9699 27.6067 42.9892 27.5981C43.0085 27.5895 43.0279 27.5809 43.0444 27.5694C43.05 27.5694 43.0555 27.5665 43.061 27.5636C43.0665 27.5608 43.0721 27.5579 43.0776 27.5579C43.0886 27.5522 43.1024 27.5493 43.1162 27.5464C43.1301 27.5435 43.1439 27.5407 43.1549 27.5349C43.1679 27.5349 43.177 27.531 43.1846 27.5277C43.1899 27.5254 43.1945 27.5234 43.1991 27.5234C43.2322 27.512 43.2543 27.512 43.2875 27.512H43.3648C43.409 27.512 43.4421 27.512 43.4752 27.5234C43.4808 27.5234 43.489 27.5263 43.4973 27.5292C43.5056 27.5321 43.5139 27.5349 43.5194 27.5349C43.536 27.5407 43.5498 27.5464 43.5636 27.5522C43.5774 27.5579 43.5912 27.5636 43.6078 27.5694C43.6133 27.5751 43.6216 27.578 43.6299 27.5809C43.6382 27.5838 43.6465 27.5866 43.652 27.5924C43.6851 27.6039 43.7183 27.6268 43.7404 27.6498L43.7735 27.6843C43.8066 27.7187 43.8398 27.7532 43.8729 27.7991L46.303 31.2799L44.6903 32.13C44.138 32.4287 43.7735 32.9686 43.6851 33.5774V33.5889C43.652 33.8301 43.663 34.0829 43.7183 34.3356L43.8066 34.7032Z" fill="white"/>
<path d="M33.8099 37.621L33.7768 37.6555L33.6884 37.7704C33.6663 37.7991 33.647 37.8278 33.6277 37.8565C33.6083 37.8852 33.589 37.9139 33.5669 37.9427C33.5669 37.9427 33.5669 37.9542 33.5559 37.9542L33.5448 37.9656C33.4343 38.138 33.3349 38.3332 33.2466 38.517L33.2134 38.5745C33.1471 38.6549 33.103 38.7353 33.0809 38.8272C33.0588 38.9191 33.0477 39.011 33.0477 39.1029C33.0588 39.2408 33.114 39.3786 33.2024 39.482L33.3018 39.5854L34.782 40.8146L34.8041 40.8261L36.5935 42.3194L38.858 44.2034C38.9353 44.2723 39.0347 44.3183 39.1341 44.3413C39.1673 44.3528 39.2004 44.3528 39.2335 44.3528H39.2888C39.4434 44.3528 39.5981 44.2953 39.7196 44.1804L41.1224 42.9398C41.2881 42.7904 41.3654 42.5837 41.3544 42.3884C41.3544 42.2965 41.3433 42.2046 41.2992 42.1242C41.2329 41.9978 41.1335 41.8829 41.023 41.7795L40.5038 41.2396L40.1614 40.895L40.0068 40.7342L37.0685 37.7014L37.0354 37.667L35.9087 36.5067C35.8755 36.4722 35.8424 36.4378 35.7982 36.4148C35.7982 36.4148 35.7872 36.4148 35.7872 36.4033H35.7761C35.7706 36.4033 35.7678 36.4005 35.7651 36.3976C35.7623 36.3947 35.7596 36.3918 35.754 36.3918C35.743 36.3861 35.7292 36.3775 35.7154 36.3689C35.7016 36.3602 35.6878 36.3516 35.6767 36.3459C35.6546 36.3344 35.6436 36.3344 35.6215 36.3344C35.6104 36.3287 35.5966 36.3258 35.5828 36.3229C35.569 36.32 35.5552 36.3172 35.5442 36.3114H35.4116C35.3895 36.3114 35.3564 36.3114 35.3343 36.3229C35.3122 36.3229 35.3011 36.3229 35.279 36.3344C35.268 36.3401 35.2542 36.343 35.2404 36.3459C35.2266 36.3488 35.2128 36.3516 35.2017 36.3574C35.1907 36.3631 35.1824 36.366 35.1741 36.3689C35.1658 36.3717 35.1575 36.3746 35.1465 36.3803C35.1257 36.3876 35.1092 36.3993 35.0944 36.4099C35.0856 36.4162 35.0774 36.422 35.0692 36.4263C35.0636 36.432 35.0554 36.4349 35.0471 36.4378C35.0388 36.4407 35.0305 36.4435 35.025 36.4493C35.0084 36.4665 34.9891 36.4837 34.9698 36.5009C34.9504 36.5182 34.9311 36.5354 34.9145 36.5527C34.55 36.7939 34.2186 37.0926 33.9425 37.4257C33.9123 37.4885 33.8638 37.5512 33.822 37.6053L33.8099 37.621Z" fill="white"/>
<path d="M44.6793 38.4941C44.7345 38.6089 44.7676 38.7353 44.7676 38.8617C44.7676 38.9076 44.7676 38.9421 44.7455 38.9766C44.7345 39.0685 44.7014 39.1489 44.6572 39.2178C44.6351 39.2523 44.613 39.2867 44.5799 39.3212L43.7183 40.2747L43.7072 40.2632L43.6962 40.2861L42.7241 41.366C42.5916 41.5153 42.4148 41.5842 42.2381 41.5842C42.0613 41.5842 41.8846 41.5153 41.7521 41.366L36.3616 35.3694C36.3505 35.3522 36.3368 35.3322 36.323 35.3121L36.3229 35.312C36.3091 35.2919 36.2953 35.2718 36.2842 35.2546C36.218 35.1397 36.1848 35.0133 36.1848 34.8755C36.1848 34.7032 36.2511 34.5308 36.3837 34.393L36.4278 34.3011C36.6156 33.9794 36.8365 33.6808 37.0796 33.4051C37.2453 33.2213 37.4109 33.0489 37.5987 32.8881C37.8749 32.6584 38.1731 32.4401 38.4935 32.2563C38.5266 32.2218 38.5708 32.1874 38.6039 32.1644C38.6124 32.16 38.6192 32.1573 38.625 32.155C38.6345 32.1512 38.6413 32.1485 38.6481 32.1414C38.665 32.1239 38.6883 32.113 38.7082 32.1038C38.7144 32.1009 38.7202 32.0982 38.7254 32.0955C38.7365 32.0955 38.7448 32.0926 38.753 32.0897C38.7613 32.0869 38.7696 32.084 38.7807 32.084C38.8028 32.0725 38.8359 32.061 38.858 32.061H38.9905C39.0016 32.061 39.0154 32.0639 39.0292 32.0667C39.043 32.0696 39.0568 32.0725 39.0679 32.0725C39.0899 32.084 39.101 32.084 39.1231 32.084C39.1452 32.084 39.1783 32.0955 39.2004 32.107C39.2115 32.1127 39.2197 32.1156 39.228 32.1184C39.2363 32.1213 39.2446 32.1242 39.2556 32.1299C39.2667 32.1357 39.2805 32.1443 39.2943 32.1529C39.3081 32.1615 39.3219 32.1701 39.333 32.1759C39.3414 32.1803 39.3482 32.183 39.3541 32.1853C39.3635 32.189 39.3703 32.1918 39.3771 32.1989C39.4213 32.2333 39.4545 32.2678 39.4876 32.3022L44.6019 38.3907C44.6351 38.4251 44.6572 38.4596 44.6793 38.4941Z" fill="white"/>
<path d="M39.2114 51.946L36.7261 45.513C36.715 45.5015 36.704 45.4785 36.7371 45.4785L37.7755 44.3642L38.4051 44.8811C38.6591 45.0994 38.9795 45.2143 39.3109 45.2143C39.6533 45.2143 39.9847 45.0879 40.2498 44.8582C40.2498 44.8582 41.6747 43.5945 41.7079 43.5601C41.984 43.2844 42.1497 42.9053 42.1608 42.5147V42.4113H42.2602C42.6578 42.4113 43.0444 42.2275 43.3206 41.9288L45.1874 39.8955C45.4083 39.6543 45.5409 39.3441 45.574 39.0339C45.6292 39.0454 45.6955 39.0454 45.7507 39.0454C45.9827 39.0454 46.2036 38.988 46.4135 38.8731L46.5571 38.7812L49.3186 36.8513C49.407 36.7939 49.4843 36.7249 49.5506 36.656L50.357 36.4722L50.5779 36.9891L50.4453 37.0925L50.3017 37.2074C49.893 37.5291 49.5064 37.8622 49.1308 38.2183L49.0204 38.3217C48.4239 38.8846 47.8495 39.4935 47.3193 40.1253L47.2861 40.1597C46.5902 40.9868 45.9606 41.8829 45.3973 42.8134C45.3752 42.8478 45.3531 42.8823 45.342 42.9053C45.3144 42.957 45.284 43.0058 45.2537 43.0546C45.2233 43.1034 45.1929 43.1523 45.1653 43.204C45.1432 43.2269 45.1101 43.2844 45.099 43.3073C44.5909 44.2034 44.1491 45.1339 43.7624 46.0988C43.7514 46.1275 43.7376 46.1591 43.7238 46.1907C43.71 46.2223 43.6962 46.2539 43.6851 46.2826L43.663 46.3401C43.5747 46.5698 43.4863 46.7996 43.409 47.0293C43.3095 47.4199 43.2875 47.6841 43.2985 47.9139L43.4531 50.4067L44.2374 50.3492L44.0717 47.7416C44.0624 47.4603 44.179 47.1709 44.2488 46.9977C44.2617 46.9657 44.273 46.9377 44.2816 46.9144C44.3037 46.88 44.3147 46.8455 44.3258 46.8111C44.3258 46.8111 44.37 46.6962 44.381 46.6732C44.5246 46.2941 44.6793 45.915 44.845 45.5474C44.9333 45.3406 45.1432 44.9041 45.2095 44.7663C46.2478 42.6755 47.6065 40.7915 49.2523 39.1833L49.2855 39.1603C49.8157 38.6663 50.357 38.2068 50.9093 37.7588L51.5499 37.2534L50.8761 35.6681L50.8098 35.5072L49.9593 35.7025L48.1698 36.1161L47.728 36.2195L45.7065 35.6566C45.574 35.6106 45.4414 35.5532 45.3199 35.4843C45.2647 35.4498 45.2095 35.4153 45.1542 35.3694C44.8891 35.1511 44.6903 34.841 44.6019 34.4848L44.5136 34.1172C44.3921 33.6118 44.624 33.0834 45.0769 32.8421L51.6052 29.3843L52.3011 29.0167L52.5883 28.8674C52.6192 28.8433 52.6556 28.8304 52.6936 28.8169C52.7098 28.8112 52.7264 28.8054 52.7429 28.7985C52.7484 28.7985 52.7567 28.7956 52.765 28.7927C52.7733 28.7899 52.7816 28.787 52.7871 28.787L52.9196 28.7525C52.9417 28.7525 52.9804 28.7497 53.0191 28.7468C53.0577 28.7439 53.0964 28.741 53.1185 28.741H53.1516C53.2068 28.741 53.251 28.741 53.2952 28.7525H53.3173C53.3725 28.764 53.4167 28.7755 53.472 28.7985C53.4775 28.7985 53.483 28.8013 53.4885 28.8042C53.494 28.8071 53.4996 28.81 53.5051 28.81L53.6376 28.8789C53.6376 28.8904 53.6487 28.8904 53.6487 28.8904C53.6929 28.9134 53.7371 28.9478 53.7812 28.9823C53.7923 28.9823 53.8033 28.9938 53.8144 29.0053C53.8295 29.021 53.8447 29.0354 53.8594 29.0494C53.8876 29.0762 53.9141 29.1014 53.9359 29.1316L56.8741 35.4153C57.6584 37.1155 57.6805 39.0914 56.9294 40.7915L56.7526 41.1592L56.7085 41.2396C56.6864 41.2855 53.1185 48.1436 53.1185 48.1436L53.4609 57.3222C53.483 57.6898 53.1958 58 52.8423 58H39.9736C39.6422 58 39.3661 57.7243 39.355 57.3682L39.2114 51.946Z" fill="white"/>
<path d="M22.0604 63.7C21.8378 63.8827 21.586 63.9962 21.305 64.0405C21.0281 64.0814 20.7423 64.04 20.4475 63.9163C20.1569 63.7891 19.883 63.5689 19.6259 63.2556C19.3721 62.9464 19.1969 62.6278 19.1004 62.3C19.0079 61.9688 18.9998 61.6478 19.0759 61.337C19.1553 61.0303 19.3185 60.7583 19.5655 60.5212L20.3267 61.4488C20.1664 61.6149 20.0755 61.8068 20.054 62.0245C20.0401 62.2429 20.116 62.4531 20.2818 62.6551C20.4307 62.8365 20.5915 62.9357 20.7641 62.9527C20.9443 62.9705 21.1106 62.9167 21.2631 62.7915C21.3992 62.6799 21.4784 62.5494 21.5006 62.4C21.5271 62.2472 21.518 62.0891 21.4735 61.9255C21.429 61.762 21.3555 61.5463 21.253 61.2785C21.1204 60.932 21.0263 60.6366 20.9708 60.3924C20.9194 60.1448 20.9274 59.8898 20.995 59.6274C21.0659 59.3692 21.2374 59.1284 21.5095 58.9051C21.8846 58.5972 22.2894 58.4892 22.7237 58.5813C23.1655 58.674 23.5691 58.943 23.9345 59.3883C24.3135 59.85 24.5033 60.3083 24.504 60.7631C24.508 61.222 24.3398 61.6223 23.9992 61.9639L23.2277 61.024C23.3641 60.8707 23.4378 60.6998 23.4487 60.5114C23.4638 60.3196 23.3953 60.131 23.243 59.9455C23.1111 59.7847 22.9612 59.6903 22.7934 59.6624C22.6297 59.6312 22.4675 59.6815 22.3067 59.8135C22.1789 59.9184 22.1022 60.0434 22.0765 60.1887C22.0584 60.3347 22.0698 60.4874 22.111 60.6468C22.1555 60.8104 22.2277 61.0202 22.3275 61.2764C22.4586 61.6379 22.552 61.9408 22.6075 62.185C22.6664 62.4333 22.6601 62.6904 22.5884 62.9562C22.5168 63.2219 22.3408 63.4699 22.0604 63.7Z" fill="white"/>
<path d="M26.4122 62.3642L24.311 64.9243C24.0302 65.2665 23.893 65.5851 23.8993 65.8801C23.9131 66.1743 24.0622 66.4381 24.3467 66.6716C24.627 66.9017 24.9108 66.9931 25.1979 66.9458C25.4926 66.8979 25.7803 66.7028 26.0611 66.3606L28.1623 63.8004L29.028 64.511L26.9269 67.0712C26.5953 67.4752 26.2382 67.7548 25.8556 67.9099C25.4805 68.0643 25.1031 68.0996 24.7235 68.0157C24.348 67.9352 23.9912 67.7563 23.6531 67.4788C23.1296 67.0491 22.8397 66.549 22.7835 65.9786C22.7273 65.4081 22.9479 64.8199 23.4453 64.2138L25.5464 61.6536L26.4122 62.3642Z" fill="white"/>
<path d="M34.9117 67.8325L32.5088 72.873L31.4978 72.3911L33.1743 68.8742L30.2052 71.7749L29.3241 71.3549L29.7011 67.2363L28.0315 70.7387L27.0133 70.2533L29.4162 65.2127L30.651 65.8014L30.3747 70.3225L33.684 67.2473L34.9117 67.8325Z" fill="white"/>
<path d="M41.7005 69.3971L40.7593 74.9012L39.6554 74.7125L40.312 70.8722L38.2439 74.4711L37.2818 74.3066L36.5242 70.2408L35.8703 74.0653L34.7584 73.8752L35.6995 68.3711L37.048 68.6016L38.0119 73.0274L40.3599 69.1679L41.7005 69.3971Z" fill="white"/>
<path d="M44.0815 70.2886L44.1662 71.7501L46.1628 71.6344L46.2128 72.497L44.2161 72.6127L44.3041 74.1301L46.5403 74.0006L46.5926 74.903L43.2302 75.0979L42.9035 69.4593L46.2659 69.2645L46.3177 70.159L44.0815 70.2886Z" fill="white"/>
<path d="M51.8544 74L50.0459 72.1802L49.5644 72.299L50.0913 74.4349L48.9961 74.7051L47.6434 69.2215L49.7328 68.7061C50.3697 68.549 50.8922 68.5849 51.3002 68.8138C51.7134 69.0415 51.9826 69.409 52.1078 69.9165C52.21 70.3307 52.1791 70.7064 52.015 71.0435C51.8562 71.3793 51.5707 71.6475 51.1588 71.848L53.0661 73.7011L51.8544 74ZM49.3785 71.5456L50.2795 71.3233C50.9061 71.1687 51.151 70.8144 51.0143 70.2604C50.9492 69.9963 50.8211 69.8109 50.63 69.7042C50.4427 69.5911 50.1886 69.5742 49.8676 69.6534L48.9666 69.8756L49.3785 71.5456Z" fill="white"/>
<path d="M57.0351 65.7599L58.998 69.2268C59.266 69.7002 59.3426 70.1441 59.2278 70.5584C59.1151 70.9654 58.8266 71.3003 58.3625 71.5631C57.8613 71.8469 57.383 71.9277 56.9277 71.8054C56.4724 71.6832 56.0937 71.3553 55.7915 70.8215L56.7592 70.2737C56.901 70.5243 57.0611 70.688 57.2395 70.7648C57.4224 70.8389 57.616 70.8182 57.8202 70.7026C58.0058 70.5975 58.1125 70.4666 58.1403 70.3099C58.1654 70.1486 58.1241 69.9728 58.0164 69.7825L56.0535 66.3156L57.0351 65.7599Z" fill="white"/>
<path d="M63.8353 66.3298L62.1223 67.8102L62.5625 68.9313L61.6606 69.7107L59.5831 64.1258L60.5576 63.2836L65.7765 66.1536L64.8747 66.933L63.8353 66.3298ZM63.0455 65.881L60.8572 64.6213L61.7865 66.969L63.0455 65.881Z" fill="white"/>
<path d="M65.9267 57.0265L70.4781 60.2616L69.8293 61.1745L66.6537 58.9174L68.9996 62.3417L68.4342 63.1372L64.442 62.0565L67.6046 64.3044L66.951 65.2238L62.3996 61.9887L63.1922 60.8737L67.5981 61.9246L65.1388 58.135L65.9267 57.0265Z" fill="white"/>
</svg>
