<svg width="127" height="128" viewBox="0 0 127 128" fill="none" xmlns="http://www.w3.org/2000/svg">
<path d="M14.3823 71.1401C39.1262 51.9268 -5.40231 15.5724 28.3279 24.6551C50.0815 30.5134 53.4828 28.0389 69.5676 15.2222C85.6525 2.40554 122.355 7.04881 120.564 31.3156C118.773 55.5798 105.039 64.1974 120.632 75.2947C136.224 86.3921 118.288 112.632 98.933 122.796C77.14 134.244 48.9504 118.069 29.7261 122.796C-7.41325 131.929 -6.39207 87.2753 14.3823 71.1401Z" fill="#FFEEEC"/>
<g clip-path="url(#clip0)">
<path d="M73.6114 74.7227C73.6114 74.7227 73.5536 84.3241 73.9125 96.4615C74.308 109.802 73.587 123.018 73.587 123.018L65.1935 123.26C65.1935 123.26 65.1449 99.8337 65.2087 96.9099C65.2726 93.9831 64.1957 76.3678 64.1957 76.3678L73.6114 74.7227Z" fill="#893A1F"/>
<path d="M74.3415 118.961L74.524 121.876L79.3094 125.102C79.9027 125.484 80.5781 125.72 81.2808 125.784L82.0809 125.86C82.7137 125.92 83.1792 126.478 83.1183 127.108L83.0392 127.993H71.2749C70.6939 127.996 70.1463 127.708 69.7934 127.25L69.1028 126.351C68.8777 126.057 68.5369 125.869 68.1658 125.836L67.603 125.781L67.3931 127.993H65.2087L64.9745 119.052L74.3415 118.961Z" fill="#F97919"/>
<path d="M71.2749 127.999C70.6939 128.002 70.1463 127.714 69.7934 127.256L69.1028 126.357C68.8777 126.063 68.5369 125.875 68.1658 125.838L67.603 125.787L67.3931 127.999H65.2087L65.1327 125.023L68.4426 125.187C68.8138 125.205 69.1606 125.378 69.4009 125.66L70.2315 126.644C70.5813 127.059 71.0985 127.302 71.6431 127.302L83.0909 127.356L83.0362 128.002H71.2749V127.999Z" fill="#59230F"/>
<path d="M74.3142 122.96L75.1325 121.991L73.8913 122L74.7066 120.785L73.6631 120.764L74.375 119.494L73.2463 119.627" stroke="#774022" stroke-miterlimit="10" stroke-linejoin="round"/>
<path d="M56.4499 74.7227C56.4499 74.7227 56.3921 84.3241 56.751 96.4615C57.1465 109.802 56.4255 123.018 56.4255 123.018L48.032 123.26C48.032 123.26 47.9834 99.8337 48.0472 96.9099C48.1111 93.9831 47.0342 76.3678 47.0342 76.3678L56.4499 74.7227Z" fill="#893A1F"/>
<path d="M57.1799 118.961L57.3624 121.876L62.1478 125.102C62.7411 125.484 63.4164 125.72 64.1192 125.784L64.9193 125.86C65.5521 125.92 66.0175 126.478 65.9567 127.108L65.8776 127.993H54.1164C53.5353 127.996 52.9877 127.708 52.6348 127.25L51.9442 126.351C51.7191 126.057 51.3784 125.869 51.0072 125.836L50.4444 125.781L50.2345 127.993H48.0502L47.8159 119.052L57.1799 118.961Z" fill="#F97919"/>
<path d="M54.1164 127.999C53.5353 128.002 52.9877 127.714 52.6348 127.256L51.9442 126.357C51.7191 126.063 51.3784 125.875 51.0072 125.838L50.4444 125.787L50.2345 127.999H48.0502L47.9741 125.023L51.2841 125.187C51.6552 125.205 52.002 125.378 52.2424 125.66L53.0729 126.644C53.4227 127.059 53.9399 127.302 54.4845 127.302L65.9324 127.356L65.8776 128.002H54.1164V127.999Z" fill="#59230F"/>
<path d="M57.1525 122.96L57.9739 121.991L56.7327 122L57.545 120.785L56.5046 120.764L57.2134 119.494L56.0878 119.627" stroke="#774022" stroke-miterlimit="10" stroke-linejoin="round"/>
<path d="M48.084 49.9327C48.084 49.9327 44.5611 59.1463 44.4942 67.5722C44.4273 75.9981 46.4442 115.625 46.4442 115.625L58.3059 115.792L60.8461 72.2836L63.5142 115.625H74.9043C74.9043 115.625 77.0886 76.5919 73.9247 61.2884C72.577 54.7774 68.9719 48.5996 68.9719 48.5996" fill="#CF8FEE"/>
<path d="M60.8461 72.2822C60.8461 72.2822 60.8369 57.4149 60.84 51.1523" stroke="#000100" stroke-width="0.75" stroke-miterlimit="10"/>
<path d="M46.3197 113.732H58.4247" stroke="#000100" stroke-width="0.75" stroke-miterlimit="10"/>
<path d="M63.4017 113.732H75.0017" stroke="#000100" stroke-width="0.75" stroke-miterlimit="10"/>
<path d="M50.8493 49.9766C50.8493 49.9766 47.153 59.1205 46.9248 67.5464C46.6966 75.9692 47.9652 115.626 47.9652 115.626" stroke="#000100" stroke-width="0.75" stroke-miterlimit="10"/>
<path d="M58.8416 88.0817C58.5617 89.2967 58.2849 90.5116 58.0172 91.7266C57.7464 92.9415 57.4483 94.1565 57.2353 95.3836C57.2231 95.4502 57.3205 95.4805 57.3387 95.4108C57.6551 94.208 57.8924 92.9809 58.1571 91.7629C58.4218 90.545 58.6773 89.324 58.9329 88.106C58.942 88.0484 58.8538 88.0242 58.8416 88.0817Z" fill="#000100"/>
<path d="M58.5249 93.6954C58.4276 94.1317 58.3363 94.571 58.245 95.0073C58.1994 95.2254 58.1568 95.4466 58.1142 95.6678C58.0747 95.8768 58.026 96.0829 58.0229 96.2949C58.0229 96.3465 58.0899 96.3495 58.1081 96.3071C58.1872 96.098 58.2177 95.8738 58.2602 95.6526C58.2998 95.4405 58.3393 95.2285 58.3758 95.0164C58.4519 94.5831 58.528 94.1498 58.5979 93.7136C58.601 93.6711 58.534 93.6499 58.5249 93.6954Z" fill="#000100"/>
<path d="M73.374 88.4809C73.2736 89.7928 73.1337 91.1047 72.9664 92.4075C72.8812 93.0649 72.7899 93.7224 72.6926 94.3799C72.5952 95.0222 72.4674 95.6645 72.3914 96.3099C72.3853 96.3704 72.4827 96.3826 72.4979 96.325C72.6561 95.6766 72.7443 95.004 72.8447 94.3465C72.942 93.7133 73.0272 93.0801 73.1033 92.4469C73.2615 91.1289 73.374 89.8079 73.4531 88.4809C73.4531 88.4294 73.3771 88.4324 73.374 88.4809Z" fill="#000100"/>
<path d="M73.6722 92.8944C73.6661 93.3791 73.66 93.8639 73.66 94.3487C73.66 94.8304 73.6448 95.3212 73.6996 95.803C73.7026 95.8424 73.7574 95.8424 73.7604 95.803C73.8152 95.3212 73.7999 94.8304 73.7999 94.3487C73.7999 93.8639 73.7908 93.3791 73.7878 92.8944C73.7878 92.8217 73.6752 92.8217 73.6722 92.8944Z" fill="#000100"/>
<path d="M64.9778 115.607C64.9778 115.607 62.471 72.6325 60.8464 67.8848" stroke="#000100" stroke-width="0.75" stroke-miterlimit="10"/>
<path fill-rule="evenodd" clip-rule="evenodd" d="M103.93 27.353C103.93 28.065 103.349 28.6437 102.634 28.6437H63.1002C62.3853 28.6437 61.8042 28.065 61.8042 27.353V1.2907C61.8042 0.578692 62.3853 0 63.1002 0H102.637C103.352 0 103.933 0.578692 103.933 1.2907V27.353H103.93Z" fill="#EA9649"/>
<path fill-rule="evenodd" clip-rule="evenodd" d="M70.4411 1.34112C70.7453 2.39246 70.1704 3.58923 70.0639 4.83751C70.0335 5.17988 70.0548 5.57981 70.0213 5.94339C70 6.19486 70.1217 6.74326 69.6836 6.73114C69.4311 6.43119 69.6653 5.6798 69.6167 5.18897C69.3398 5.27683 69.0904 5.94339 68.3572 5.75857C68.3055 5.64647 68.2264 5.56466 68.1199 5.50407C68.0986 4.39516 68.6127 3.85889 69.6623 3.89827C69.9483 3.13779 69.784 1.89557 70.2525 1.33203C70.3164 1.33809 70.3803 1.33809 70.4411 1.34112ZM68.561 5.33743C69.1482 5.28592 69.2607 4.72541 69.5254 4.32548C69.0204 4.18004 68.4454 4.8163 68.561 5.33743Z" fill="white"/>
<path fill-rule="evenodd" clip-rule="evenodd" d="M65.373 1.21807C65.5191 1.78768 65.1327 2.31789 65.1236 2.93294C65.4217 2.91779 65.9054 2.75418 66.3709 2.60875C66.7299 2.49665 67.317 2.0846 67.4843 2.58754C67.2136 2.8784 66.6964 2.97233 66.2888 3.09958C65.8537 3.23289 65.4065 3.30561 65.0384 3.48436C65.0536 4.18425 64.868 4.78718 65.2879 5.09622C65.5343 5.27498 65.8902 5.0841 66.1427 5.37496C65.9389 5.95971 65.0688 5.56887 64.8467 5.32648C64.4817 4.93261 64.6034 4.24485 64.6003 3.65403C64.4725 3.52375 64.0923 3.92672 63.858 3.68736C63.8276 3.16321 64.4452 3.3359 64.6855 3.10261C64.7646 2.39667 64.9015 1.75738 65.1266 1.20898C65.2088 1.21201 65.2909 1.21504 65.373 1.21807Z" fill="white"/>
<path fill-rule="evenodd" clip-rule="evenodd" d="M76.8603 1.70148C76.7173 2.18625 76.6412 2.74677 76.3766 3.10125C75.8807 2.87099 76.3157 1.43183 76.8603 1.70148Z" fill="white"/>
<path fill-rule="evenodd" clip-rule="evenodd" d="M78.6797 2.63341C78.4607 2.92124 77.8857 2.85156 77.8492 3.34238C77.8127 3.85442 79.6806 5.09664 77.9557 5.44204C77.7944 5.12391 78.1504 5.02392 78.2264 4.77548C78.0713 4.32404 77.6727 4.09983 77.4628 3.6999C77.2286 2.86974 78.2994 1.9305 78.6797 2.63341Z" fill="white"/>
<path fill-rule="evenodd" clip-rule="evenodd" d="M74.5787 3.15625C75.0837 3.42287 74.9012 4.32272 74.9438 5.01655C75.68 4.9105 76.036 4.39544 76.7631 4.28334C76.9334 4.76507 76.3919 4.95595 76.0512 5.11956C75.6831 5.29529 75.2206 5.37406 74.9803 5.63463C74.9681 6.94047 75.1324 8.76744 74.2258 9.30371C71.3783 9.3128 73.4683 5.81339 74.5605 5.31347C74.4723 5.09835 74.527 4.74992 74.5301 4.44997C74.241 4.57723 74.1772 5.13774 73.7604 5.16198C73.5231 5.1741 73.4227 5.10744 73.2128 4.89536C73.082 5.65584 71.8742 6.11031 71.786 5.02867C71.5761 5.25287 71.4605 5.58009 71.1471 5.55888C69.8237 5.47102 71.5852 2.60786 72.3062 4.30757C72.0993 4.59541 72.2028 4.94383 72.3336 5.23166C72.9481 5.05896 72.7443 4.01065 73.2554 3.72585C73.6509 3.77736 73.4257 4.39847 73.59 4.66206C74.2715 4.53178 74.019 3.41075 74.5787 3.15625ZM71.1076 5.06199C71.3722 4.93777 71.6278 4.46815 71.573 4.21668C71.3114 4.38332 71.1258 4.63479 71.1076 5.06199ZM74.0585 8.86742C74.6244 8.38569 74.5209 6.84655 74.4783 5.92549C73.9125 6.44358 72.2301 8.69775 74.0585 8.86742Z" fill="white"/>
<path fill-rule="evenodd" clip-rule="evenodd" d="M67.1344 3.74525C67.7094 3.66344 67.898 3.93007 67.9163 4.32697C67.9284 4.62995 67.5877 5.15411 67.2652 5.22682C66.7815 5.33589 66.1 5.11775 66.31 4.33C66.383 4.05429 66.7389 3.80281 67.1344 3.74525ZM66.7906 4.71781C66.8606 4.73296 66.8849 4.79053 66.9093 4.84507C67.2287 4.80265 67.4204 4.62692 67.4843 4.31182C67.2804 3.94218 66.7937 4.30879 66.7906 4.71781Z" fill="white"/>
<path fill-rule="evenodd" clip-rule="evenodd" d="M64.1256 9.8556C64.153 10.1313 64.2412 10.3131 64.3507 10.4797C64.5454 10.7827 64.9713 10.8706 64.9987 11.3038C64.2229 11.4432 63.8792 10.6827 63.6845 10.0859C63.4533 10.1465 62.9543 10.3404 62.9482 9.93437C63.0121 9.66169 63.4502 9.79197 63.6388 9.6526C63.6662 8.6255 63.8092 7.54386 64.299 6.90457C64.6549 6.43495 65.7653 5.95928 65.9722 6.84398C66.2582 8.09225 64.731 9.33447 64.1256 9.8556ZM65.2299 6.75611C64.4633 7.16817 64.1956 8.11952 64.086 9.23752C64.5545 9.07694 66.1578 7.31057 65.2299 6.75611Z" fill="white"/>
<path fill-rule="evenodd" clip-rule="evenodd" d="M70.5508 8.36926C70.3896 8.8207 70.0732 8.56922 69.9698 9.02369C69.8633 9.49028 70.3896 9.85386 70.4748 10.3962C70.5873 11.1203 70.4869 11.8687 69.6807 11.7838C69.6169 11.3748 69.9485 11.39 70.0154 11.1173C70.2557 10.4204 69.5438 9.85083 69.5286 9.25093C69.5134 8.69345 69.8937 8.02083 70.5508 8.36926Z" fill="white"/>
<path fill-rule="evenodd" clip-rule="evenodd" d="M68.7923 9.10436C68.8562 9.44976 68.4394 9.28009 68.3451 9.45582C68.4394 10.0224 69.0235 10.589 68.8866 11.507C68.8318 11.8857 68.6919 12.4614 68.2903 12.5311C67.9709 12.122 68.412 11.8797 68.4576 11.3676C68.5185 10.6677 67.7792 9.80425 67.98 9.25585C68.0104 9.17708 68.4576 8.60142 68.7923 9.10436Z" fill="white"/>
<path fill-rule="evenodd" clip-rule="evenodd" d="M65.8294 10.5937C65.8203 10.8209 66.0363 10.8361 66.1245 10.9724C66.7299 10.9361 66.8851 10.0908 67.5118 10.2847C67.6822 10.5573 67.2593 10.7785 67.0555 10.9452C66.8425 11.1209 66.593 11.3875 66.3588 11.4117C65.6134 11.4966 65.5222 10.8937 65.1602 10.3816C65.3701 9.78475 65.7412 8.63039 66.5748 8.89398C67.4114 9.16364 66.5322 10.5361 65.8294 10.5937ZM65.8447 10.1635C66.0728 9.91806 66.4318 9.81201 66.4927 9.38481C66.1367 9.21211 65.6652 9.7696 65.8447 10.1635Z" fill="white"/>
<path fill-rule="evenodd" clip-rule="evenodd" d="M71.2928 11.6618C70.9673 11.4467 70.949 10.7741 71.0981 10.2984C71.4358 10.0197 71.886 9.68944 72.2815 10.0348C72.8474 10.5226 72.4062 11.986 71.2928 11.6618ZM71.7765 10.3227C71.5423 10.4681 71.2745 10.9983 71.5544 11.3013C72.0412 11.3316 72.2846 10.462 71.7765 10.3227Z" fill="white"/>
<path fill-rule="evenodd" clip-rule="evenodd" d="M73.3799 10.4418C73.5198 10.8145 73.2308 11.1387 73.1547 11.481C73.5411 11.381 73.748 11.0902 74.0948 11.1447C74.8219 11.2629 74.3716 12.2051 74.8432 12.6505C75.0318 12.6233 75.2691 12.4384 75.4638 12.6111C75.476 12.902 75.2691 13.0535 75.1383 13.0929C74.323 13.3201 74.1252 12.2385 74.0826 11.575C73.535 11.6265 73.3281 12.0446 73.0026 12.3354C72.9965 12.6475 72.9083 12.8747 72.5524 12.8111C72.528 12.0355 72.8079 11.0417 73.1365 10.4297C73.2156 10.4357 73.2977 10.4388 73.3799 10.4418Z" fill="white"/>
<path d="M77.0249 32.2518C78.0593 28.8706 78.5004 24.4834 78.9719 24.2198C79.1788 24.1047 79.3765 24.2622 79.4891 24.5683C79.7355 25.2378 79.699 26.474 80.128 26.4467C80.3835 26.4316 81.1076 23.5624 81.6278 22.3201C81.8164 21.8717 82.2697 22.1111 82.2727 22.4019C82.291 23.5593 81.6308 26.2074 81.6308 26.2074C81.8073 26.2134 82.4309 23.1564 83.0607 22.0414C83.1976 21.802 83.6752 21.8263 83.6813 22.1414C83.6995 23.3715 83.0698 26.5952 83.0698 26.5952C83.0698 26.5952 83.6843 23.4593 84.3414 22.4868C84.4601 22.308 84.9012 22.3989 84.9073 22.6171C84.9408 23.5684 84.2045 27.2436 84.2045 27.2436C84.2045 27.2436 84.8373 24.6107 85.2389 23.8108C85.3454 23.5957 85.8321 23.7896 85.8565 24.0168C86.0573 25.8529 84.0068 33.5516 84.0068 33.5516" fill="#893A1F"/>
<path d="M52.3159 9.97502C48.5983 10.3144 49.9004 13.0806 48.6318 14.1864C48.0507 14.6924 47.4119 15.2045 47.3023 15.9771C47.1867 16.789 47.6157 17.5071 46.9951 18.2221C46.4901 18.8069 45.8482 18.9311 45.6048 19.7128C45.3584 20.5036 45.839 21.2247 45.5105 21.9942C45.2002 22.7153 44.6769 23.1304 44.5461 23.9545C44.4274 24.6938 44.1019 26.2269 44.6343 26.8419C45.7539 28.1387 47.7891 28.9598 49.8943 28.7052C52.0786 28.4386 55.5924 27.1267 57.7372 27.2297C61.2083 27.3964 65.3214 28.7204 67.9104 25.2937C68.3272 24.7423 68.5614 24.2211 68.5705 23.5637C68.5827 22.7184 67.9834 22.3063 67.8556 21.564C67.6974 20.6369 68.6192 19.7037 68.5705 18.7251C68.5188 17.6525 67.7035 16.8951 66.6661 16.4467C65.9968 16.1588 64.7769 15.9801 64.427 15.2802C64.0102 14.45 64.7465 13.5532 63.995 12.7443C63.271 11.9656 62.267 12.2534 61.3331 11.9535C60.3778 11.6475 60.4995 11.1991 60.2196 10.478C59.8059 9.41147 58.6894 9.67204 57.6794 9.18121C56.6207 8.66614 54.6615 8.14805 54.0196 9.22666C53.5511 10.0205 52.7418 9.89927 52.3159 9.97502Z" fill="#2C1912"/>
<path d="M84.0584 27.639C83.4438 27.9178 82.8993 28.3571 82.4521 28.86C82.233 29.1085 82.0353 29.3751 81.868 29.6629C81.7037 29.9386 81.5242 30.2719 81.4634 30.59C81.4512 30.6567 81.5455 30.7082 81.582 30.6385C81.6611 30.4931 81.7128 30.3355 81.7828 30.1871C81.8497 30.0447 81.9288 29.9053 82.0079 29.769C82.1752 29.4811 82.3669 29.2084 82.5799 28.957C83.0088 28.451 83.529 28.0511 84.101 27.7117C84.1466 27.6814 84.107 27.6178 84.0584 27.639Z" fill="#000100"/>
<path d="M80.0061 26.8689C80.1096 27.2689 80.1978 27.6749 80.2039 28.09C80.2069 28.2808 80.1917 28.4687 80.1643 28.6535C80.1339 28.8474 80.0609 29.0292 80.0214 29.2201C80.0092 29.2807 80.0792 29.3049 80.1157 29.2595C80.3499 28.9534 80.3834 28.4778 80.3712 28.1081C80.356 27.6718 80.2556 27.2477 80.1339 26.8296C80.1065 26.7538 79.9849 26.7871 80.0061 26.8689Z" fill="#000100"/>
<path d="M50.9104 27.0177C50.9104 27.0177 55.6897 26.233 58.4003 26.2815C61.1079 26.333 68.3849 27.5419 68.3849 27.5419L71.1777 52.3165C67.3779 56.1038 49.8456 54.7919 47.9838 52.3165L50.9104 27.0177Z" fill="#FFCFDC"/>
<g opacity="0.35">
<g opacity="0.35">
<g opacity="0.35">
<path opacity="0.35" d="M47.8011 52.7923C52.0298 53.683 56.3468 54.0315 60.6637 53.8224C62.2152 53.7467 63.7667 53.5921 65.3091 53.3922C66.8424 53.1952 68.3727 52.9438 69.8664 52.5317C70.6756 52.3075 71.4696 52.0348 72.2302 51.6834C72.866 51.3895 73.6266 51.0168 73.9825 50.3866C74.092 50.1927 73.8791 50.0291 73.6996 50.1048C73.4136 50.226 73.1642 50.4018 72.8934 50.5533C72.6135 50.7078 72.3428 50.8714 72.0537 51.0138C71.424 51.3228 70.7608 51.5622 70.0885 51.7682C68.6404 52.2106 67.1466 52.4923 65.6529 52.7105C62.1239 53.2255 58.5402 53.4619 54.9777 53.3104C52.5987 53.2104 50.2167 52.9619 47.8681 52.5529C47.7129 52.5257 47.6429 52.759 47.8011 52.7923Z" fill="white"/>
</g>
</g>
<g opacity="0.35">
<g opacity="0.35">
<path opacity="0.35" d="M47.704 51.1399C51.9327 52.0307 56.2496 52.3791 60.5665 52.1701C62.118 52.0943 63.6696 51.9398 65.212 51.7398C66.7453 51.5429 68.2755 51.2914 69.7692 50.8794C70.5785 50.6552 71.3725 50.3825 72.133 50.031C72.7689 49.7371 73.5294 49.3645 73.8854 48.7343C73.9949 48.5404 73.7819 48.3768 73.6024 48.4525C73.3165 48.5737 73.067 48.7494 72.7962 48.9009C72.5164 49.0554 72.2456 49.219 71.9566 49.3614C71.3269 49.6705 70.6636 49.9098 69.9913 50.1159C68.5432 50.5582 67.0495 50.84 65.5558 51.0581C62.0268 51.5732 58.443 51.8095 54.8806 51.658C52.5016 51.5581 50.1195 51.3096 47.7709 50.9006C47.6127 50.8733 47.5458 51.1066 47.704 51.1399Z" fill="white"/>
</g>
</g>
<g opacity="0.35">
<g opacity="0.35">
<path opacity="0.35" d="M47.6034 49.4915C51.8321 50.3823 56.149 50.7307 60.4659 50.5216C62.0174 50.4459 63.569 50.2914 65.1114 50.0914C66.6447 49.8945 68.1749 49.643 69.6686 49.2309C70.4779 49.0067 71.2719 48.734 72.0324 48.3826C72.6683 48.0887 73.4288 47.716 73.7848 47.0858C73.8943 46.8919 73.6813 46.7283 73.5018 46.8041C73.2159 46.9253 72.9664 47.101 72.6956 47.2525C72.4158 47.407 72.145 47.5706 71.856 47.713C71.2262 48.022 70.563 48.2614 69.8907 48.4674C68.4426 48.9098 66.9489 49.1915 65.4552 49.4097C61.9262 49.9248 58.3424 50.1611 54.78 50.0096C52.401 49.9096 50.0189 49.6612 47.6703 49.2521C47.5152 49.2249 47.4452 49.4582 47.6034 49.4915Z" fill="white"/>
</g>
</g>
<g opacity="0.35">
<g opacity="0.35">
<path opacity="0.35" d="M47.5059 47.8392C51.7345 48.7299 56.0515 49.0784 60.3684 48.8693C61.9199 48.7935 63.4714 48.639 65.0139 48.4391C66.5471 48.2421 68.0774 47.9906 69.5711 47.5786C70.3803 47.3544 71.1744 47.0817 71.9349 46.7303C72.5707 46.4364 73.3313 46.0637 73.6872 45.4335C73.7968 45.2396 73.5838 45.076 73.4043 45.1517C73.1183 45.2729 72.8689 45.4486 72.5981 45.6001C72.3182 45.7546 72.0475 45.9183 71.7585 46.0607C71.1287 46.3697 70.4655 46.6091 69.7932 46.8151C68.3451 47.2574 66.8514 47.5392 65.3576 47.7574C61.8286 48.2724 58.2449 48.5087 54.6825 48.3573C52.3034 48.2573 49.9214 48.0088 47.5728 47.5998C47.4176 47.5725 47.3477 47.8058 47.5059 47.8392Z" fill="white"/>
</g>
</g>
<g opacity="0.35">
<g opacity="0.35">
<path opacity="0.35" d="M47.4089 46.1927C51.6376 47.0834 55.9546 47.4318 60.2715 47.2228C61.823 47.147 63.3745 46.9925 64.9169 46.7926C66.4502 46.5956 67.9805 46.3442 69.4742 45.9321C70.2834 45.7079 71.0774 45.4352 71.838 45.0838C72.4738 44.7899 73.2344 44.4172 73.5903 43.787C73.6998 43.5931 73.4869 43.4295 73.3074 43.5052C73.0214 43.6264 72.772 43.8022 72.5012 43.9536C72.2213 44.1082 71.9506 44.2718 71.6616 44.4142C71.0318 44.7232 70.3686 44.9626 69.6963 45.1686C68.2482 45.6109 66.7544 45.8927 65.2607 46.1109C61.7317 46.6259 58.148 46.8622 54.5856 46.7108C52.2065 46.6108 49.8245 46.3623 47.4759 45.9533C47.3177 45.926 47.2508 46.1593 47.4089 46.1927Z" fill="white"/>
</g>
</g>
<g opacity="0.35">
<g opacity="0.35">
<path opacity="0.35" d="M47.3085 44.5403C51.5372 45.4311 55.8541 45.7795 60.171 45.5705C61.7225 45.4947 63.2741 45.3402 64.8165 45.1402C66.3498 44.9433 67.88 44.6918 69.3737 44.2798C70.183 44.0556 70.977 43.7829 71.7375 43.4314C72.3734 43.1375 73.1339 42.7649 73.4899 42.1347C73.5994 41.9408 73.3864 41.7771 73.2069 41.8529C72.921 41.9741 72.6715 42.1498 72.4007 42.3013C72.1209 42.4558 71.8501 42.6194 71.5611 42.7618C70.9313 43.0709 70.2681 43.3102 69.5958 43.5163C68.1477 43.9586 66.654 44.2404 65.1602 44.4585C61.6313 44.9736 58.0475 45.2099 54.4851 45.0584C52.1061 44.9584 49.724 44.71 47.3754 44.301C47.2202 44.2737 47.1503 44.507 47.3085 44.5403Z" fill="white"/>
</g>
</g>
<g opacity="0.35">
<g opacity="0.35">
<path opacity="0.35" d="M47.2109 42.8938C51.4396 43.7846 55.7565 44.133 60.0735 43.924C61.625 43.8482 63.1765 43.6937 64.7189 43.4937C66.2522 43.2968 67.7824 43.0453 69.2762 42.6333C70.0854 42.4091 70.8794 42.1364 71.64 41.7849C72.2758 41.491 73.0364 41.1184 73.3923 40.4882C73.5018 40.2943 73.2889 40.1307 73.1094 40.2064C72.8234 40.3276 72.5739 40.5033 72.3032 40.6548C72.0233 40.8093 71.7525 40.9729 71.4635 41.1153C70.8338 41.4244 70.1706 41.6637 69.4983 41.8698C68.0502 42.3121 66.5564 42.5939 65.0627 42.812C61.5337 43.3271 57.95 43.5634 54.3875 43.4119C52.0085 43.312 49.6265 43.0635 47.2779 42.6545C47.1227 42.6272 47.0527 42.8605 47.2109 42.8938Z" fill="white"/>
</g>
</g>
<g opacity="0.35">
<g opacity="0.35">
<path opacity="0.35" d="M47.1137 41.2454C51.3423 42.1362 55.6593 42.4846 59.9762 42.2755C61.5277 42.1998 63.0792 42.0453 64.6217 41.8453C66.1549 41.6484 67.6852 41.3969 69.1789 40.9848C69.9881 40.7606 70.7822 40.488 71.5427 40.1365C72.1785 39.8426 72.9391 39.4699 73.295 38.8397C73.4046 38.6458 73.1916 38.4822 73.0121 38.558C72.7261 38.6792 72.4767 38.8549 72.2059 39.0064C71.926 39.1609 71.6553 39.3245 71.3663 39.4669C70.7365 39.7759 70.0733 40.0153 69.401 40.2213C67.9529 40.6637 66.4592 40.9455 64.9654 41.1636C61.4364 41.6787 57.8527 41.915 54.2903 41.7635C51.9112 41.6635 49.5292 41.4151 47.1806 41.006C47.0224 40.9788 46.9555 41.2121 47.1137 41.2454Z" fill="white"/>
</g>
</g>
<g opacity="0.35">
<g opacity="0.35">
<path opacity="0.35" d="M47.0132 39.595C51.2419 40.4858 55.5588 40.8342 59.8757 40.6251C61.4272 40.5494 62.9788 40.3949 64.5212 40.1949C66.0545 39.998 67.5847 39.7465 69.0784 39.3345C69.8877 39.1102 70.6817 38.8376 71.4422 38.4861C72.0781 38.1922 72.8386 37.8195 73.1945 37.1893C73.3041 36.9954 73.0911 36.8318 72.9116 36.9076C72.6257 37.0288 72.3762 37.2045 72.1054 37.356C71.8255 37.5105 71.5548 37.6741 71.2658 37.8165C70.636 38.1256 69.9728 38.3649 69.3005 38.5709C67.8524 39.0133 66.3587 39.2951 64.8649 39.5132C61.336 40.0283 57.7522 40.2646 54.1898 40.1131C51.8108 40.0131 49.4287 39.7647 47.0801 39.3557C46.925 39.3284 46.855 39.5617 47.0132 39.595Z" fill="white"/>
</g>
</g>
<g opacity="0.35">
<g opacity="0.35">
<path opacity="0.35" d="M46.9159 37.9446C51.1446 38.8354 55.4615 39.1838 59.7784 38.9748C61.3299 38.899 62.8815 38.7445 64.4239 38.5445C65.9572 38.3476 67.4874 38.0961 68.9811 37.6841C69.7904 37.4599 70.5844 37.1872 71.345 36.8357C71.9808 36.5418 72.7413 36.1692 73.0973 35.539C73.2068 35.3451 72.9938 35.1814 72.8143 35.2572C72.5284 35.3784 72.2789 35.5541 72.0082 35.7056C71.7283 35.8601 71.4575 36.0237 71.1685 36.1661C70.5388 36.4752 69.8756 36.7145 69.2032 36.9205C67.7551 37.3629 66.2614 37.6447 64.7677 37.8628C61.2387 38.3779 57.6549 38.6142 54.0925 38.4627C51.7135 38.3627 49.3314 38.1143 46.9828 37.7053C46.8277 37.678 46.7577 37.9113 46.9159 37.9446Z" fill="white"/>
</g>
</g>
<g opacity="0.35">
<g opacity="0.35">
<path opacity="0.35" d="M46.8184 36.2942C51.0471 37.185 55.364 37.5334 59.6809 37.3244C61.2324 37.2486 62.784 37.0941 64.3264 36.8941C65.8597 36.6972 67.3899 36.4457 68.8836 36.0337C69.6929 35.8095 70.4869 35.5368 71.2474 35.1853C71.8833 34.8914 72.6438 34.5188 72.9998 33.8886C73.1093 33.6947 72.8963 33.5311 72.7168 33.6068C72.4309 33.728 72.1814 33.9037 71.9106 34.0552C71.6308 34.2097 71.36 34.3733 71.071 34.5157C70.4412 34.8248 69.778 35.0641 69.1057 35.2702C67.6576 35.7125 66.1639 35.9943 64.6701 36.2124C61.1412 36.7275 57.5574 36.9638 53.995 36.8123C51.616 36.7123 49.2339 36.4639 46.8853 36.0549C46.7271 36.0276 46.6602 36.2609 46.8184 36.2942Z" fill="white"/>
</g>
</g>
<g opacity="0.35">
<g opacity="0.35">
<path opacity="0.35" d="M46.7181 34.6458C50.9468 35.5365 55.2637 35.885 59.5807 35.6759C61.1322 35.6002 62.6837 35.4457 64.2261 35.2457C65.7594 35.0488 67.2897 34.7973 68.7834 34.3852C69.5926 34.161 70.3866 33.8883 71.1472 33.5369C71.783 33.243 72.5436 32.8703 72.8995 32.2401C73.009 32.0462 72.7961 31.8826 72.6166 31.9584C72.3306 32.0796 72.0812 32.2553 71.8104 32.4068C71.5305 32.5613 71.2598 32.7249 70.9707 32.8673C70.341 33.1763 69.6778 33.4157 69.0055 33.6217C67.5574 34.0641 66.0636 34.3458 64.5699 34.564C61.0409 35.0791 57.4572 35.3154 53.8947 35.1639C51.5157 35.0639 49.1337 34.8155 46.7851 34.4064C46.6299 34.3792 46.5599 34.6125 46.7181 34.6458Z" fill="white"/>
</g>
</g>
<g opacity="0.35">
<g opacity="0.35">
<path opacity="0.35" d="M46.6206 32.9934C50.8493 33.8842 55.1662 34.2326 59.4831 34.0236C61.0347 33.9478 62.5862 33.7933 64.1286 33.5933C65.6619 33.3964 67.1921 33.1449 68.6858 32.7329C69.4951 32.5087 70.2891 32.236 71.0497 31.8845C71.6855 31.5907 72.446 31.218 72.802 30.5878C72.9115 30.3939 72.6985 30.2303 72.519 30.306C72.2331 30.4272 71.9836 30.6029 71.7129 30.7544C71.433 30.9089 71.1622 31.0726 70.8732 31.215C70.2435 31.524 69.5803 31.7633 68.9079 31.9694C67.4598 32.4117 65.9661 32.6935 64.4724 32.9116C60.9434 33.4267 57.3596 33.663 53.7972 33.5115C51.4182 33.4116 49.0361 33.1631 46.6875 32.7541C46.5324 32.7268 46.4624 32.9601 46.6206 32.9934Z" fill="white"/>
</g>
</g>
<g opacity="0.35">
<g opacity="0.35">
<path opacity="0.35" d="M46.5234 31.347C50.7521 32.2377 55.0691 32.5862 59.386 32.3771C60.9375 32.3014 62.489 32.1468 64.0314 31.9469C65.5647 31.7499 67.095 31.4985 68.5887 31.0864C69.3979 30.8622 70.192 30.5895 70.9525 30.2381C71.5883 29.9442 72.3489 29.5715 72.7048 28.9413C72.8143 28.7474 72.6014 28.5838 72.4219 28.6595C72.1359 28.7807 71.8865 28.9565 71.6157 29.1079C71.3358 29.2625 71.0651 29.4261 70.7761 29.5685C70.1463 29.8775 69.4831 30.1169 68.8108 30.3229C67.3627 30.7652 65.869 31.047 64.3752 31.2652C60.8462 31.7802 57.2625 32.0165 53.7001 31.8651C51.321 31.7651 48.939 31.5166 46.5904 31.1076C46.4322 31.0803 46.3653 31.3136 46.5234 31.347Z" fill="white"/>
</g>
</g>
<g opacity="0.35">
<g opacity="0.35">
<path opacity="0.35" d="M46.4232 29.6946C50.6519 30.5854 54.9688 30.9338 59.2857 30.7248C60.8373 30.649 62.3888 30.4945 63.9312 30.2945C65.4645 30.0976 66.9947 29.8461 68.4885 29.4341C69.2977 29.2099 70.0917 28.9372 70.8523 28.5857C71.4881 28.2918 72.2487 27.9192 72.6046 27.289C72.7141 27.0951 72.5012 26.9314 72.3217 27.0072C72.0357 27.1284 71.7862 27.3041 71.5155 27.4556C71.2356 27.6101 70.9648 27.7737 70.6758 27.9161C70.0461 28.2252 69.3829 28.4645 68.7106 28.6706C67.2625 29.1129 65.7687 29.3947 64.275 29.6128C60.746 30.1279 57.1623 30.3642 53.5998 30.2127C51.2208 30.1127 48.8387 29.8643 46.4901 29.4553C46.335 29.428 46.265 29.6613 46.4232 29.6946Z" fill="white"/>
</g>
</g>
<g opacity="0.35">
<g opacity="0.35">
<path opacity="0.35" d="M46.3257 28.0462C50.5544 28.9369 54.8713 29.2854 59.1882 29.0763C60.7397 29.0006 62.2913 28.846 63.8337 28.6461C65.3669 28.4491 66.8972 28.1977 68.3909 27.7856C69.2002 27.5614 69.9942 27.2887 70.7547 26.9373C71.3905 26.6434 72.1511 26.2707 72.507 25.6405C72.6166 25.4466 72.4036 25.283 72.2241 25.3587C71.9382 25.4799 71.6887 25.6557 71.4179 25.8072C71.138 25.9617 70.8673 26.1253 70.5783 26.2677C69.9485 26.5767 69.2853 26.8161 68.613 27.0221C67.1649 27.4645 65.6712 27.7462 64.1774 27.9644C60.6485 28.4794 57.0647 28.7158 53.5023 28.5643C51.1233 28.4643 48.7412 28.2158 46.3926 27.8068C46.2375 27.7796 46.1675 28.0129 46.3257 28.0462Z" fill="white"/>
</g>
</g>
<g opacity="0.35">
<g opacity="0.35">
<path opacity="0.35" d="M46.2284 26.3958C50.4571 27.2866 54.774 27.635 59.0909 27.4259C60.6425 27.3502 62.194 27.1957 63.7364 26.9957C65.2697 26.7988 66.7999 26.5473 68.2937 26.1352C69.1029 25.911 69.8969 25.6383 70.6575 25.2869C71.2933 24.993 72.0538 24.6203 72.4098 23.9901C72.5193 23.7962 72.3063 23.6326 72.1269 23.7084C71.8409 23.8296 71.5914 24.0053 71.3207 24.1568C71.0408 24.3113 70.77 24.4749 70.481 24.6173C69.8513 24.9263 69.1881 25.1657 68.5157 25.3717C67.0676 25.8141 65.5739 26.0958 64.0802 26.314C60.5512 26.8291 56.9675 27.0654 53.405 26.9139C51.026 26.8139 48.6439 26.5655 46.2953 26.1564C46.1371 26.1292 46.0702 26.3625 46.2284 26.3958Z" fill="white"/>
</g>
</g>
</g>
<path d="M62.4706 26.2895C62.4706 26.2895 64.2168 25.9229 65.9113 26.138C67.0948 26.2895 69.2913 27.2166 70.9067 28.7345C73.1701 30.8645 75.4122 35.7 75.4122 35.7L77.6087 28.2043L85.3816 29.6465C85.3816 29.6465 84.2925 42.402 82.9295 46.1104C82.4823 47.3284 80.6844 49.9552 78.3753 50.2522C75.1536 50.6673 72.37 48.7676 71.0557 47.1042C69.7445 45.4408 64.9591 40.4962 64.9591 40.4962" fill="#F06D89"/>
<path d="M75.4127 35.7031C75.4127 35.7031 73.2466 42.9595 73.0945 44.2169" stroke="#000100" stroke-width="0.75" stroke-miterlimit="10"/>
<path d="M69.5165 33.6787L73.66 53.7269C73.66 53.7269 68.0015 50.7971 66.0392 47.7582C64.077 44.7163 62.4707 26.2891 62.4707 26.2891" fill="#F06D89"/>
<path d="M69.5165 33.6797L72.6439 48.8135" stroke="#000100" stroke-width="0.75" stroke-miterlimit="10"/>
<path d="M78.6768 28.3848L78.3726 29.7421" stroke="#AA3C4C" stroke-width="0.75" stroke-miterlimit="10"/>
<path d="M80.143 28.6738L79.9027 30.0281" stroke="#AA3C4C" stroke-width="0.75" stroke-miterlimit="10"/>
<path d="M81.6521 28.9609L81.4452 30.2607" stroke="#AA3C4C" stroke-width="0.75" stroke-miterlimit="10"/>
<path d="M83.1335 29.2305L82.9266 30.5272" stroke="#AA3C4C" stroke-width="0.75" stroke-miterlimit="10"/>
<path d="M63.2833 29.4961L63.0764 30.7959" stroke="#AA3C4C" stroke-width="0.75" stroke-miterlimit="10"/>
<path d="M73.66 53.7269C73.66 53.7269 68.0015 50.7971 66.0392 47.7582C64.077 44.7163 62.4707 26.2891 62.4707 26.2891" stroke="#AA3C4C" stroke-width="0.75" stroke-miterlimit="10"/>
<path d="M48.1692 33.8626L45.708 56.1407C47.1318 55.6499 51.7255 52.4383 52.769 51.3567C53.3592 50.7477 53.9494 50.1175 54.3297 49.3601C55.0537 47.9088 54.8012 46.203 54.7343 44.5851C54.4879 38.3528 53.4565 26.9668 53.4565 26.9668" fill="#F06D89"/>
<path d="M45.708 56.1407C47.1318 55.6499 51.7255 52.4383 52.769 51.3567C53.3592 50.7477 53.9494 50.1175 54.3297 49.3601C55.0537 47.9088 54.8012 46.203 54.7343 44.5851C54.4879 38.3528 53.4565 26.9668 53.4565 26.9668" stroke="#AA3C4C" stroke-width="0.75" stroke-miterlimit="10"/>
<path d="M50.3353 38.0323C50.3353 38.0323 62.6472 34.351 63.8976 34.1693C65.1479 33.9875 69.4283 53.0661 68.975 53.3115C68.5217 53.557 56.7879 56.2868 55.7627 56.5898C54.7374 56.8928 50.3353 38.0323 50.3353 38.0323Z" fill="#E13D46"/>
<path d="M53.2162 39.2649C53.2162 39.2649 62.4463 36.3926 62.5862 36.6804C62.7262 36.9683 63.8974 40.7737 63.8974 40.7737C63.8974 40.7737 54.7403 43.9459 54.3601 43.7974C53.9798 43.6429 53.2162 39.2649 53.2162 39.2649Z" fill="#F4D4BF"/>
<path d="M46.8973 45.3622L58.8837 41.9355" stroke="#000100" stroke-width="0.75" stroke-miterlimit="10"/>
<path d="M55.8513 43.2817C59.2951 42.4485 63.0857 40.0246 63.5694 40.2579C63.7824 40.3609 63.7672 40.6124 63.5786 40.879C63.1679 41.4638 62.1335 42.1455 62.4012 42.4788C62.5594 42.6787 64.9962 41.5062 66.3166 41.2184C66.7942 41.1123 66.8763 41.6698 66.639 41.8425C65.696 42.5212 63.463 43.5695 63.463 43.5695C63.5603 43.718 65.5803 42.5303 66.8185 42.3243C67.0923 42.2788 67.2657 43.0544 67.0102 43.2362C66.0093 43.9573 63.971 44.9632 63.971 44.9632C63.971 44.9632 66.0945 43.6755 67.2688 43.6513C67.4848 43.6483 67.4939 44.3845 67.3175 44.5148C66.5539 45.0874 64.0897 46.26 64.0897 46.26C64.0897 46.26 66.5113 45.0783 67.3996 44.945C67.6369 44.9087 67.7342 45.4661 67.5608 45.6176C66.1645 46.8356 58.7901 49.72 58.7901 49.72" fill="#893A1F"/>
<path d="M53.481 26.5898C53.481 26.5898 52.261 26.5929 50.2714 26.8716C46.569 27.3897 43.615 29.6469 42.2582 34.5219C41.7441 36.3731 39.8001 46.6168 39.5932 48.5256C39.2099 52.0523 41.376 56.6061 46.8307 56.1637C50.1893 55.8911 61.3329 49.2831 61.3329 49.2831L58.887 41.9358L48.6864 44.4687" fill="#F06D89"/>
<path d="M49.6538 37.4277L49.2006 44.6781" stroke="#000100" stroke-width="0.75" stroke-miterlimit="10"/>
<path d="M59.2492 43.0254L57.8558 43.4556" stroke="#AA3C4C" stroke-width="0.75" stroke-miterlimit="10"/>
<path d="M59.6934 44.2441L58.3 44.6774" stroke="#AA3C4C" stroke-width="0.75" stroke-miterlimit="10"/>
<path d="M60.1253 45.6113L58.7319 46.0416" stroke="#AA3C4C" stroke-width="0.75" stroke-miterlimit="10"/>
<path d="M60.4841 46.7207L59.0908 47.154" stroke="#AA3C4C" stroke-width="0.75" stroke-miterlimit="10"/>
<path d="M60.9254 47.998L59.5321 48.4283" stroke="#AA3C4C" stroke-width="0.75" stroke-miterlimit="10"/>
<path d="M59.4288 18.7763C60.5301 18.237 61.8961 18.5218 62.6749 19.5247C63.5663 20.673 63.3563 22.3212 62.2064 23.2089C61.0534 24.0967 59.3984 23.8876 58.507 22.7424C57.7039 21.7092 57.7952 20.27 58.6591 19.3459" stroke="#FADB81" stroke-miterlimit="10" stroke-linecap="round" stroke-linejoin="round"/>
<path d="M60.0615 26.1863L59.015 20.0873L54.5368 19.8691L55.1726 26.0045C54.5368 26.1045 54.1018 26.5165 54.0348 26.8437C53.7458 28.2889 55.6776 29.1888 57.5669 29.613C59.4561 30.0371 61.1902 29.4766 61.4427 28.3617C61.6161 27.5951 61.0441 26.765 60.0615 26.1863Z" fill="#AA3F37"/>
<path d="M60.1161 26.5135L59.0148 20.0873L54.5366 19.8691C54.5366 19.8661 56.3985 24.6078 60.1161 26.5135Z" fill="#852B22"/>
<path d="M60.6273 17.4368C60.7247 16.4067 60.5026 15.3341 59.9824 14.4676C59.9216 14.4464 59.8637 14.4282 59.809 14.4282C59.4196 14.4282 59.1458 14.4373 58.7442 14.3252C58.297 14.201 58.1236 14.0949 57.7616 14.4009C57.3326 14.7585 56.6299 14.5918 56.1157 14.4555C55.778 14.3676 55.1513 14.0101 54.8319 14.2919C54.6798 14.4252 54.692 14.6615 54.7011 14.8645C54.7102 15.0614 54.7589 15.2463 54.6768 15.4432C54.6068 15.6098 54.406 15.7038 54.3725 15.8704C54.3147 16.1643 54.619 16.4764 54.5916 16.7915C54.5733 17.0005 54.4303 17.1247 54.3999 17.3126C54.2995 17.9307 54.9566 18.3488 55.0236 18.8972C55.0875 19.4486 54.2691 19.0456 54.0744 18.8366C53.9405 18.6911 53.8554 18.4821 53.6728 18.3942C53.4781 18.3003 53.2378 18.37 53.037 18.3215C52.7997 18.2609 52.5776 17.9367 52.3434 17.8519C52.319 17.8822 52.2947 17.9095 52.2734 17.9458C51.4581 19.2214 52.7875 20.4333 54.5612 20.3727C55.2487 21.9815 56.8367 24.7083 59.4835 23.9266C62.7569 22.951 60.3809 20.003 60.6273 17.4368Z" fill="#AA3F37"/>
<path d="M56.5596 17.9591C56.4866 17.7986 56.5596 17.6107 56.7208 17.538C56.8821 17.4653 57.0707 17.538 57.1437 17.6986C57.2167 17.8592 57.1437 18.047 56.9825 18.1197C56.8212 18.1924 56.6326 18.1197 56.5596 17.9591Z" fill="#233332"/>
<path d="M59.1759 17.5705C59.1029 17.4099 59.1759 17.2221 59.3372 17.1493C59.4984 17.0766 59.687 17.1493 59.76 17.3099C59.8331 17.4705 59.76 17.6583 59.5988 17.7311C59.4376 17.8038 59.2459 17.7311 59.1759 17.5705Z" fill="#233332"/>
<path d="M55.6929 16.5012C55.6929 16.5012 56.4626 15.9165 57.4391 16.3437" stroke="#233332" stroke-miterlimit="10" stroke-linecap="round" stroke-linejoin="round"/>
<path d="M58.9995 16.1887C58.9995 16.1887 59.6779 15.5312 60.5906 16.1887" stroke="#233332" stroke-miterlimit="10" stroke-linecap="round" stroke-linejoin="round"/>
<path d="M58.5798 16.5C58.449 17.315 59.0088 17.8967 59.2065 18.6512C59.2674 18.8784 59.3221 19.3389 59.0605 19.4722C58.954 19.5268 58.8049 19.4995 58.6985 19.4541C58.6315 19.4268 58.5129 19.3147 58.4946 19.3207" stroke="#852B22" stroke-miterlimit="10" stroke-linecap="round" stroke-linejoin="round"/>
<path d="M59.322 20.8807C58.9174 20.9716 58.5584 20.9473 58.1568 20.8504C57.9226 20.7928 57.664 20.6989 57.4419 20.5626C57.6275 20.5413 57.74 20.4232 57.8982 20.3262C58.1021 20.205 58.1507 20.2202 58.3698 20.302C58.4276 20.3232 58.5553 20.408 58.6162 20.408C58.7318 20.405 58.6953 20.3505 58.7926 20.302C58.963 20.2172 59.0938 20.1747 59.2581 20.308C59.4041 20.4292 59.4346 20.711 59.322 20.8807Z" stroke="#D85145" stroke-miterlimit="10" stroke-linecap="round" stroke-linejoin="round"/>
<path d="M54.0592 20.0271C55.2608 20.2725 56.1644 21.3299 56.1644 22.5994C56.1644 24.0507 54.984 25.2262 53.5268 25.2262C52.0695 25.2262 50.8892 24.0507 50.8892 22.5994C50.8892 21.2935 51.8475 20.2089 53.1009 20.0059" stroke="#FADB81" stroke-miterlimit="10" stroke-linecap="round" stroke-linejoin="round"/>
</g>
<defs>
<clipPath id="clip0">
<rect width="64.3795" height="128" fill="white" transform="translate(39.5507)"/>
</clipPath>
</defs>
</svg>
