<svg width="213" height="56" viewBox="0 0 213 56" fill="none" xmlns="http://www.w3.org/2000/svg">
<g clip-path="url(#clip0)">
<g clip-path="url(#clip1)">
<path d="M45.3434 0.813849L42.5351 2.46561L43.9323 3.87738L45.5233 0.98326C45.5786 0.870319 45.4541 0.757378 45.3434 0.813849Z" fill="white"/>
<path d="M42.0785 6.85615L42.1477 7.11027V7.12439L35.3135 14.1973L34.608 12.9126L41.3868 5.91027L41.8295 6.03733L42.0785 6.85615Z" fill="white"/>
<path d="M7.74181 37.0539L13.4415 31.1527L14.5206 32.028L8.71021 38.028L7.74181 37.0539Z" fill="white"/>
<path d="M15.3922 32.748L9.49877 38.8327L10.5225 39.8633L16.5128 33.6656L15.3922 32.748Z" fill="white"/>
<path d="M6.93943 37.8727L9.73395 40.6821L7.22995 43.2938C6.91176 43.6044 6.41372 43.6044 6.09553 43.2938L4.43542 41.628C4.13106 41.3033 4.13106 40.795 4.43542 40.4703L6.93943 37.8727Z" fill="white"/>
<path d="M39.367 4.30094L40.4322 4.62565L40.5844 5.11976L34.0408 11.8539L33.3214 10.5551L39.367 4.30094Z" fill="white"/>
<path d="M30.6376 9.86324C30.6376 9.84912 30.6514 9.84912 30.6652 9.84912C30.7206 9.835 30.8036 9.82088 30.8451 9.82088H30.9696C31.0111 9.82088 31.0664 9.835 31.1079 9.84912C31.1159 9.85724 31.1193 9.86069 31.1233 9.86215C31.1263 9.86324 31.1297 9.86324 31.1356 9.86324L31.2601 9.90559C31.267 9.90559 31.2739 9.90912 31.2809 9.91265C31.2878 9.91618 31.2947 9.91971 31.3016 9.91971L31.4261 10.0044L31.5645 10.1456C31.606 10.1879 31.6336 10.2303 31.6613 10.2726L31.6751 10.3009L34.4973 15.1715L29.2818 17.8821L28.8668 17.2891L28.1197 16.1879L26.2383 13.3926C26.1968 13.3362 26.1691 13.2797 26.1414 13.2232C26.1182 13.1759 26.1048 13.1187 26.0929 13.0682L26.0891 13.0522L26.0872 13.0441L26.0861 13.0397C26.0723 12.9832 26.0723 12.9127 26.0723 12.8562C26.0723 12.7997 26.0861 12.7291 26.0999 12.6726C26.1138 12.6021 26.1276 12.5456 26.1553 12.4891C26.2383 12.3197 26.3628 12.1785 26.5426 12.0797L26.681 11.9809C27.4972 11.3738 28.3687 10.8515 29.2818 10.4279C29.5862 10.2868 29.8905 10.1597 30.2087 10.0326L30.4577 9.93383C30.4854 9.92677 30.5096 9.91618 30.5338 9.90559C30.558 9.895 30.5822 9.88441 30.6099 9.87736C30.6099 9.86324 30.6237 9.86324 30.6376 9.86324Z" fill="white"/>
<path d="M25.256 22.5551C25.505 23.6139 26.3074 24.4468 27.345 24.7292L29.8767 25.3927L29.9873 25.421L28.1197 26.7057C27.9814 26.8045 27.8154 26.8468 27.6494 26.8468C27.5525 26.8468 27.4418 26.8327 27.345 26.7904C27.3381 26.7833 27.3277 26.7798 27.3173 26.7763C27.307 26.7727 27.2966 26.7692 27.2897 26.7621C27.2804 26.7574 27.2697 26.7543 27.2589 26.7512C27.2374 26.7449 27.2159 26.7386 27.2067 26.7198C27.1513 26.6351 27.0683 26.508 26.9853 26.4092L20.58 18.9268C20.4694 18.8139 20.3449 18.701 20.2203 18.6163L19.8191 18.1504C19.6946 18.0092 19.6255 17.8257 19.6116 17.6563C19.5978 17.4727 19.6393 17.3033 19.7223 17.148C19.7431 17.1268 19.7604 17.1021 19.7776 17.0774C19.7949 17.0527 19.8122 17.028 19.833 17.0068C19.8745 16.9645 19.916 16.9221 19.9713 16.8798C20.7599 15.948 21.7006 15.1716 22.7382 14.5645C23.084 14.3668 23.4437 14.1833 23.8173 14.0139L24.1631 13.8586C24.1839 13.8445 24.2081 13.8339 24.2323 13.8233C24.2565 13.8127 24.2807 13.8021 24.3015 13.788C24.3084 13.788 24.3153 13.7845 24.3222 13.781C24.3291 13.7774 24.336 13.7739 24.343 13.7739C24.3568 13.7668 24.3741 13.7633 24.3914 13.7598C24.4087 13.7563 24.426 13.7527 24.4398 13.7457C24.456 13.7457 24.4675 13.7408 24.477 13.7368C24.4837 13.734 24.4894 13.7316 24.4951 13.7316C24.5366 13.7174 24.5643 13.7174 24.6058 13.7174H24.7026C24.758 13.7174 24.7995 13.7174 24.841 13.7316C24.8479 13.7316 24.8583 13.7351 24.8686 13.7386C24.879 13.7421 24.8894 13.7457 24.8963 13.7457C24.9171 13.7527 24.9344 13.7598 24.9517 13.7668C24.969 13.7739 24.9863 13.781 25.007 13.788C25.0139 13.7951 25.0243 13.7986 25.0347 13.8021C25.045 13.8057 25.0554 13.8092 25.0623 13.8163C25.1038 13.8304 25.1453 13.8586 25.173 13.8868L25.2145 13.9292C25.256 13.9715 25.2975 14.0139 25.339 14.0704L28.3826 18.348L26.3628 19.3927C25.671 19.7598 25.2145 20.4233 25.1038 21.1716V21.1857C25.0623 21.4821 25.0762 21.7927 25.1453 22.1033L25.256 22.5551Z" fill="white"/>
<path d="M12.736 26.1409L12.6945 26.1833L12.5838 26.3244C12.5561 26.3597 12.5319 26.395 12.5077 26.4303C12.4835 26.4656 12.4593 26.5009 12.4316 26.5362C12.4316 26.5362 12.4316 26.5503 12.4178 26.5503L12.404 26.5644C12.2656 26.7762 12.1411 27.0162 12.0304 27.2421L11.9889 27.3127C11.9059 27.4115 11.8506 27.5103 11.8229 27.6233C11.7953 27.7362 11.7814 27.8491 11.7814 27.9621C11.7953 28.1315 11.8644 28.3009 11.9751 28.428L12.0996 28.555L13.9534 30.0656L13.9811 30.0797L16.2222 31.915L19.0583 34.2303C19.1551 34.315 19.2796 34.3715 19.4041 34.3997C19.4456 34.4138 19.4871 34.4138 19.5286 34.4138H19.5978C19.7915 34.4138 19.9852 34.3433 20.1373 34.2021L21.8943 32.6774C22.1018 32.4938 22.1986 32.2397 22.1848 31.9997C22.1848 31.8868 22.171 31.7738 22.1156 31.675C22.0326 31.5197 21.9081 31.3786 21.7698 31.2515L21.1196 30.588L20.6907 30.1644L20.497 29.9668L16.8171 26.2397L16.7756 26.1974L15.3645 24.7715C15.323 24.7291 15.2815 24.6868 15.2262 24.6586C15.2262 24.6586 15.2123 24.6586 15.2123 24.6444H15.1985C15.1916 24.6444 15.1881 24.6409 15.1847 24.6374C15.1812 24.6339 15.1777 24.6303 15.1708 24.6303C15.157 24.6233 15.1397 24.6127 15.1224 24.6021C15.1051 24.5915 15.0878 24.5809 15.074 24.5738C15.0463 24.5597 15.0325 24.5597 15.0048 24.5597C14.991 24.5527 14.9737 24.5491 14.9564 24.5456C14.9391 24.5421 14.9218 24.5386 14.908 24.5315H14.742C14.7143 24.5315 14.6728 24.5315 14.6451 24.5456C14.6175 24.5456 14.6036 24.5456 14.576 24.5597C14.5621 24.5668 14.5448 24.5703 14.5276 24.5738C14.5103 24.5774 14.4929 24.5809 14.4791 24.588C14.4653 24.595 14.4549 24.5985 14.4446 24.6021C14.4342 24.6056 14.4238 24.6091 14.4099 24.6162C14.3839 24.6251 14.3633 24.6395 14.3447 24.6525C14.3337 24.6602 14.3234 24.6674 14.3131 24.6727C14.3062 24.6797 14.2958 24.6833 14.2854 24.6868C14.2751 24.6903 14.2647 24.6938 14.2578 24.7009C14.237 24.7221 14.2128 24.7432 14.1886 24.7644C14.1644 24.7856 14.1402 24.8068 14.1194 24.828C13.6629 25.1244 13.2479 25.4915 12.902 25.9009C12.8642 25.978 12.8035 26.0552 12.7511 26.1216L12.736 26.1409Z" fill="white"/>
<path d="M26.3489 27.2138C26.4181 27.355 26.4596 27.5103 26.4596 27.6656C26.4596 27.7221 26.4596 27.7644 26.4319 27.8068C26.4181 27.9197 26.3766 28.0186 26.3213 28.1033C26.2936 28.1456 26.2659 28.188 26.2244 28.2303L25.1453 29.4021L25.1315 29.388L25.1177 29.4162L23.9003 30.7433C23.7343 30.9268 23.5129 31.0115 23.2916 31.0115C23.0702 31.0115 22.8489 30.9268 22.6828 30.7433L15.9317 23.3738C15.9179 23.3527 15.9007 23.3281 15.8834 23.3034L15.8833 23.3033C15.866 23.2786 15.8487 23.2538 15.8349 23.2327C15.7519 23.0915 15.7104 22.9362 15.7104 22.7668C15.7104 22.555 15.7934 22.3433 15.9594 22.1738L16.0147 22.0609C16.2499 21.6656 16.5266 21.2986 16.8309 20.9597C17.0385 20.7338 17.246 20.5221 17.4812 20.3244C17.827 20.0421 18.2005 19.7739 18.6017 19.548C18.6432 19.5056 18.6986 19.4633 18.7401 19.435C18.7506 19.4296 18.7592 19.4263 18.7665 19.4235C18.7783 19.4188 18.7869 19.4155 18.7954 19.4068C18.8165 19.3852 18.8458 19.3719 18.8707 19.3605C18.8784 19.357 18.8857 19.3537 18.8923 19.3503C18.9061 19.3503 18.9165 19.3468 18.9268 19.3433C18.9372 19.3397 18.9476 19.3362 18.9614 19.3362C18.9891 19.3221 19.0306 19.308 19.0583 19.308H19.2243C19.2381 19.308 19.2554 19.3115 19.2727 19.315C19.29 19.3186 19.3073 19.3221 19.3211 19.3221C19.3488 19.3362 19.3626 19.3362 19.3903 19.3362C19.418 19.3362 19.4595 19.3503 19.4871 19.3644C19.501 19.3715 19.5113 19.375 19.5217 19.3786C19.5321 19.3821 19.5425 19.3856 19.5563 19.3927C19.5701 19.3997 19.5874 19.4103 19.6047 19.4209C19.622 19.4315 19.6393 19.4421 19.6531 19.4491C19.6637 19.4545 19.6723 19.4579 19.6796 19.4607C19.6914 19.4653 19.6999 19.4687 19.7085 19.4774C19.7638 19.5197 19.8053 19.5621 19.8468 19.6044L26.2521 27.0868C26.2936 27.1291 26.3213 27.1715 26.3489 27.2138Z" fill="white"/>
<path d="M19.501 43.7456L16.3882 35.8397C16.3744 35.8256 16.3606 35.7973 16.4021 35.7973L17.7025 34.4279L18.491 35.0632C18.8092 35.3314 19.2104 35.4726 19.6255 35.4726C20.0543 35.4726 20.4694 35.3173 20.8014 35.035C20.8014 35.035 22.586 33.482 22.6275 33.4397C22.9734 33.1009 23.1809 32.635 23.1947 32.155V32.0279H23.3192C23.8172 32.0279 24.3014 31.802 24.6473 31.435L26.9853 28.9361C27.262 28.6397 27.428 28.2585 27.4695 27.8773C27.5387 27.8914 27.6217 27.8914 27.6908 27.8914C27.9813 27.8914 28.2581 27.8209 28.5209 27.6797L28.7008 27.5667L32.1593 25.195C32.27 25.1244 32.3668 25.0397 32.4498 24.955L33.4597 24.7291L33.7364 25.3644L33.5704 25.4914L33.3906 25.6326C32.8787 26.0279 32.3945 26.4373 31.9241 26.875L31.7858 27.002C31.0387 27.6938 30.3194 28.442 29.6553 29.2185L29.6138 29.2609C28.7423 30.2773 27.9537 31.3785 27.2482 32.522C27.2205 32.5644 27.1928 32.6067 27.179 32.635C27.1444 32.6985 27.1064 32.7585 27.0683 32.8185C27.0303 32.8785 26.9922 32.9385 26.9576 33.002C26.93 33.0303 26.8885 33.1009 26.8746 33.1291C26.2382 34.2303 25.6849 35.3738 25.2007 36.5597C25.1868 36.595 25.1696 36.6338 25.1523 36.6726C25.135 36.7114 25.1177 36.7503 25.1038 36.7856L25.0762 36.8561C24.9655 37.1385 24.8548 37.4209 24.758 37.7032C24.6335 38.1832 24.6058 38.5079 24.6196 38.7903L24.8133 41.8538L25.7956 41.7832L25.588 38.5785C25.5764 38.2329 25.7224 37.8772 25.8098 37.6643C25.826 37.625 25.8401 37.5906 25.8509 37.562C25.8786 37.5197 25.8924 37.4773 25.9062 37.435C25.9062 37.435 25.9616 37.2938 25.9754 37.2656C26.1552 36.7997 26.3489 36.3338 26.5564 35.882C26.6671 35.6279 26.93 35.0914 27.013 34.922C28.3134 32.3526 30.015 30.0373 32.0763 28.0609L32.1178 28.0326C32.7819 27.4256 33.4597 26.8609 34.1515 26.3103L34.9539 25.6891L34.11 23.7409L34.027 23.5432L32.9617 23.7832L30.7206 24.2914L30.1672 24.4185L27.6355 23.7267C27.4695 23.6703 27.3035 23.5997 27.1513 23.515C27.0821 23.4726 27.013 23.4303 26.9438 23.3738C26.6118 23.1056 26.3628 22.7244 26.2521 22.2867L26.1414 21.835C25.9892 21.2138 26.2798 20.5644 26.847 20.2679L35.023 16.0185L35.8946 15.5667L36.2543 15.3832C36.293 15.3535 36.3386 15.3377 36.3862 15.3212C36.4065 15.3141 36.4272 15.307 36.448 15.2985C36.4549 15.2985 36.4652 15.295 36.4756 15.2914C36.486 15.2879 36.4964 15.2844 36.5033 15.2844L36.6693 15.242C36.697 15.242 36.7454 15.2385 36.7938 15.235C36.8422 15.2314 36.8907 15.2279 36.9183 15.2279H36.9598C37.029 15.2279 37.0843 15.2279 37.1397 15.242H37.1673C37.2365 15.2562 37.2918 15.2703 37.361 15.2985C37.3679 15.2985 37.3749 15.302 37.3818 15.3056C37.3887 15.3091 37.3956 15.3126 37.4025 15.3126L37.5685 15.3973C37.5685 15.4114 37.5824 15.4114 37.5824 15.4114C37.6377 15.4397 37.693 15.482 37.7484 15.5244C37.7622 15.5244 37.776 15.5385 37.7899 15.5526C37.8089 15.572 37.8279 15.5897 37.8463 15.6069C37.8816 15.6398 37.9148 15.6708 37.9421 15.7079L41.622 23.4303C42.6042 25.5197 42.6319 27.9479 41.6911 30.0373L41.4698 30.4891L41.4145 30.5879C41.3868 30.6444 36.9183 39.0726 36.9183 39.0726L37.3472 50.3526C37.3749 50.8044 37.0152 51.1856 36.5725 51.1856H20.4555C20.0405 51.1856 19.6946 50.8467 19.6808 50.4091L19.501 43.7456Z" fill="white"/>
</g>
<path d="M69.0615 25.0985C69.0615 22.2744 67.3185 21.0609 63.8325 21.0609H56V23.0025H56.9487C57.3017 23.0025 57.4121 23.179 57.4121 23.7085V33.0413C57.4121 33.5928 57.3017 33.7693 56.9487 33.7693H56V35.7109H62.5969V33.7693H61.6482C61.3173 33.7693 61.1849 33.5928 61.1849 33.0413V29.4229H62.4204C64.031 29.4229 64.3841 30.3937 64.4723 32.0043C64.6488 34.0562 65.3548 35.7109 67.164 35.7109H70.0764V33.7693H69.7013C69.0394 33.7693 68.7967 33.4825 68.7305 32.5559C68.5761 30.526 67.848 29.2022 65.8844 28.6507C68.0245 28.2094 69.0615 27.0621 69.0615 25.0985ZM61.1849 23.0245H62.7293C64.4061 23.0245 65.1121 23.6423 65.1121 25.3412C65.1121 27.1283 64.3179 27.7681 62.4425 27.7681H61.1849V23.0245Z" fill="white"/>
<path d="M81.5574 30.9894V30.504C81.5574 26.7973 79.7261 24.6351 76.1519 24.6351C72.6879 24.6351 70.4154 26.9077 70.4154 30.3054C70.4154 33.659 72.4453 36.0198 76.3725 36.0198C79.2187 36.0198 80.741 34.7622 81.4471 33.1295L79.5938 32.0263C79.1525 33.1074 78.3361 33.8576 76.902 33.8576C75.159 33.8576 74.2103 32.8206 74.1441 30.9894H81.5574ZM76.1739 26.5988C77.4316 26.5988 77.9831 27.3269 78.0273 29.3126H74.1C74.2103 27.393 74.8943 26.5988 76.1739 26.5988Z" fill="white"/>
<path d="M89.1275 29.0919C89.1275 30.0406 89.8777 30.8129 91.025 30.8129C92.4149 30.8129 93.2754 29.82 93.2754 28.3197C93.2754 26.0251 91.4442 24.6351 88.245 24.6351C84.5163 24.6351 82.2658 26.7753 82.2658 30.2833C82.2658 33.9017 84.428 36.0198 88.245 36.0198C91.0691 36.0198 92.5032 34.7181 93.1872 32.953L91.2677 31.9381C90.7823 33.1957 89.9439 33.8135 88.5759 33.8135C86.855 33.8135 85.9504 32.6882 85.9504 30.3937V29.9745C85.9504 27.6799 86.9212 26.5767 88.6862 26.5767C89.657 26.5767 90.2748 26.8194 90.6058 27.3048C89.6791 27.4813 89.1275 28.1653 89.1275 29.0919Z" fill="white"/>
<path d="M99.5752 36.0198C103.127 36.0198 105.488 33.7252 105.488 30.3054C105.488 26.9077 103.171 24.6351 99.6634 24.6351C96.1112 24.6351 93.7284 26.9297 93.7284 30.3054C93.7284 33.7473 96.045 36.0198 99.5752 36.0198ZM99.5972 33.9458C98.0528 33.9458 97.3909 32.9751 97.3909 30.504V30.151C97.3909 27.6578 98.0749 26.687 99.6193 26.687C101.164 26.687 101.848 27.6578 101.848 30.151V30.504C101.848 32.9751 101.164 33.9458 99.5972 33.9458Z" fill="white"/>
<path d="M110.882 24.6793C110.353 24.8116 109.36 24.944 108.234 24.944H106.116V26.8856H106.889C107.198 26.8856 107.286 27.04 107.286 27.6137V33.1295C107.286 33.6811 107.131 33.7693 106.889 33.7693H106.116V35.7109H111.985V33.7693H111.323C111.081 33.7693 110.926 33.6811 110.926 33.1295V29.8862C110.926 27.8343 111.61 26.9518 112.846 26.9518C113.905 26.9518 114.346 27.4813 114.346 28.8713V33.1295C114.346 33.6811 114.214 33.7693 113.949 33.7693H113.287V35.7109H119.178V33.7693H118.406C118.141 33.7693 117.986 33.6811 117.986 33.1295V28.8051C117.986 25.981 116.773 24.6351 114.478 24.6351C112.78 24.6351 111.566 25.297 110.882 26.665V24.6793Z" fill="white"/>
<path d="M119.652 35.1373C120.644 35.5344 122.233 36.0198 124.042 36.0198C127.219 36.0198 129.006 34.5636 129.006 32.269C129.006 29.8862 126.977 29.2684 125.189 28.8934C123.844 28.6286 122.873 28.5183 122.873 27.5916C122.873 26.8635 123.513 26.4223 124.616 26.4223C125.145 26.4223 125.807 26.5326 126.116 26.665V28.2756H128.565V25.4956C127.771 25.1205 126.138 24.6351 124.417 24.6351C121.284 24.6351 119.541 26.0692 119.541 28.2976C119.541 30.6364 121.505 31.2541 123.314 31.6071C124.704 31.894 125.653 32.1146 125.653 33.0192C125.653 33.8576 124.969 34.2327 123.866 34.2327C123.16 34.2327 122.586 34.1444 122.167 34.0341V32.3132H119.652V35.1373Z" fill="white"/>
<path d="M134.366 35.9977C135.183 35.9977 135.977 35.8433 136.462 35.6888V33.6811C136.22 33.7693 135.955 33.8355 135.536 33.8355C134.675 33.8355 134.256 33.5046 134.256 32.4014V26.8856H136.308V24.944H134.344V21.811H131.851L131.631 23.6423C131.476 24.5689 130.902 24.8999 130.042 25.0764L129.358 25.1426V26.8856H130.726V32.4014C130.726 35.0049 131.719 35.9977 134.366 35.9977Z" fill="white"/>
<path d="M141.953 24.6793C141.424 24.8116 140.431 24.944 139.306 24.944H137.077V26.8856H137.938C138.247 26.8856 138.335 27.04 138.335 27.6137V33.1295C138.335 33.6811 138.202 33.7693 137.938 33.7693H137.165V35.7109H143.233V33.7693H142.394C142.13 33.7693 141.975 33.6811 141.975 33.1295V30.151C141.997 28.0549 142.615 26.8856 143.895 26.8856C144.16 26.8856 144.38 26.9518 144.535 27.0842C143.939 27.3489 143.564 27.9446 143.564 28.5845C143.564 29.467 144.336 30.151 145.241 30.151C146.631 30.151 147.535 29.1581 147.535 27.5916C147.535 25.7824 146.498 24.6351 144.844 24.6351C143.476 24.6351 142.417 25.3412 141.953 27.04V24.6793Z" fill="white"/>
<path d="M160.974 35.7109V33.7693H160.113C159.804 33.7693 159.716 33.6149 159.716 33.0413V24.944H154.708V26.8856H155.657C155.921 26.8856 156.076 26.9738 156.076 27.5254V30.9894C156.076 32.8206 155.436 33.7252 154.2 33.7252C153.208 33.7252 152.7 33.2619 152.7 31.8498V24.944H147.846V26.8856H148.64C148.883 26.8856 149.038 26.9738 149.038 27.5254V31.916C149.038 34.7622 150.251 36.0198 152.568 36.0198C154.178 36.0198 155.392 35.38 156.076 34.1003V35.9536C156.605 35.8212 157.598 35.7109 158.723 35.7109H160.974Z" fill="white"/>
<path d="M168.202 29.0919C168.202 30.0406 168.952 30.8129 170.099 30.8129C171.489 30.8129 172.35 29.82 172.35 28.3197C172.35 26.0251 170.519 24.6351 167.319 24.6351C163.591 24.6351 161.34 26.7753 161.34 30.2833C161.34 33.9017 163.503 36.0198 167.319 36.0198C170.144 36.0198 171.578 34.7181 172.262 32.953L170.342 31.9381C169.857 33.1957 169.018 33.8135 167.65 33.8135C165.929 33.8135 165.025 32.6882 165.025 30.3937V29.9745C165.025 27.6799 165.996 26.5767 167.761 26.5767C168.732 26.5767 169.349 26.8194 169.68 27.3048C168.754 27.4813 168.202 28.1653 168.202 29.0919Z" fill="white"/>
<path d="M177.566 35.9977C178.383 35.9977 179.177 35.8433 179.662 35.6888V33.6811C179.42 33.7693 179.155 33.8355 178.736 33.8355C177.875 33.8355 177.456 33.5046 177.456 32.4014V26.8856H179.508V24.944H177.544V21.811H175.051L174.831 23.6423C174.676 24.5689 174.103 24.8999 173.242 25.0764L172.558 25.1426V26.8856H173.926V32.4014C173.926 35.0049 174.919 35.9977 177.566 35.9977Z" fill="white"/>
<path d="M183.409 24.1277C184.622 24.1277 185.461 23.2893 185.461 22.1861C185.461 21.105 184.622 20.2666 183.409 20.2666C182.151 20.2666 181.335 21.105 181.335 22.1861C181.335 23.2893 182.151 24.1277 183.409 24.1277ZM180.408 35.7109H186.387V33.7693H185.637C185.372 33.7693 185.24 33.637 185.24 33.1295V24.6793C184.71 24.8116 183.718 24.944 182.592 24.944H180.408V26.8856H181.114C181.489 26.8856 181.6 27.0842 181.6 27.7681V33.1295C181.6 33.637 181.467 33.7693 181.202 33.7693H180.408V35.7109Z" fill="white"/>
<path d="M192.935 36.0198C196.487 36.0198 198.848 33.7252 198.848 30.3054C198.848 26.9077 196.531 24.6351 193.023 24.6351C189.471 24.6351 187.088 26.9297 187.088 30.3054C187.088 33.7473 189.405 36.0198 192.935 36.0198ZM192.957 33.9458C191.412 33.9458 190.751 32.9751 190.751 30.504V30.151C190.751 27.6578 191.434 26.687 192.979 26.687C194.523 26.687 195.207 27.6578 195.207 30.151V30.504C195.207 32.9751 194.523 33.9458 192.957 33.9458Z" fill="white"/>
<path d="M204.242 24.6793C203.712 24.8116 202.719 24.944 201.594 24.944H199.476V26.8856H200.248C200.557 26.8856 200.645 27.04 200.645 27.6137V33.1295C200.645 33.6811 200.491 33.7693 200.248 33.7693H199.476V35.7109H205.345V33.7693H204.683C204.44 33.7693 204.286 33.6811 204.286 33.1295V29.8862C204.286 27.8343 204.97 26.9518 206.205 26.9518C207.264 26.9518 207.706 27.4813 207.706 28.8713V33.1295C207.706 33.6811 207.573 33.7693 207.308 33.7693H206.647V35.7109H212.537V33.7693H211.765C211.501 33.7693 211.346 33.6811 211.346 33.1295V28.8051C211.346 25.981 210.133 24.6351 207.838 24.6351C206.139 24.6351 204.926 25.297 204.242 26.665V24.6793Z" fill="white"/>
</g>
<defs>
<clipPath id="clip0">
<rect width="212.8" height="56" fill="white"/>
</clipPath>
<clipPath id="clip1">
<rect width="47.6" height="50.4" fill="white" transform="translate(4.20001 0.799805)"/>
</clipPath>
</defs>
</svg>
