<svg width="145" height="156" viewBox="0 0 145 156" fill="none" xmlns="http://www.w3.org/2000/svg">
<mask id="mask0" mask-type="alpha" maskUnits="userSpaceOnUse" x="0" y="0" width="145" height="311">
<path d="M110.06 52.4192C109.406 53.1764 108.649 53.8784 107.798 54.5015C103.827 51.3938 99.2652 48.4517 95.6408 47.8838C92.1424 47.3395 88.4471 47.8838 83.428 49.2247C82.9237 49.3588 81.8443 49.7137 80.6545 50.1239C80.4969 50.0844 80.3315 50.0529 80.166 50.0213L81.797 34.2224C81.8364 34.1356 81.8758 34.041 81.9152 33.9542C86.95 34.1356 90.7163 30.673 88.4077 27.0368C88.3446 26.9342 88.2737 26.8632 88.2028 26.7686C87.541 27.021 86.9106 27.9439 86.233 28.1174C85.6657 28.2594 84.9802 28.0543 84.4365 28.3225C83.9165 28.5749 83.6723 29.1743 83.2941 29.5845C82.7346 30.1839 80.4103 31.3276 80.5994 29.758C80.7806 28.1884 82.648 26.9973 82.3643 25.2384C82.2776 24.702 81.8679 24.3471 81.8206 23.7555C81.7419 22.8484 82.6007 21.9571 82.4431 21.1289C82.3485 20.6557 81.7734 20.3875 81.5764 19.9064C81.34 19.3463 81.4818 18.8179 81.5055 18.2578C81.537 17.6899 81.5685 17.0116 81.143 16.633C80.2369 15.8285 78.4641 16.846 77.5028 17.0984C76.0373 17.4849 74.0439 17.9581 72.8305 16.9406C71.7983 16.073 71.3176 16.3727 70.0412 16.7276C68.8987 17.0432 68.1266 17.0116 67.0235 17.0195C66.858 17.0195 66.6925 17.0668 66.5271 17.1299C65.0458 19.5987 64.4154 22.667 64.6991 25.6012C65.3767 32.779 58.9236 40.99 67.4332 43.9163L66.2986 50.5498C66.0386 50.7075 65.7864 50.8653 65.55 51.0309C62.9499 50.5103 56.6071 49.7452 49.3031 52.5927C47.3806 51.5831 45.5999 50.1081 44.024 48.0021C42.85 46.4324 42.1803 44.9417 42.1566 43.0723C42.1251 40.6587 43.8192 39.4834 44.1816 37.3696C44.6307 34.7272 42.0148 32.0612 42.1566 29.269C42.3063 26.2165 44.615 24.0553 47.5539 22.7775C49.4449 21.9493 52.9118 21.4444 53.9046 19.4489C55.0943 17.0905 52.9985 14.527 55.1337 12.2238C57.1902 10.0074 60.0346 10.8198 62.6899 9.96795C65.4003 9.09243 65.0537 7.81463 65.8495 5.76385C67.0313 2.71922 70.1909 3.46855 73.059 2.06455C76.0531 0.605341 81.6158 -0.877532 83.4359 2.19864C84.7675 4.44661 87.0603 4.10745 88.2658 4.32041C98.8161 5.29059 95.1208 13.1782 98.7137 16.3254C100.368 17.7767 102.181 19.228 102.488 21.4366C102.819 23.7555 101.605 25.7984 103.362 27.8413C104.796 29.5056 106.617 29.8605 107.302 32.0927C108.003 34.3486 106.632 36.4073 107.57 38.6C108.445 40.6587 109.934 41.834 110.304 44.1845C110.643 46.2984 111.565 50.6602 110.06 52.4192Z" fill="#231F20"/>
<path d="M107.791 54.9913L107.554 54.8099C102.614 50.9449 98.58 48.7443 95.578 48.271C92.4106 47.7741 88.9122 48.1606 83.5307 49.604C83.0816 49.7223 82.1045 50.0378 80.7808 50.4953L80.6705 50.5348L80.5602 50.5032C80.4105 50.4638 80.2529 50.4322 80.0953 50.4086L79.7408 50.3376L81.4427 34.0575L81.6712 33.5448L81.9312 33.5527C84.7204 33.6552 87.2812 32.551 88.2819 30.8078C88.9201 29.6957 88.8492 28.4731 88.0927 27.2663C87.9194 27.3846 87.7303 27.5502 87.5491 27.708C87.1709 28.0393 86.7848 28.3784 86.3357 28.4889C86.0442 28.5598 85.7526 28.5598 85.469 28.5598C85.1459 28.5598 84.8465 28.5598 84.6101 28.6703C84.358 28.7965 84.1689 29.0647 83.9719 29.3407C83.8458 29.5142 83.7277 29.6957 83.5858 29.8455C83.121 30.3424 81.5609 31.2259 80.7178 30.8394C80.4893 30.7289 80.119 30.445 80.2057 29.7035C80.2923 28.9306 80.7257 28.268 81.1433 27.6291C81.6397 26.864 82.1124 26.1383 81.9706 25.2944C81.9391 25.113 81.8524 24.9394 81.75 24.7422C81.6082 24.4741 81.4506 24.1743 81.419 23.7799C81.3718 23.2436 81.5845 22.7309 81.7736 22.2813C81.9391 21.879 82.1045 21.5004 82.0415 21.1928C82.0179 21.0587 81.8682 20.901 81.7106 20.7432C81.5294 20.5539 81.3166 20.3409 81.1984 20.0412C80.9857 19.5285 81.0251 19.0395 81.0724 18.6057C81.0802 18.4795 81.096 18.3533 81.1039 18.2271C81.1275 17.7538 81.159 17.1701 80.8754 16.9098C80.3632 16.4523 79.2917 16.8546 78.4249 17.178C78.1177 17.2963 77.834 17.3989 77.5976 17.462C76.2503 17.8169 73.9889 18.4164 72.5707 17.2253C71.8222 16.6022 71.507 16.689 70.5694 16.965L70.136 17.0912C69.0565 17.391 68.2923 17.391 67.331 17.3989H67.0158C66.9528 17.3989 66.874 17.4146 66.7795 17.4383C65.4242 19.7651 64.8018 22.7072 65.0775 25.5468C65.306 28.0077 64.7387 30.5317 64.1872 32.969C63.0841 37.8436 62.2095 41.6927 67.5516 43.5306L67.8668 43.641L66.6455 50.7793L66.4958 50.8739C66.2437 51.0238 65.9994 51.1815 65.7709 51.3393L65.637 51.434L65.4715 51.4024C63.0762 50.9213 56.7177 50.1088 49.4452 52.9484L49.2797 53.0115L49.1221 52.9247C47.0262 51.8204 45.2534 50.2824 43.7091 48.2237C42.3696 46.4332 41.7866 44.8872 41.7629 43.0652C41.7472 41.5981 42.3145 40.5648 42.8581 39.571C43.26 38.8374 43.6461 38.1433 43.7879 37.2914C44.0006 36.0294 43.4412 34.728 42.8424 33.3555C42.2751 32.0383 41.6841 30.6658 41.755 29.2382C41.8969 26.3513 43.8982 23.9219 47.3887 22.4075C47.9087 22.1788 48.5312 21.9816 49.193 21.7686C50.9265 21.2086 52.8884 20.5855 53.5424 19.2682C54.0151 18.3375 53.9127 17.3515 53.8103 16.3104C53.6684 14.9379 53.5187 13.3762 54.8346 11.9485C56.2686 10.4025 58.0729 10.2211 59.8142 10.0555C60.7282 9.96871 61.6658 9.87406 62.5562 9.59011C64.4551 8.97487 64.6678 8.24921 65.046 6.92409C65.1563 6.5376 65.2824 6.09589 65.4715 5.62263C66.3225 3.42987 68.1032 3.0276 69.9942 2.60956C70.9476 2.39659 71.9325 2.17574 72.878 1.71037C75.7539 0.306373 81.7342 -1.43679 83.7671 1.99432C84.7362 3.63495 86.2569 3.74538 87.486 3.84003C87.8012 3.86369 88.0849 3.88735 88.3291 3.92679C95.4835 4.58147 96.3344 8.39119 97.0908 11.7513C97.469 13.4314 97.8236 15.0247 98.9661 16.0264L99.2734 16.2946C100.889 17.7065 102.559 19.1578 102.866 21.3742C102.984 22.2182 102.914 23.0148 102.843 23.7799C102.717 25.1682 102.606 26.3671 103.646 27.5739C104.151 28.1576 104.71 28.5756 105.254 28.9858C106.207 29.7036 107.192 30.4371 107.665 31.9673C108.019 33.1189 107.885 34.1995 107.744 35.2485C107.602 36.3449 107.468 37.3861 107.917 38.4352C108.24 39.2002 108.665 39.8549 109.075 40.4859C109.745 41.5192 110.438 42.584 110.675 44.1142L110.777 44.7531C111.171 47.0642 111.825 50.9291 110.336 52.6723C109.65 53.469 108.87 54.1867 108.011 54.8177L107.791 54.9913ZM92.8754 47.2772C93.8603 47.2772 94.7901 47.3482 95.6962 47.4901C98.7849 47.9713 102.858 50.164 107.799 54.0053C108.516 53.4532 109.178 52.838 109.761 52.1596C111.006 50.7004 110.391 47.0642 110.021 44.8872L109.91 44.2404C109.698 42.8838 109.075 41.9294 108.429 40.9198C108.004 40.2572 107.554 39.5789 107.208 38.7507C106.672 37.4965 106.83 36.3055 106.979 35.146C107.113 34.1364 107.231 33.1899 106.924 32.2039C106.53 30.9182 105.726 30.3188 104.797 29.6168C104.222 29.183 103.623 28.7334 103.063 28.0866C101.803 26.6195 101.937 25.1366 102.07 23.709C102.134 22.9833 102.204 22.2419 102.094 21.4846C101.826 19.5601 100.266 18.2034 98.7612 16.8862L98.446 16.618C97.1066 15.4427 96.7205 13.7311 96.3187 11.9248C95.5938 8.67514 94.8374 5.31501 88.2188 4.70767C87.9667 4.66034 87.7067 4.64457 87.423 4.6209C86.1623 4.52625 84.2634 4.38427 83.0894 2.38871C81.4742 -0.340413 76.3054 0.905832 73.2247 2.40448C72.2082 2.91718 71.1761 3.15381 70.1754 3.37466C68.3553 3.78482 66.9134 4.10032 66.2122 5.90659C66.0388 6.34829 65.9206 6.75056 65.8103 7.14494C65.4164 8.51739 65.1012 9.59799 62.8083 10.3473C61.8313 10.6628 60.8464 10.7575 59.9009 10.8521C58.2305 11.0178 56.6547 11.1676 55.4255 12.5006C54.346 13.668 54.4721 14.9221 54.6061 16.2473C54.7164 17.3594 54.8346 18.5031 54.2594 19.6389C53.4557 21.248 51.3283 21.9342 49.4452 22.5416C48.8069 22.7467 48.2003 22.9439 47.7117 23.1568C45.8601 23.9614 42.7242 25.8307 42.5508 29.3092C42.4878 30.5554 43.0394 31.8332 43.5751 33.0716C44.1897 34.4913 44.8279 35.9663 44.5679 37.4571C44.4025 38.443 43.9691 39.2239 43.5515 39.9811C43.0315 40.9276 42.5351 41.8268 42.5508 43.0888C42.5745 44.7295 43.1103 46.1414 44.3394 47.7899C45.7734 49.7066 47.4044 51.1421 49.327 52.1833C56.5601 49.4147 62.9029 50.1404 65.4636 50.6373C65.6212 50.5348 65.7788 50.4322 65.9443 50.3297L66.9922 44.201C61.3428 42.0871 62.3592 37.5912 63.4308 32.8349C63.9666 30.4529 64.526 27.9919 64.3054 25.6651C64.0139 22.6126 64.6993 19.4418 66.1885 16.9571L66.2594 16.8388L66.3855 16.7915C66.551 16.7284 66.7795 16.6574 67.0237 16.6574H67.3389C68.2765 16.6574 68.9541 16.6495 69.9311 16.3814L70.3487 16.263C71.3494 15.9712 72.0034 15.774 73.075 16.6732C74.0914 17.5251 75.8406 17.1622 77.3928 16.7521C77.6055 16.6969 77.8655 16.5943 78.1492 16.4918C79.1498 16.1132 80.5287 15.6005 81.3954 16.3735C81.9706 16.8862 81.9233 17.7144 81.8918 18.3138C81.8839 18.4479 81.876 18.5899 81.8603 18.7319C81.8209 19.1184 81.7894 19.4575 81.9312 19.7888C81.9942 19.9466 82.1361 20.0885 82.2858 20.2384C82.5064 20.4593 82.7506 20.7195 82.8215 21.0824C82.924 21.6266 82.7112 22.1393 82.5064 22.6284C82.3409 23.0306 82.1755 23.4092 82.207 23.7563C82.2227 23.9929 82.3252 24.1901 82.4512 24.4188C82.5694 24.6397 82.7034 24.9 82.7506 25.2076C82.9319 26.3513 82.333 27.282 81.8051 28.1024C81.4191 28.6939 81.0566 29.254 80.9936 29.8376C80.9857 29.9244 80.9699 30.1295 81.0487 30.161C81.4033 30.3267 82.6009 29.7824 83.0028 29.3486C83.121 29.2224 83.2155 29.0804 83.3258 28.9306C83.5622 28.5914 83.8301 28.2128 84.2634 27.9998C84.6574 27.8026 85.0908 27.8105 85.469 27.8105C85.7132 27.8105 85.9417 27.8105 86.1308 27.7632C86.3987 27.6922 86.7139 27.4161 87.0212 27.148C87.3442 26.864 87.683 26.5722 88.0612 26.4223L88.337 26.3198L88.5813 26.6432C88.6364 26.7063 88.6916 26.7772 88.7388 26.8561C89.6607 28.3074 89.7395 29.8613 88.9595 31.2337C87.8327 33.1978 85.1932 34.4519 82.1755 34.3809L80.5917 49.7302C80.6075 49.7302 80.6154 49.7381 80.6311 49.7381C81.419 49.4699 82.7191 49.0282 83.3258 48.8705C87.3127 47.7741 90.2911 47.2772 92.8754 47.2772Z" fill="#231F20"/>
<path d="M64.7787 44.0205C63.0532 44.0205 61.3591 43.4526 59.9724 42.372C56.537 39.7138 55.9067 34.7525 58.5699 31.3056C60.0197 29.4362 62.2101 28.3162 64.5975 28.2531C64.7078 28.2531 64.826 28.2925 64.8969 28.3793C64.9678 28.4661 65.0151 28.5765 64.9993 28.6948C64.826 30.1461 64.5029 31.6053 64.1878 33.0093C63.2029 37.3712 62.3598 41.1415 66.5043 43.1134C66.654 43.1844 66.7485 43.35 66.7249 43.5157C66.7012 43.6813 66.5831 43.8233 66.4176 43.8548C65.8739 43.9653 65.3224 44.0205 64.7787 44.0205ZM64.1641 29.0655C62.1943 29.2469 60.4057 30.225 59.2002 31.7868C56.8049 34.8866 57.3722 39.3589 60.4609 41.7488C61.8004 42.79 63.4471 43.3106 65.1175 43.2238C61.6113 40.8733 62.4937 36.9532 63.4235 32.8279C63.6993 31.5975 63.9829 30.3275 64.1641 29.0655Z" fill="#231F20"/>
<path d="M69.8213 61.1132C67.6229 61.1132 65.6374 60.632 64.1718 59.7013C63.0057 58.9599 62.2493 57.966 61.9972 56.8223C61.8081 56.0099 61.8869 55.1659 62.2178 54.3219C62.7142 53.0205 63.7858 51.7742 65.3222 50.7015C65.5192 50.5674 65.7241 50.4333 65.9368 50.2992L66.9847 44.1706C66.6853 44.0601 66.4095 43.9418 66.1574 43.8156C61.4456 41.5834 62.4069 37.332 63.4154 32.8281C63.7306 31.4399 64.0458 30.0123 64.2191 28.5925C64.3609 27.4961 64.3925 26.5338 64.3058 25.6346C64.0143 22.5821 64.6997 19.4113 66.1889 16.9267L66.2598 16.8084L66.3859 16.7611C66.5514 16.698 66.7799 16.627 67.0241 16.627H67.3393C68.2769 16.627 68.9545 16.6191 69.9316 16.3509L70.3492 16.2326C71.3498 15.9407 72.0038 15.7436 73.0754 16.6427C74.0918 17.4946 75.841 17.1318 77.3932 16.7216C77.6059 16.6664 77.8659 16.5639 78.1496 16.4613C79.1502 16.0827 80.5291 15.57 81.3958 16.343C81.971 16.8557 81.9237 17.6839 81.8922 18.2834C81.8843 18.4175 81.8765 18.5594 81.8607 18.7014C81.8213 19.0879 81.7898 19.4271 81.9316 19.7584C81.9946 19.9161 82.1365 20.0581 82.2862 20.2079C82.5068 20.4288 82.7511 20.6891 82.822 21.0519C82.9244 21.5962 82.7117 22.1089 82.5068 22.5979C82.3413 23.0002 82.1759 23.3788 82.2074 23.7258C82.2231 23.9625 82.3256 24.1596 82.4516 24.3884C82.5698 24.6092 82.7038 24.8695 82.751 25.1771C82.9323 26.3209 82.3335 27.2516 81.8055 28.0719C81.4195 28.6635 81.057 29.2235 80.994 29.8072C80.9861 29.8939 80.9704 30.099 81.0491 30.1306C81.4037 30.2962 82.6013 29.752 83.0032 29.3181C83.1214 29.1919 83.2159 29.05 83.3262 28.9001C83.5626 28.5609 83.8305 28.1823 84.2639 27.9694C84.6578 27.7722 85.0912 27.7801 85.4694 27.7801C85.7136 27.7801 85.9421 27.7801 86.1312 27.7327C86.3991 27.6618 86.7143 27.3857 87.0216 27.1175C87.3446 26.8336 87.6834 26.5417 88.0616 26.3918L88.3374 26.2893L88.5817 26.6127C88.6368 26.6758 88.692 26.7468 88.7393 26.8257C89.6611 28.277 89.7399 29.8308 88.9599 31.2033C87.8331 33.1673 85.1936 34.4214 82.1759 34.3505L80.5921 49.6998C80.6473 49.7077 80.6946 49.7234 80.7497 49.7392C82.4832 50.1967 83.5862 51.3877 83.7832 52.3342C83.9802 53.3281 83.8541 54.2825 83.3893 55.1738C81.774 58.3919 76.4713 60.0168 73.4614 60.6951C72.2244 60.9791 70.9953 61.1132 69.8213 61.1132ZM66.7956 17.4552C65.4404 19.782 64.8179 22.7241 65.0937 25.5636C65.1883 26.5259 65.1567 27.5513 65.007 28.695C64.8337 30.1464 64.5107 31.5977 64.1955 33.0017C63.2106 37.3635 62.3675 41.1338 66.512 43.1057C66.8193 43.2635 67.1738 43.4055 67.5678 43.5395L67.8829 43.65L66.6617 50.7883L66.512 50.8829C66.2598 51.0328 66.0156 51.1905 65.7871 51.3483C64.3846 52.3264 63.4076 53.4543 62.9663 54.6059C62.6905 55.3 62.6275 55.9862 62.7772 56.6488C62.9821 57.5795 63.6203 58.4077 64.6052 59.0308C66.6459 60.3244 69.9788 60.6715 73.296 59.9221C78.1969 58.8179 81.6243 56.9564 82.6959 54.811C83.0741 54.0774 83.1765 53.2965 83.0189 52.4841C82.8771 51.79 81.971 50.8593 80.5606 50.4885C80.4109 50.4491 80.2533 50.4254 80.0957 50.3939L79.7412 50.3229L81.4431 34.0428L81.6716 33.5301L81.9316 33.538C84.7209 33.6406 87.2816 32.5363 88.2823 30.7931C88.9205 29.681 88.8496 28.4584 88.0932 27.2516C87.9198 27.3699 87.7307 27.5355 87.5495 27.6933C87.1713 28.0246 86.7852 28.3637 86.3361 28.4742C86.0446 28.5452 85.753 28.5452 85.4694 28.5452C85.1463 28.5452 84.8469 28.5452 84.6105 28.6556C84.3584 28.7818 84.1693 29.05 83.9723 29.326C83.8463 29.4996 83.7281 29.681 83.5862 29.8308C83.1214 30.3278 81.5613 31.2191 80.7182 30.8247C80.4897 30.7222 80.1194 30.4303 80.2061 29.6889C80.2927 28.9159 80.7261 28.2533 81.1437 27.6144C81.6401 26.8493 82.1128 26.1237 81.971 25.2797C81.9395 25.0983 81.8528 24.9247 81.7504 24.7276C81.6086 24.4594 81.451 24.1596 81.4195 23.7653C81.3722 23.2289 81.5849 22.7162 81.774 22.2666C81.9395 21.8643 82.1049 21.4857 82.0419 21.1781C82.0183 21.044 81.8686 20.8863 81.711 20.7285C81.5298 20.5392 81.317 20.3263 81.1988 20.0265C80.9861 19.5138 81.0255 19.0248 81.0728 18.591C81.0807 18.4648 81.0964 18.3386 81.1043 18.2124C81.1279 17.7391 81.1594 17.1554 80.8758 16.8951C80.3636 16.4377 79.2921 16.8399 78.4254 17.1633C78.1181 17.2816 77.8344 17.3842 77.598 17.4473C76.2507 17.8022 73.9893 18.4017 72.5711 17.2106C71.8226 16.5875 71.5074 16.6743 70.5698 16.9504L70.1364 17.0766C69.057 17.3763 68.2927 17.3763 67.3314 17.3842H67.0162C66.9611 17.4157 66.8823 17.4236 66.7956 17.4552Z" fill="#231F20"/>
<path d="M75.3997 28.0244C75.2185 28.0244 75.0373 27.985 74.8718 27.914C74.2179 27.6221 73.9185 26.8491 74.2179 26.1866C74.5094 25.5319 75.2816 25.2322 75.9434 25.5319C76.2586 25.6739 76.5028 25.9342 76.6289 26.2576C76.755 26.581 76.7392 26.9359 76.5974 27.2514C76.3689 27.7326 75.8961 28.0244 75.3997 28.0244ZM75.3997 26.2024C75.2028 26.2024 75.0137 26.3128 74.927 26.51C74.8718 26.6362 74.864 26.7782 74.9191 26.9044C74.9664 27.0306 75.0609 27.1331 75.187 27.1883C75.3131 27.2435 75.4549 27.2514 75.581 27.1962C75.707 27.1489 75.8095 27.0542 75.8646 26.928C75.9198 26.8018 75.9277 26.6598 75.8725 26.5336C75.8174 26.4074 75.7307 26.3049 75.6046 26.2497C75.5416 26.2181 75.4707 26.2024 75.3997 26.2024Z" fill="#231F20"/>
<path d="M67.9853 26.9033C67.804 26.9033 67.6228 26.8639 67.4495 26.785C66.7955 26.4932 66.504 25.7202 66.7955 25.0655C67.087 24.4108 67.8592 24.119 68.521 24.4108C69.175 24.7027 69.4666 25.4757 69.175 26.1303C69.0332 26.4458 68.7732 26.6904 68.4501 26.8166C68.3004 26.8797 68.1428 26.9033 67.9853 26.9033ZM67.9853 25.0892C67.7883 25.0892 67.5992 25.1996 67.5125 25.3968C67.3943 25.6571 67.5125 25.9647 67.7725 26.0751C67.8986 26.1303 68.0404 26.1382 68.1665 26.083C68.2925 26.0357 68.395 25.941 68.4501 25.8148C68.5683 25.5545 68.4501 25.2548 68.1901 25.1365C68.1271 25.1049 68.0562 25.0892 67.9853 25.0892Z" fill="#231F20"/>
<path d="M78.4491 23.2439C78.3703 23.1808 76.4005 21.7373 73.8949 22.8416L73.5797 22.1159C76.5265 20.8224 78.8352 22.5419 78.9297 22.6128L78.4491 23.2439Z" fill="#231F20"/>
<path d="M65.0309 22.3537L64.5739 21.7148C67.4025 19.6719 69.5693 21.7306 69.593 21.7543L69.0414 22.3222C68.9705 22.2512 67.3159 20.7052 65.0309 22.3537Z" fill="#231F20"/>
<path d="M69.5296 31.8815C69.3405 31.8815 69.1435 31.8499 68.9544 31.7553C67.8276 31.1874 68.2452 29.3338 68.3398 28.9631C68.5525 28.1585 68.8913 27.4329 69.2223 26.7309C69.7896 25.5162 70.3332 24.3646 70.1126 22.9842L70.8927 22.858C71.1527 24.475 70.5302 25.7843 69.9393 27.0621C69.6241 27.7326 69.3011 28.4267 69.112 29.1603C68.9465 29.7913 68.8677 30.8167 69.3168 31.0454C69.4665 31.1243 69.7502 31.0927 70.0181 30.9823C70.0654 30.9586 70.1993 30.8561 70.2781 30.8009C70.4908 30.6431 70.6484 30.5248 70.8612 30.58L70.7587 30.9586L70.9006 31.3215C70.8612 31.3451 70.8139 31.3846 70.7508 31.4319C70.609 31.5344 70.4672 31.6449 70.3254 31.708C70.1993 31.7632 69.8841 31.8815 69.5296 31.8815Z" fill="#231F20"/>
<path d="M84.8387 48.2095C80.4972 48.2095 76.9595 44.6759 76.9595 40.3219C76.9595 36.5911 79.6069 33.3414 83.2471 32.5999C83.4598 32.5605 83.6647 32.6946 83.712 32.9075C83.7592 33.1205 83.6174 33.3335 83.4047 33.3729C80.1269 34.0434 77.7474 36.9697 77.7474 40.3219C77.7474 44.2342 80.9306 47.4208 84.8387 47.4208C88.7468 47.4208 91.93 44.2342 91.93 40.3219C91.93 36.8277 89.4323 33.8777 85.9891 33.3177C85.7763 33.2861 85.6266 33.0811 85.666 32.8681C85.7054 32.6551 85.9024 32.5053 86.1151 32.5447C89.9444 33.1678 92.7179 36.4412 92.7179 40.3298C92.71 44.668 89.1801 48.2095 84.8387 48.2095Z" fill="#231F20"/>
<path d="M109.313 309.036L93.8852 300.936L104.097 292.575L101.607 281.224H125.079L125.126 281.572C125.835 286.982 126.332 290.966 126.686 294.089L126.734 294.436C127.262 299.003 127.522 301.937 127.514 303.144C127.498 305.384 122.369 306.851 120.604 306.954L113.827 306.757L109.313 309.036ZM95.3034 300.794L109.313 308.153L113.638 305.952L120.588 306.157C122.471 306.047 126.71 304.517 126.726 303.136C126.734 301.977 126.466 298.995 125.946 294.531L125.898 294.176C125.552 291.116 125.063 287.243 124.386 282.013H102.584L104.963 292.89L95.3034 300.794Z" fill="#231F20"/>
<path d="M126.387 294.074C123.487 294.768 120.446 295.217 117.719 296.471C116.151 297.197 115.104 298.593 113.977 299.855C112.527 301.496 110.809 302.829 108.643 303.349C106.618 303.831 104.356 303.452 102.702 302.143C101.851 301.472 101.315 300.518 100.511 299.8C99.7863 299.153 98.9038 298.68 97.9662 298.435C97.5171 298.317 97.0286 298.23 96.5637 298.238C95.9964 298.246 95.9097 298.546 95.634 298.956C95.4055 299.287 95.0036 299.382 94.6569 299.548C94.1684 299.776 93.7508 300.131 93.3175 300.447C91.6313 301.669 89.8033 302.647 87.8887 303.436C86.2971 304.091 84.3746 304.785 83.3424 306.244C82.5308 307.396 82.7278 308.989 82.7278 310.322C82.7278 310.535 82.909 310.716 83.1218 310.716C87.5656 310.716 92.0174 310.716 96.4613 310.716C99.3608 310.716 102.253 310.716 105.152 310.716C107.075 310.716 109.1 310.874 110.951 310.275C112.385 309.809 113.63 308.926 114.914 308.145C116.002 307.483 117.097 306.82 118.184 306.157C117.987 306.047 117.79 305.929 117.593 305.818C117.491 307.317 117.396 308.823 117.294 310.322C117.278 310.535 117.483 310.716 117.688 310.716C120.446 310.716 123.203 310.716 125.969 310.716C126.363 310.716 126.757 310.716 127.151 310.716C127.371 310.716 127.537 310.535 127.545 310.322C127.663 306.079 127.71 301.788 127.379 297.544C127.293 296.479 127.222 295.351 126.883 294.334C126.725 293.853 125.961 294.058 126.127 294.547C126.41 295.399 126.489 296.329 126.568 297.221C126.686 298.538 126.741 299.855 126.773 301.18C126.844 303.681 126.836 306.189 126.796 308.697C126.788 309.242 126.781 309.786 126.765 310.322C126.899 310.188 127.025 310.062 127.159 309.928C124.401 309.928 121.643 309.928 118.878 309.928C118.484 309.928 118.09 309.928 117.696 309.928C117.83 310.062 117.956 310.188 118.09 310.322C118.192 308.823 118.287 307.317 118.389 305.818C118.413 305.519 118.042 305.329 117.798 305.479C115.899 306.631 114.032 307.838 112.102 308.934C110.124 310.062 107.91 309.928 105.735 309.928C99.9124 309.928 94.0896 309.928 88.259 309.928C86.5492 309.928 84.8394 309.928 83.1296 309.928C83.2636 310.062 83.3897 310.188 83.5236 310.322C83.5236 309.21 83.3345 307.806 83.9097 306.82C84.2958 306.165 84.9891 305.716 85.6352 305.345C86.3838 304.919 87.1796 304.572 87.9832 304.241C88.6845 303.949 89.3936 303.673 90.0791 303.334C91.1428 302.805 92.1435 302.166 93.1363 301.52C93.5775 301.236 93.9872 300.912 94.4127 300.612C94.783 300.352 95.177 300.202 95.5788 299.997C95.9649 299.8 96.1461 299.556 96.3904 299.224C96.5401 299.019 96.6267 299.019 96.8868 299.035C97.1862 299.059 97.4856 299.114 97.7692 299.185C98.762 299.445 99.6681 299.981 100.361 300.731C101.063 301.488 101.63 302.316 102.473 302.931C104.033 304.067 106.058 304.501 107.957 304.249C109.943 303.988 111.786 303.042 113.268 301.701C114.048 300.991 114.717 300.171 115.419 299.382C116.002 298.719 116.616 297.994 117.373 297.521C118.736 296.669 120.422 296.274 121.966 295.88C123.503 295.486 125.063 295.17 126.607 294.807C127.088 294.713 126.875 293.955 126.387 294.074Z" fill="#231F20"/>
<path d="M119.484 294.869C113.662 294.869 107.335 294.199 103.962 292.787L104.27 292.061C108.997 294.041 119.752 294.522 126.45 293.71L126.544 294.491C124.472 294.743 122.021 294.869 119.484 294.869Z" fill="#231F20"/>
<path d="M42.1259 309.035L26.6983 300.934L36.965 292.534L37.6899 281.05H62.3124L62.2652 281.483C61.7294 286.705 61.3196 290.854 61.0124 294.143L60.9808 294.49C60.5554 299.057 60.3347 301.96 60.3269 303.135C60.2953 305.383 55.1817 306.842 53.4168 306.945L46.6328 306.748L42.1259 309.035ZM28.1166 300.792L42.1259 308.152L46.4516 305.951L53.401 306.156C55.2842 306.046 59.5153 304.515 59.5389 303.127C59.5468 301.936 59.7674 299.01 60.1929 294.427L60.2244 294.08C60.5238 290.862 60.9178 286.855 61.43 281.831H38.4226L37.7293 292.921L28.1166 300.792Z" fill="#231F20"/>
<path d="M60.5556 294.073C57.6561 294.759 54.6935 295.138 51.8491 296.037C51.2345 296.226 50.6278 296.447 50.0526 296.739C49.3908 297.07 48.855 297.591 48.3428 298.119C46.7434 299.784 45.4433 301.614 43.3317 302.671C41.3619 303.657 39.0217 303.877 36.9653 303.002C35.9094 302.552 35.0821 301.85 34.3651 300.967C33.6796 300.115 32.9547 299.374 31.9619 298.885C31.5128 298.664 31.0401 298.49 30.5516 298.388C30.1024 298.293 29.4879 298.143 29.0388 298.293C28.5818 298.443 28.5818 298.916 28.2351 299.184C27.8569 299.476 27.3447 299.579 26.9508 299.847C25.9501 300.517 24.9888 301.227 23.9488 301.85C23.0663 302.379 22.1681 302.836 21.2226 303.223C19.5285 303.925 17.4563 304.587 16.2744 306.086C15.3447 307.269 15.5338 308.91 15.5338 310.329C15.5338 310.542 15.715 310.724 15.9277 310.724C20.3716 310.724 24.8234 310.724 29.2673 310.724C32.1668 310.724 35.0585 310.724 37.958 310.724C39.8806 310.724 41.9055 310.882 43.7571 310.282C45.1912 309.817 46.4361 308.933 47.7204 308.152C48.8077 307.49 49.9029 306.827 50.9903 306.165C50.7933 306.054 50.5963 305.936 50.3993 305.826C50.2969 307.324 50.2023 308.831 50.0999 310.329C50.0842 310.542 50.289 310.724 50.4939 310.724C53.2516 310.724 56.0093 310.724 58.7749 310.724C59.1689 310.724 59.5629 310.724 59.9568 310.724C60.1932 310.724 60.3193 310.542 60.3508 310.329C60.9102 306.102 61.3987 301.803 61.3751 297.536C61.3672 296.495 61.3751 295.351 61.0442 294.349C60.8866 293.868 60.1223 294.073 60.2878 294.562C60.5714 295.422 60.5714 296.376 60.5872 297.268C60.6108 298.561 60.5478 299.863 60.469 301.156C60.3114 303.672 60.0671 306.188 59.7677 308.697C59.7047 309.249 59.6338 309.793 59.5629 310.345C59.6968 310.211 59.8229 310.085 59.9568 309.951C57.1991 309.951 54.4414 309.951 51.6758 309.951C51.2818 309.951 50.8878 309.951 50.4939 309.951C50.6278 310.085 50.7539 310.211 50.8878 310.345C50.9903 308.847 51.0848 307.34 51.1873 305.841C51.2109 305.542 50.8406 305.352 50.5963 305.502C48.6974 306.654 46.83 307.861 44.8996 308.957C42.9219 310.085 40.7079 309.951 38.5332 309.951C32.7105 309.951 26.8877 309.951 21.0571 309.951C19.3473 309.951 17.6375 309.951 15.9277 309.951C16.0617 310.085 16.1877 310.211 16.3217 310.345C16.3217 309.178 16.109 307.656 16.826 306.662C17.3066 305.999 18.0709 305.55 18.78 305.171C19.5758 304.753 20.4189 304.406 21.2541 304.067C23.1845 303.27 25.0519 302.253 26.7223 300.991C27.132 300.683 27.5259 300.391 27.9908 300.186C28.3769 300.02 28.7393 299.863 29.0072 299.523C29.1333 299.366 29.1806 299.121 29.3697 299.042C29.5588 298.963 29.9843 299.09 30.1891 299.121C30.717 299.216 31.2292 299.389 31.7019 299.642C32.7577 300.194 33.3881 301.077 34.1603 301.945C34.8379 302.71 35.6809 303.302 36.6107 303.704C38.5017 304.524 40.6527 304.532 42.591 303.838C44.6711 303.089 46.247 301.685 47.6731 300.044C48.3586 299.263 49.0362 298.388 49.8714 297.757C50.2969 297.433 50.809 297.228 51.3054 297.047C54.3547 295.927 57.6167 295.58 60.7605 294.83C61.2569 294.712 61.0442 293.955 60.5556 294.073Z" fill="#231F20"/>
<path d="M53.3936 294.869C47.0902 294.869 40.0856 294.175 36.7763 292.787L37.0836 292.061C41.693 293.994 53.7245 294.546 60.611 293.71L60.7055 294.491C58.6254 294.743 56.0725 294.869 53.3936 294.869Z" fill="#231F20"/>
<path d="M71.9487 281.84H29.9131L29.9525 281.406L44.8206 122.951L45.6085 123.022L30.7798 281.051H71.1923L78.2836 122.991L79.0716 123.03L71.9487 281.84Z" fill="#231F20"/>
<path d="M135.306 282.013H91.4498L91.4026 281.674L76.1247 175.782C76.1247 175.774 76.1169 175.735 76.109 175.68L75.8962 174.221C75.8805 174.142 75.8726 174.063 75.8647 173.976L75.5102 171.507C75.4865 171.373 75.4708 171.231 75.4471 171.089L75.2817 169.93C75.2186 169.512 75.1556 169.078 75.0926 168.62L74.9586 167.697C74.8956 167.216 74.8247 166.727 74.7459 166.23L74.2022 162.468C74.1549 162.089 74.0998 161.711 74.0368 161.332L73.7846 159.557L68.5213 123.14L69.3013 123.03L74.8168 161.214C74.8798 161.6 74.935 161.979 74.9823 162.365L75.5259 166.12C75.6047 166.625 75.6756 167.114 75.7387 167.603L75.8726 168.518C75.9356 168.975 75.9987 169.409 76.0617 169.827L76.2272 170.995C76.2429 171.136 76.2666 171.271 76.2902 171.405L76.6448 173.889C76.6526 173.976 76.6684 174.039 76.6763 174.11L76.889 175.64L92.1274 281.232H134.344L110.699 162.405C109.816 157.98 109.367 153.634 109.367 149.501C109.359 144.547 108.422 134.554 102.213 123.219L102.906 122.841C108.887 133.749 110.147 143.356 110.155 149.501C110.155 153.579 110.596 157.87 111.471 162.247L135.306 282.013Z" fill="#231F20"/>
<path d="M76.1333 175.813C76.1333 175.813 76.1175 175.766 76.1097 175.679C76.0939 175.522 76.0466 175.19 75.9757 174.709L75.8654 173.983C75.1011 168.659 72.7689 152.442 70.8385 139.041C69.9008 132.518 69.0578 126.658 68.5377 123.053L69.3178 122.943C69.8378 126.547 70.6809 132.408 71.6185 138.931C73.5489 152.332 75.8812 168.549 76.6455 173.873L76.7558 174.591C76.8267 175.096 76.8739 175.435 76.8897 175.585L76.1333 175.813Z" fill="#231F20"/>
<path d="M103.064 135.974L102.962 135.966C102.434 135.935 101.883 135.903 101.299 135.864L99.5582 135.761C97.7223 135.643 95.8076 135.516 94.4051 135.422C93.0184 135.335 91.8444 134.31 91.5529 132.937L89.4885 123.101L90.2607 122.936L92.325 132.772C92.5378 133.797 93.4124 134.562 94.4524 134.625C95.8549 134.72 97.7696 134.846 99.6054 134.964L101.355 135.067C101.938 135.106 102.481 135.138 102.978 135.162L103.057 135.169L103.064 135.974Z" fill="#231F20"/>
<path d="M44.1197 135.303L44.0724 134.514L52.385 133.993C53.4802 133.922 54.3942 133.086 54.5596 131.998L55.9149 122.927L56.6949 123.045L55.3397 132.116C55.1191 133.567 53.8978 134.687 52.4401 134.782L44.1197 135.303Z" fill="#231F20"/>
<path d="M71.0354 138.631C70.5705 138.56 68.2304 138.174 67.6 137.716C67.34 137.527 66.7964 137.14 64.8659 123.053L65.646 122.943C67.34 135.287 67.9546 136.904 68.1043 137.109C68.4195 137.33 70.082 137.677 71.1614 137.85L71.0354 138.631Z" fill="#231F20"/>
<path d="M109.902 123.425L41.0458 123.386L43.2441 80.3905L35.1443 61.2393L35.3492 61.05C35.4122 60.9948 41.4319 55.4892 48.2947 52.5787L48.3814 52.5393C48.6414 52.4288 48.9014 52.3263 49.1535 52.2238C56.6152 49.3132 63.1549 50.1493 65.6211 50.6462L66.5272 50.8276L65.7629 51.3561C64.3604 52.3342 63.3834 53.4542 62.9422 54.6137C62.6664 55.3078 62.6034 55.994 62.7531 56.6566C62.9579 57.5873 63.5962 58.4155 64.5811 59.0387C66.6218 60.3322 69.9547 60.6793 73.2718 59.93C78.1727 58.8257 81.6002 56.9642 82.6718 54.8188C83.05 54.0852 83.1524 53.3044 82.9948 52.4919C82.853 51.7978 81.9469 50.8671 80.5365 50.4964L79.2758 50.1651L80.505 49.7392C81.2771 49.471 82.6718 48.9977 83.3021 48.8321C88.8018 47.365 92.3868 46.9706 95.6804 47.4833C98.8163 47.9723 102.969 50.2282 108.019 54.1799C113.038 58.1158 117.183 62.3909 117.222 62.4382L117.561 62.7932L117.143 63.0535C116.765 63.2822 116.371 63.574 115.961 63.9132C112.345 66.879 108.902 72.8736 106.64 77.3932L106.617 77.5036C106.372 78.0005 106.152 78.4659 105.939 78.9155L105.782 79.2468C105.742 79.3335 105.726 79.3651 105.703 79.4045L105.545 79.6648L105.254 79.578C103.93 79.1916 100.29 78.1819 95.507 76.8884L95.4519 76.8726C86.8477 74.5457 80.702 72.984 80.1504 72.9761C79.3546 72.984 78.1964 73.1417 77.2509 73.828C76.5654 74.3328 76.0611 75.0663 75.6277 75.792C74.5877 77.4878 74.1228 78.4186 73.327 80.1381L73.2246 80.351C72.8227 81.2187 72.4051 82.1257 72.0978 83.0328C71.9639 83.4193 71.8457 83.8295 71.8693 84.216C71.893 84.8154 72.2791 85.3833 72.8148 85.6357C73.3585 85.8881 74.044 85.8172 74.5246 85.4543L75.5962 84.6498L75.1313 85.9039C74.9265 86.4639 75.1313 87.1423 75.612 87.4972C76.0926 87.8443 76.8017 87.8364 77.2745 87.4814L77.7866 87.0871L77.9048 87.7181C77.9994 88.2387 78.3697 88.704 78.8503 88.9012C79.3231 89.0984 79.9298 89.0353 80.3553 88.7356L80.962 88.3096L80.9698 89.0511C80.9777 89.6427 81.8287 89.9976 82.199 90.1159C82.6008 90.25 83.2312 90.3131 83.3415 90.0134C83.3888 89.8398 83.4518 89.6269 83.6645 89.4849C83.9797 89.2798 84.3264 89.4534 84.4446 89.5086C86.3198 90.4156 87.9823 91.0151 89.9758 90.9362C90.1491 90.9283 90.3225 90.9047 90.4879 90.8889C90.874 90.8416 91.268 90.7943 91.6698 90.881C91.8747 90.9283 92.6626 91.2359 94.5773 91.9932C97.3192 93.0738 101.921 94.8879 106.506 96.5128L106.743 96.5995L106.766 96.8519C107.94 108.865 109.839 122.81 109.863 122.944L109.902 123.425ZM41.881 122.597L109.004 122.637C108.673 120.168 107.05 107.966 105.994 97.2148C101.472 95.6057 96.9804 93.831 94.2778 92.7662C92.8753 92.214 91.6619 91.7329 91.4886 91.6934C91.2128 91.6303 90.8977 91.6698 90.5667 91.7092C90.3776 91.7329 90.1806 91.7565 89.9916 91.7644C87.8326 91.8433 86.0756 91.2202 84.09 90.2658L84.0742 90.3131C83.7748 91.1255 82.7584 91.1886 81.9311 90.8968C81.0959 90.6128 80.5365 90.1869 80.3001 89.6663C79.7328 89.8793 79.0867 89.8872 78.5352 89.6584C77.9679 89.4218 77.5187 88.9643 77.2745 88.4043C76.5811 88.6883 75.7538 88.6094 75.1392 88.1598C74.6034 87.7654 74.2883 87.1344 74.2567 86.4797C73.6737 86.6611 73.0355 86.6296 72.476 86.3693C71.6724 85.9907 71.1129 85.1467 71.0735 84.2712C71.042 83.7506 71.1917 83.2537 71.3493 82.7883C71.6724 81.8339 72.0978 80.9189 72.5076 80.0276L72.61 79.8068C73.4294 78.0557 73.8943 77.1092 74.958 75.3818C75.4386 74.5931 75.9902 73.7728 76.7939 73.1891C77.6763 72.5502 78.8346 72.211 80.1504 72.1873C81.0408 72.1873 91.2207 74.9086 95.6094 76.0996L95.6646 76.1154C100.132 77.3301 103.615 78.2845 105.151 78.7262L105.222 78.5684C105.435 78.1188 105.663 77.6456 105.9 77.1565L105.939 77.0698C108.232 72.4792 111.754 66.3584 115.481 63.298C115.772 63.0535 116.064 62.8405 116.34 62.6433C115.26 61.5548 111.715 58.0606 107.554 54.803C102.614 50.9381 98.5799 48.7374 95.5779 48.2642C92.4026 47.7672 88.9121 48.1537 83.5306 49.5972C83.2075 49.6839 82.6087 49.8732 81.8129 50.1335C82.9318 50.7093 83.6251 51.5927 83.7827 52.3263C83.9797 53.3201 83.8536 54.2745 83.3888 55.1658C81.7735 58.384 76.4708 60.0088 73.4609 60.6872C69.8917 61.4917 66.4248 61.121 64.1713 59.6933C63.0052 58.9519 62.2488 57.9581 61.9967 56.8144C61.8076 56.0019 61.8864 55.158 62.2173 54.314C62.627 53.2334 63.4386 52.1843 64.5889 51.2536C61.7288 50.7961 55.9533 50.4175 49.4451 52.9573C49.1929 53.052 48.9408 53.1624 48.6887 53.2649L48.602 53.2965C42.5744 55.8521 37.1929 60.4584 36.0898 61.4365L36.3025 61.9334L44.0478 80.2406L41.881 122.597Z" fill="#231F20"/>
<path d="M31.7409 75.2159C31.5518 72.187 29.2274 66.4133 29.2038 66.3581L29.9366 66.0583C30.0311 66.3029 32.3318 72.0056 32.5367 75.1685L31.7409 75.2159Z" fill="#231F20"/>
<path d="M43.2523 80.3189C43.1971 81.3443 43.1498 82.3618 43.0947 83.3872C43.1577 83.2768 43.2286 83.1584 43.2917 83.048C40.0533 84.9095 36.7519 86.6684 33.356 88.2381C31.4807 89.1057 29.5739 89.9102 27.6199 90.5649C26.0362 91.1013 24.3737 91.5903 22.6954 91.685C18.8661 91.9058 15.7144 89.1846 13.9337 86.0216C12.3815 83.2689 11.7433 80.2006 11.1681 77.1244C9.88377 70.2464 8.70976 63.3447 7.52 56.443C6.25145 49.0839 5.06957 41.7011 3.69858 34.3577C3.23371 31.881 2.80823 29.4043 2.44578 26.9118C2.14637 24.8768 1.8706 22.8102 1.83121 20.7437C1.82333 20.231 1.64998 19.245 2.17001 18.9532C2.2882 18.8822 2.57973 18.7481 2.72944 18.827C2.83187 18.8822 2.8555 19.0084 2.8949 19.1109C3.04461 19.4816 3.16279 19.8681 3.28098 20.2467C3.83253 22.053 4.25013 23.9066 4.65197 25.7602C4.78591 26.3675 4.91198 26.9828 5.03805 27.5901C5.14048 28.0949 5.87325 27.8741 5.79445 27.3772C5.3217 24.2852 4.87258 21.1775 4.61257 18.0619C4.55742 17.3835 4.50226 16.6973 4.51014 16.019C4.51014 15.735 4.47074 15.5378 4.78591 15.4432C5.21927 15.317 5.35322 15.593 5.51868 15.9322C6.29084 17.4782 6.69269 19.2529 7.07877 20.9251C7.46485 22.5894 7.7879 24.2694 8.06367 25.9495C8.15034 26.4543 8.89887 26.2334 8.82007 25.7365C8.30792 22.2817 7.76426 18.7481 7.7485 15.246C7.7485 14.9857 7.65395 14.4336 7.89033 14.26C8.22125 14.0155 8.59946 14.3152 8.7334 14.5992C9.08797 15.317 9.33222 16.09 9.5686 16.8551C10.1201 18.6613 10.5456 20.507 10.979 22.3448C11.1602 23.1178 11.3335 23.8987 11.562 24.6559C11.6487 24.9557 11.7827 25.6655 12.1924 25.7208C12.4918 25.7602 12.7439 25.5551 12.6809 25.2317C12.1057 22.4316 11.5936 19.5684 11.436 16.7052C11.4123 16.2398 11.1681 14.962 11.8299 14.8358C12.4445 14.7175 12.7597 16.4449 12.8936 16.8708C13.4531 18.7165 13.9258 20.5938 14.438 22.4553C14.6507 23.2283 14.8634 23.9934 15.1077 24.7506C15.2574 25.2159 15.4071 25.7286 15.6671 26.1388C15.9508 26.5805 16.4629 26.6121 16.8569 26.265C17.3927 25.7996 17.5424 24.9478 17.6921 24.2931C17.9048 23.3624 18.0309 22.3922 18.3776 21.493C18.4958 21.1854 18.9134 20.4124 19.2364 20.72C19.3388 20.8146 19.4334 21.0828 19.4964 21.2564C19.7643 22.0372 19.9061 22.8654 20.0558 23.6779C20.2843 24.9399 20.4734 26.2177 20.6625 27.4876C21.1826 30.966 22.0493 34.3814 22.8136 37.8125C24.0979 43.5704 25.3822 49.3363 26.6665 55.0943C27.486 58.762 28.2266 62.4613 29.1248 66.1054C29.1406 66.1606 29.1485 66.2237 29.1642 66.2789C29.2194 66.5234 29.5345 66.6496 29.7394 66.5156C31.8668 65.1431 33.9863 63.7707 36.1137 62.3982C35.9325 62.3509 35.7513 62.3036 35.5779 62.2562C36.4446 64.3149 37.3192 66.3736 38.1859 68.4244C39.5648 71.6898 40.9437 74.9474 42.3225 78.2129C42.6377 78.9701 42.9607 79.7194 43.2759 80.4766C43.4729 80.942 44.1505 80.5397 43.9535 80.0823C43.0868 78.0236 42.2122 75.9649 41.3455 73.9141C39.9666 70.6487 38.5878 67.3911 37.2089 64.1256C36.8937 63.3684 36.5707 62.6191 36.2555 61.8619C36.1767 61.6726 35.8773 61.6173 35.7197 61.7199C33.5923 63.0923 31.4728 64.4648 29.3454 65.8372C29.5345 65.9161 29.7315 65.995 29.9206 66.0738C29.2036 62.8715 28.4945 59.6691 27.7775 56.4667C26.4538 50.5431 25.1379 44.6195 23.8142 38.6959C23.31 36.44 22.8057 34.1842 22.3014 31.9283C22.065 30.8793 21.7972 29.8302 21.6396 28.7654C21.285 26.3912 21.0329 23.9618 20.4262 21.635C20.3001 21.1459 20.1583 20.4991 19.7643 20.1363C18.9528 19.387 18.0388 20.2862 17.7157 21.0355C17.3296 21.9268 17.1878 22.9049 16.9829 23.8435C16.8963 24.2458 16.8096 24.6559 16.6678 25.0503C16.6126 25.2081 16.5496 25.3816 16.455 25.5236C16.4235 25.5788 16.2581 25.6813 16.2502 25.7129C16.2581 25.6971 16.3684 25.7681 16.3762 25.776C16.3526 25.7523 16.3526 25.7286 16.3526 25.7523C16.3526 25.7602 16.2817 25.634 16.2581 25.5867C16.132 25.35 16.0532 25.0976 15.9665 24.8531C15.7065 24.1038 15.4938 23.3387 15.281 22.5815C14.7531 20.6806 14.2725 18.7718 13.7052 16.8787C13.4846 16.1294 13.3112 15.104 12.807 14.4888C12.2869 13.8499 11.3414 13.9288 10.8687 14.5834C10.4432 15.175 10.6008 16.1294 10.6402 16.8077C10.6953 17.7543 10.8056 18.6929 10.9238 19.6315C11.1444 21.2879 11.4202 22.9364 11.7354 24.577C11.7905 24.861 11.8457 25.145 11.9009 25.4289C12.0663 25.2633 12.2239 25.1055 12.3894 24.9399C12.5076 24.9557 12.5076 25.0819 12.5154 25.003C12.5154 24.932 12.4682 24.8926 12.4366 24.8058C12.3421 24.5455 12.2712 24.2773 12.2003 24.017C11.9875 23.2283 11.8063 22.4237 11.6172 21.6271C11.1523 19.6631 10.6953 17.6912 10.0492 15.7823C9.82073 15.1198 9.58436 14.0707 8.98554 13.6448C8.30793 13.1558 7.16544 13.3608 6.98422 14.2758C6.82663 15.0882 6.96058 16.0269 7.00785 16.8472C7.07877 17.9436 7.1812 19.032 7.29938 20.1205C7.51212 22.0609 7.76426 24.0013 8.04791 25.9337C8.30005 25.8627 8.55218 25.7917 8.80432 25.7208C8.53642 24.0959 8.22913 22.4868 7.85881 20.8778C7.43333 19.0242 6.99997 17.0444 6.09386 15.3564C5.91264 15.0094 5.6999 14.7412 5.29806 14.6465C4.9041 14.5519 4.43923 14.6308 4.1083 14.8674C3.541 15.2697 3.68282 16.1294 3.70646 16.7367C3.79313 18.6219 4.02951 20.4991 4.27376 22.3685C4.49438 24.1038 4.73864 25.8391 5.00653 27.5665C5.25867 27.4955 5.5108 27.4245 5.76294 27.3535C5.40049 25.6103 5.02229 23.8672 4.58105 22.1398C4.34468 21.1933 4.09254 20.2546 3.77737 19.3318C3.66706 19.0084 3.56463 18.5746 3.33614 18.3064C3.06036 17.983 2.60337 17.9514 2.21729 18.0461C1.81545 18.1407 1.38209 18.3931 1.17723 18.7718C1.02752 19.0557 1.02752 19.4422 1.01177 19.7577C0.964491 20.649 1.01965 21.5403 1.09056 22.4237C1.28754 24.8926 1.65786 27.3535 2.0597 29.7987C2.76095 34.0501 3.58039 38.2778 4.30528 42.5293C5.01441 46.7097 5.73142 50.8902 6.44843 55.0706C7.22847 59.393 7.96912 63.6839 8.72552 67.9748C9.29283 71.2087 9.86013 74.4426 10.4668 77.6687C11.1366 81.2023 11.9796 84.7596 14.0913 87.749C15.2968 89.4528 16.8648 90.9041 18.803 91.7323C20.4656 92.4422 22.1517 92.6078 23.9245 92.3317C25.8944 92.0241 27.8169 91.3695 29.6685 90.6517C31.8038 89.8314 33.8839 88.877 35.9325 87.8752C37.8314 86.9445 39.6987 85.9585 41.5425 84.9332C41.9128 84.7281 42.291 84.5151 42.6613 84.31C42.9923 84.1207 43.3862 83.9551 43.6856 83.7263C43.8984 83.5607 43.8826 83.3399 43.8984 83.0874C43.9141 82.7246 43.9378 82.3618 43.9535 81.9911C43.985 81.431 44.0087 80.871 44.0402 80.311C44.0638 79.8062 43.2759 79.8062 43.2523 80.3189Z" fill="#231F20"/>
<path d="M5.57379 44.4784C5.14831 41.9543 4.67556 39.4461 4.17917 36.9378C4.08462 36.4409 3.32033 36.6538 3.42276 37.1508C3.91915 39.659 4.39191 42.1752 4.81739 44.6913C4.89618 45.1883 5.66046 44.9753 5.57379 44.4784Z" fill="#231F20"/>
<path d="M5.08535 27.8188C5.08535 27.8267 5.09323 27.8346 5.09323 27.8504C5.08535 27.8189 5.08535 27.7794 5.07747 27.7479C5.07747 27.7558 5.07747 27.7636 5.07747 27.7794V27.7873C5.08535 27.8188 5.08535 27.8583 5.09323 27.8898C5.10111 27.9372 5.12474 27.9608 5.13262 27.9924C5.11687 27.9608 5.10899 27.9293 5.09323 27.8977C5.09323 27.9056 5.09323 27.9056 5.10111 27.9135C5.09323 27.882 5.09323 27.8425 5.08535 27.811C5.08535 27.8662 5.09323 27.9135 5.11687 27.9608C5.13262 28.0082 5.15626 28.0555 5.19566 28.087C5.23505 28.1265 5.27445 28.1501 5.32173 28.1659C5.369 28.1896 5.41628 28.2053 5.47143 28.1975C5.50295 28.1896 5.54234 28.1896 5.57386 28.1817C5.63689 28.1659 5.69993 28.1265 5.7472 28.0791C5.77084 28.0555 5.7866 28.0239 5.81024 28.0003C5.84963 27.9372 5.86539 27.8741 5.86539 27.8031C5.86539 27.7636 5.85751 27.7321 5.84963 27.6926V27.6848C5.84175 27.6532 5.81812 27.6138 5.81024 27.5901V27.5822C5.82599 27.6453 5.84963 27.7163 5.86539 27.7794C5.86539 27.7715 5.86539 27.7558 5.86539 27.7479C5.85751 27.7084 5.85751 27.6532 5.84175 27.6059C5.826 27.5507 5.80236 27.5112 5.77084 27.4718C5.73932 27.4324 5.70781 27.3929 5.66053 27.3693C5.61326 27.3377 5.56598 27.3219 5.51083 27.3219C5.45567 27.314 5.4084 27.314 5.35324 27.3298C5.32173 27.3456 5.29021 27.3535 5.25869 27.3693C5.19566 27.4008 5.15626 27.4481 5.11687 27.5112C5.10899 27.5428 5.09323 27.5743 5.08535 27.6059C5.06171 27.6769 5.06171 27.7479 5.08535 27.8188Z" fill="#231F20"/>
<path d="M8.0638 25.8543C8.0638 25.8937 8.07168 25.9332 8.07956 25.9726C8.07956 25.9805 8.07956 25.9884 8.08744 25.9884C8.07956 25.9568 8.07956 25.9174 8.07168 25.8859C8.07956 25.9568 8.08744 26.0278 8.1032 26.0988C8.11108 26.1304 8.11108 26.1619 8.11896 26.1935C8.11108 26.1619 8.11108 26.1225 8.1032 26.0909C8.1032 26.1146 8.11108 26.1383 8.11108 26.154C8.11108 26.1619 8.11108 26.1698 8.11108 26.1777V26.1856C8.11108 26.2092 8.11108 26.2092 8.11896 26.2408C8.11896 26.2802 8.12684 26.3118 8.14259 26.3433C8.15047 26.3591 8.15835 26.3749 8.16623 26.3985C8.15047 26.367 8.14259 26.3354 8.12684 26.3039C8.12684 26.3118 8.13472 26.3118 8.13472 26.3197C8.12684 26.2802 8.12684 26.2487 8.11896 26.2092C8.11896 26.2645 8.12684 26.3118 8.15047 26.3591C8.16623 26.4064 8.18987 26.4538 8.22927 26.4853C8.26866 26.5247 8.30806 26.5484 8.35533 26.5642C8.40261 26.5878 8.44988 26.6036 8.50504 26.5957C8.53655 26.5878 8.57595 26.5878 8.60747 26.58C8.6705 26.5642 8.73354 26.5247 8.78081 26.4774C8.80445 26.4538 8.82021 26.4222 8.84384 26.3985C8.88324 26.3354 8.899 26.2723 8.899 26.2014C8.899 26.1856 8.89112 26.1225 8.89112 26.1461C8.89112 26.1698 8.89112 26.1067 8.88324 26.0909V26.083C8.87536 26.0515 8.85172 26.0121 8.83597 25.9805C8.85172 26.0436 8.87536 26.1146 8.89112 26.1777C8.89112 26.1067 8.87536 26.0357 8.86748 25.9647C8.8596 25.9016 8.85172 25.8385 8.83597 25.7754C8.84384 25.807 8.84384 25.8464 8.85172 25.878C8.85172 25.8385 8.84384 25.7991 8.83597 25.7596C8.83597 25.7518 8.83597 25.7439 8.82809 25.7439C8.83597 25.7754 8.83597 25.8149 8.84384 25.8464C8.84384 25.8464 8.84384 25.8464 8.84384 25.8385C8.84384 25.7833 8.83597 25.736 8.81233 25.6887C8.79657 25.6413 8.77293 25.594 8.73354 25.5625C8.69414 25.523 8.65474 25.4994 8.60747 25.4836C8.56019 25.4599 8.51292 25.4441 8.45776 25.452C8.42625 25.4599 8.38685 25.4599 8.35533 25.4678C8.2923 25.4836 8.22927 25.523 8.18199 25.5703C8.15835 25.594 8.14259 25.6256 8.11896 25.6492C8.07956 25.7123 8.0638 25.7833 8.0638 25.8543Z" fill="#231F20"/>
<path d="M24.5706 42.0078C23.633 37.8037 22.4038 33.639 21.7498 29.3718C21.6711 28.8749 20.9146 29.0879 20.9934 29.5848C21.6474 33.852 22.8687 38.0167 23.8142 42.2208C23.9245 42.7177 24.6809 42.5047 24.5706 42.0078Z" fill="#231F20"/>
<path d="M5.69204 29.0181C7.15758 29.9725 8.48129 31.0847 9.55286 32.4729C10.0729 33.1434 10.5299 33.8611 10.9238 34.6183C11.3257 35.3834 11.5857 36.1959 11.956 36.9689C12.0427 37.1503 12.287 37.0083 12.2633 36.8427C12.1372 36.0066 11.7118 35.1389 11.3178 34.3975C10.9081 33.6245 10.4196 32.891 9.86803 32.2126C8.75706 30.8481 7.3782 29.6413 5.81023 28.8367C5.67628 28.7736 5.57385 28.9471 5.69204 29.0181Z" fill="#231F20"/>
<path d="M16.1474 27.1478C15.7849 28.2284 15.4776 29.3405 15.3909 30.4764C15.32 31.4465 15.3594 32.6928 15.9425 33.521C16.0292 33.6472 16.2104 33.5683 16.1867 33.4184C16.0922 32.89 15.9267 32.393 15.8637 31.8567C15.8085 31.3755 15.7928 30.9023 15.8243 30.4211C15.8952 29.3326 16.1631 28.2757 16.4783 27.2345C16.5413 27.0295 16.2183 26.9427 16.1474 27.1478Z" fill="#231F20"/>
<path d="M43.7562 78.1414C43.7562 77.818 43.7325 70.1354 44.6938 65.6553L45.466 65.8209C44.5283 70.2143 44.5441 78.0546 44.5441 78.1335L43.7562 78.1414Z" fill="#231F20"/>
<path d="M71.6019 34.3745C71.5862 35.3132 71.4522 36.2833 70.9322 37.08C70.7352 37.3797 70.4831 37.6163 70.2152 37.853C70.1837 37.8845 70.294 37.7978 70.1994 37.8609C70.1679 37.8845 70.1364 37.9082 70.097 37.924C70.0655 37.9397 70.0419 37.9555 70.0103 37.9713C69.9788 37.9871 69.8291 38.0502 69.9552 38.0028C69.8843 38.0265 69.8134 38.058 69.7424 38.0738C69.7109 38.0817 69.6715 38.0896 69.64 38.0975C69.5612 38.1133 69.7424 38.0896 69.6637 38.0975C69.6321 38.0975 69.6085 38.1054 69.577 38.1054C69.5455 38.1054 69.5061 38.1054 69.4746 38.1054C69.3485 38.1054 69.5218 38.129 69.4273 38.0975C69.3958 38.0896 69.3564 38.0817 69.317 38.0738C69.2933 38.0659 69.2776 38.058 69.2539 38.0502C69.1515 38.0265 69.3012 38.0738 69.2382 38.0502C69.1594 38.0107 69.0806 37.9634 69.0097 37.9082C69.1042 37.9713 68.986 37.8845 68.9624 37.8687C68.9151 37.8214 68.8679 37.7741 68.8206 37.7268C68.7969 37.7031 68.7812 37.6794 68.7575 37.6558C68.8048 37.7189 68.7654 37.6637 68.7575 37.6558C68.7181 37.6006 68.6788 37.5453 68.6472 37.4823C68.5684 37.3482 68.4975 37.2141 68.4345 37.0721C68.0484 36.1887 67.9302 35.0371 67.8829 34.0275C67.749 34.1616 67.6229 34.2878 67.489 34.4218C68.7969 34.5244 70.1128 34.619 71.4207 34.7216C71.6098 34.7374 71.7989 34.7531 71.988 34.761C72.4923 34.8005 72.4923 34.0117 71.988 33.9723C70.6801 33.8697 69.3642 33.7751 68.0563 33.6725C67.8672 33.6567 67.6781 33.641 67.489 33.6331C67.2841 33.6173 67.0872 33.8303 67.095 34.0275C67.1502 35.0923 67.2526 36.2123 67.6466 37.2141C67.8672 37.782 68.1981 38.3736 68.7497 38.6812C69.7424 39.2333 70.7431 38.5707 71.3656 37.7899C72.1377 36.8118 72.3662 35.5813 72.382 34.3587C72.3978 33.8697 71.6098 33.8697 71.6019 34.3745Z" fill="#231F20"/>
<path d="M64.1002 80.7126C63.8087 80.7126 63.5172 80.6495 63.2335 80.5311C62.4377 80.1762 59.349 78.0308 59.9321 76.7057C60.5073 75.3884 64.179 76.2166 64.9748 76.5637C66.0621 77.0448 66.5585 78.3305 66.0779 79.419C65.7233 80.2314 64.9354 80.7126 64.1002 80.7126ZM63.5487 79.8055C64.242 80.1131 65.0536 79.7976 65.3609 79.1035C65.6682 78.4094 65.353 77.5969 64.6596 77.2893C63.5881 76.824 60.854 76.5716 60.657 77.0212C60.4521 77.4786 62.4771 79.3322 63.5487 79.8055Z" fill="#231F20"/>
<path d="M60.6101 78.0627L59.0185 77.3607C58.7821 77.2582 58.6087 77.0689 58.5142 76.8322C58.4196 76.5956 58.4275 76.3353 58.5299 76.1066C58.7506 75.6096 59.3179 75.3888 59.7985 75.6018L61.3901 76.3038L60.6101 78.0627ZM58.8845 76.2485L59.2469 76.4063C59.2233 76.4615 59.2312 76.5167 59.2469 76.5404C59.2627 76.564 59.2785 76.6114 59.3336 76.635L60.2082 77.0215L60.35 76.6981L59.4754 76.3116C59.3888 76.2722 59.2863 76.3116 59.2469 76.3984L58.8845 76.2485Z" fill="#231F20"/>
<path d="M71.6642 84.074L62.871 80.3826L64.6202 76.423L73.4134 80.1144L71.6642 84.074ZM63.9111 79.9645L71.2466 83.0486L72.3576 80.5324L65.022 77.4484L63.9111 79.9645Z" fill="#231F20"/>
<path d="M134.21 91.0137C133.895 94.2318 132.02 96.9609 129.215 98.5306C125.914 100.384 121.706 100.723 118.034 100.013C115.757 99.5717 113.52 98.8934 111.313 98.1914C108.713 97.3553 106.137 96.4482 103.576 95.5017C99.7939 94.1056 96.067 92.5833 92.3008 91.1556C91.7177 90.9348 91.2607 90.848 90.6067 90.919C89.2358 91.0689 87.9042 90.9032 86.5883 90.4694C85.9344 90.2486 85.304 89.9804 84.6816 89.6806C84.2325 89.4677 83.7203 89.2547 83.4209 89.799C83.2791 90.0592 83.3027 90.2091 82.9639 90.2643C82.7196 90.3038 82.4517 90.2407 82.2154 90.1697C81.719 90.0198 80.9941 89.6964 80.9547 89.097C80.9311 88.813 80.6316 88.5843 80.3637 88.7578C79.3552 89.3967 78.1339 88.884 77.8739 87.7245C77.8188 87.4879 77.4957 87.3459 77.2987 87.4879C76.1484 88.2924 74.6828 87.2591 75.1241 85.9025C75.2265 85.587 74.8247 85.2636 74.5489 85.4608C73.8713 85.9261 72.9573 85.9498 72.3506 85.3425C71.6966 84.6878 71.8227 83.8359 72.0906 83.0314C72.65 81.3671 73.4537 79.758 74.2574 78.1963C74.5883 77.5574 74.935 76.9342 75.3053 76.319C75.7386 75.6012 76.1641 74.8598 76.7551 74.2603C77.3696 73.6372 78.1576 73.2665 79.0164 73.1009C79.3867 73.0299 79.7807 72.9747 80.1589 72.9825C80.2928 72.9904 80.1904 72.9825 80.3165 72.9983C82.3493 73.3454 84.3585 73.9448 86.352 74.4654C89.6061 75.3094 92.8602 76.177 96.1064 77.0604C99.1951 77.8965 102.323 78.6695 105.38 79.6239C105.593 79.6949 105.798 79.545 105.869 79.3479C106.893 76.5162 108.477 73.8344 110.053 71.2788C111.707 68.597 113.575 65.9152 116.017 63.8881C115.828 63.8881 115.647 63.8881 115.458 63.8881C117.971 65.9862 120.445 68.1395 122.856 70.356C124.456 71.8231 126.04 73.3138 127.497 74.915C129.373 76.9816 130.94 79.4267 132.201 81.9113C133.635 84.743 134.494 87.8192 134.21 91.0137C134.163 91.5185 134.951 91.5185 134.998 91.0137C135.25 88.2136 134.644 85.4765 133.541 82.9131C132.895 81.4144 132.091 79.9867 131.208 78.6143C130.436 77.4075 129.625 76.2007 128.703 75.1043C127.355 73.4952 125.819 72.0439 124.283 70.6084C122.612 69.0466 120.894 67.5243 119.169 66.0257C118.121 65.1186 117.073 64.2194 116.009 63.3281C115.836 63.1782 115.631 63.1782 115.45 63.3281C112.96 65.3946 111.053 68.1474 109.359 70.8765C107.744 73.4874 106.145 76.2322 105.097 79.1349C105.262 79.0402 105.42 78.9535 105.585 78.8588C102.646 77.9439 99.6521 77.2024 96.6816 76.39C93.1202 75.4198 89.5509 74.4654 85.9738 73.5505C84.6658 73.2113 83.35 72.88 82.0341 72.5645C81.4275 72.4225 80.7814 72.2174 80.151 72.1859C78.4176 72.1149 76.7472 72.9194 75.6914 74.2761C74.6828 75.5697 73.9028 77.092 73.1858 78.567C72.713 79.5451 72.2403 80.531 71.8227 81.5327C71.4445 82.4398 70.9481 83.481 71.0899 84.4906C71.3499 86.3047 73.4616 87.1487 74.9428 86.1233C74.7537 85.9735 74.5568 85.8236 74.3677 85.6816C73.7216 87.6693 75.9829 89.3494 77.6927 88.1504C77.5036 88.0716 77.3066 87.9927 77.1175 87.9138C77.4799 89.5623 79.3395 90.3195 80.7577 89.4204C80.5607 89.3099 80.3638 89.1916 80.1668 89.0812C80.2377 90.0987 81.1674 90.6745 82.0657 90.9348C82.4675 91.0531 82.9324 91.1083 83.3421 90.9742C83.5391 90.9111 83.7282 90.8007 83.8621 90.6429C83.9094 90.5956 83.9567 90.5325 83.9803 90.4773C84.0118 90.4142 84.0434 90.3511 84.067 90.2801C84.13 90.1381 84.1221 90.1224 84.0434 90.2328C84.2718 90.2486 84.6028 90.501 84.8234 90.5956C85.107 90.7218 85.3986 90.848 85.6822 90.9585C86.2811 91.1951 86.9035 91.4001 87.5338 91.5342C88.1011 91.6604 88.6842 91.7314 89.2673 91.7551C89.9212 91.7788 90.5673 91.621 91.2134 91.6525C91.6153 91.6683 92.0014 91.8655 92.3638 92.0075C93.0729 92.2836 93.7821 92.5596 94.4912 92.8436C96.7131 93.7191 98.9351 94.5868 101.165 95.4307C106.271 97.3632 111.455 99.3351 116.789 100.55C120.713 101.441 124.992 101.362 128.695 99.6664C132.217 98.0573 134.596 94.8786 134.983 91.0137C135.046 90.5089 134.258 90.5089 134.21 91.0137Z" fill="#231F20"/>
<path d="M115.458 63.3284C113.362 65.0636 111.692 67.3037 110.202 69.5675C108.626 71.9653 107.24 74.4893 105.955 77.0528C106.184 77.1869 106.412 77.321 106.633 77.4472C107.634 75.1519 108.776 72.9118 110.1 70.7822C111.676 68.2423 113.527 65.7578 115.915 63.9278C115.757 63.9042 115.6 63.8884 115.434 63.8647C115.442 63.8726 115.442 63.8726 115.45 63.8805C115.812 64.2433 116.364 63.6833 116.009 63.3205C116.001 63.3126 116.001 63.3126 115.994 63.3047C115.883 63.1943 115.655 63.1391 115.513 63.2416C113.086 65.1031 111.187 67.564 109.564 70.1354C108.177 72.336 106.988 74.6629 105.948 77.0449C105.751 77.5024 106.397 77.9047 106.625 77.4393C107.886 74.9232 109.241 72.4464 110.785 70.0881C112.267 67.8243 113.913 65.6 116.001 63.8726C116.403 63.565 115.844 63.005 115.458 63.3284Z" fill="#231F20"/>
<path d="M138 83.8842C138.788 85.793 139.237 87.8122 139.356 89.8709C139.411 90.8726 139.387 91.8822 139.277 92.8761C139.222 93.3809 139.159 93.8778 139.072 94.3747C138.985 94.8795 138.804 95.3922 138.804 95.9128C138.804 96.2598 139.269 96.3782 139.45 96.0863C139.718 95.6446 139.797 95.1004 139.899 94.6034C140.01 94.0908 140.096 93.5702 140.143 93.0417C140.254 91.9611 140.246 90.8647 140.151 89.7841C139.97 87.6623 139.379 85.6037 138.473 83.6791C138.355 83.4109 137.882 83.6002 138 83.8842Z" fill="#231F20"/>
<path d="M142.429 84.83C142.965 86.2813 143.303 87.7957 143.398 89.3338C143.437 89.9885 143.492 90.6826 143.39 91.3372C143.296 91.9288 143.028 92.3547 142.728 92.8517C142.594 93.0725 142.815 93.3644 143.059 93.2855C144.438 92.8596 144.343 90.7457 144.241 89.6335C144.076 87.8982 143.634 86.2103 142.957 84.6012C142.831 84.3094 142.318 84.5223 142.429 84.83Z" fill="#231F20"/>
<path d="M125.338 86.3442C121.462 82.8105 105.199 79.4346 105.041 79.4031L105.199 78.6301C105.876 78.772 121.84 82.0849 125.874 85.7605L125.338 86.3442Z" fill="#231F20"/>
<path d="M85.0916 88.6951C85.0444 88.6636 84.9971 88.6557 84.9419 88.6557C84.9025 88.6557 84.8631 88.6557 84.8237 88.6636C84.7371 88.6714 84.6583 88.6872 84.5795 88.7109C84.4062 88.774 84.2564 88.8686 84.1146 88.979C83.9885 89.0816 83.8704 89.2157 83.7916 89.3577C83.7522 89.4365 83.7128 89.5154 83.6891 89.5943C83.6734 89.6337 83.6655 89.6732 83.6576 89.7126C83.6497 89.7442 83.6419 89.7836 83.6576 89.8151C83.6655 89.8467 83.6813 89.8704 83.697 89.8861C83.6813 89.8704 83.6813 89.8704 83.697 89.8861C83.7285 89.9414 83.8073 89.965 83.8625 89.9335C83.8782 89.9256 83.8782 89.9256 83.8546 89.9335C83.8704 89.9256 83.8782 89.9256 83.894 89.9177C83.9334 89.894 83.957 89.8546 83.9728 89.8151C83.9807 89.7915 83.9964 89.7442 84.0043 89.7284C84.0279 89.6811 84.0673 89.6022 84.0989 89.547C84.1146 89.5154 84.1383 89.4918 84.1619 89.4602C84.1698 89.4444 84.1855 89.4287 84.1934 89.4208C84.1698 89.4444 84.2092 89.405 84.2092 89.405C84.2564 89.3498 84.3116 89.2946 84.3668 89.2472C84.3825 89.2394 84.3904 89.2236 84.4062 89.2157C84.414 89.2078 84.414 89.2078 84.4062 89.2157C84.414 89.2078 84.4219 89.2078 84.4298 89.1999C84.4613 89.1762 84.4928 89.1605 84.5243 89.1368C84.5559 89.121 84.5874 89.1053 84.6189 89.0895C84.6347 89.0816 84.6504 89.0737 84.6662 89.0658C84.7134 89.0422 84.6346 89.0737 84.6898 89.0579C84.7686 89.0264 84.8001 89.0106 84.8868 88.9869C84.9656 88.9633 85.0444 88.9554 85.1153 88.9081C85.1626 88.8607 85.1704 88.7503 85.0916 88.6951Z" fill="#231F20"/>
<path d="M81.2781 88.7426L80.5138 88.5454C81.0181 86.6129 81.7666 84.7436 82.7357 82.9925L83.4291 83.3711C82.4915 85.0591 81.7666 86.8653 81.2781 88.7426Z" fill="#231F20"/>
<path d="M78.0081 87.6774L77.236 87.5512C77.559 85.5241 78.1736 83.5522 79.0403 81.6986L79.7573 82.0378C78.9142 83.8283 78.3233 85.7213 78.0081 87.6774Z" fill="#231F20"/>
<path d="M75.1321 85.8403L74.3521 85.7378C74.6436 83.5529 75.8176 81.2181 76.5977 79.6801L77.2989 80.035C76.5504 81.5258 75.4 83.7895 75.1321 85.8403Z" fill="#231F20"/>
</mask>
<g mask="url(#mask0)">
<rect x="-49.0095" y="-22" width="220.462" height="177.613" fill="#3F0D28"/>
</g>
</svg>
