<svg width="213" height="56" viewBox="0 0 213 56" fill="none" xmlns="http://www.w3.org/2000/svg">
<g clip-path="url(#clip0)">
<g clip-path="url(#clip1)">
<path d="M45.3433 0.813849L42.5349 2.46561L43.9322 3.87738L45.5231 0.98326C45.5785 0.870319 45.454 0.757378 45.3433 0.813849Z" fill="white"/>
<path d="M42.0784 6.85615L42.1476 7.11027V7.12439L35.3134 14.1973L34.6079 12.9126L41.3867 5.91027L41.8294 6.03733L42.0784 6.85615Z" fill="white"/>
<path d="M7.74169 37.0539L13.4414 31.1527L14.5205 32.028L8.71009 38.028L7.74169 37.0539Z" fill="white"/>
<path d="M15.3921 32.748L9.49865 38.8327L10.5224 39.8633L16.5126 33.6656L15.3921 32.748Z" fill="white"/>
<path d="M6.9393 37.8727L9.73383 40.6821L7.22982 43.2938C6.91163 43.6044 6.4136 43.6044 6.09541 43.2938L4.4353 41.628C4.13094 41.3033 4.13094 40.795 4.4353 40.4703L6.9393 37.8727Z" fill="white"/>
<path d="M39.3669 4.30094L40.4321 4.62565L40.5843 5.11976L34.0407 11.8539L33.3213 10.5551L39.3669 4.30094Z" fill="white"/>
<path d="M30.6374 9.86324C30.6374 9.84912 30.6513 9.84912 30.6651 9.84912C30.7204 9.835 30.8035 9.82088 30.845 9.82088H30.9695C31.011 9.82088 31.0663 9.835 31.1078 9.84912C31.1158 9.85724 31.1191 9.86069 31.1232 9.86215C31.1262 9.86324 31.1296 9.86324 31.1355 9.86324L31.26 9.90559C31.2669 9.90559 31.2738 9.90912 31.2807 9.91265C31.2877 9.91618 31.2946 9.91971 31.3015 9.91971L31.426 10.0044L31.5643 10.1456C31.6058 10.1879 31.6335 10.2303 31.6612 10.2726L31.675 10.3009L34.4972 15.1715L29.2817 17.8821L28.8667 17.2891L28.1196 16.1879L26.2381 13.3926C26.1966 13.3362 26.169 13.2797 26.1413 13.2232C26.1181 13.1759 26.1047 13.1187 26.0928 13.0682L26.089 13.0522L26.087 13.0441L26.086 13.0397C26.0721 12.9832 26.0721 12.9127 26.0721 12.8562C26.0721 12.7997 26.086 12.7291 26.0998 12.6726C26.1136 12.6021 26.1275 12.5456 26.1551 12.4891C26.2381 12.3197 26.3626 12.1785 26.5425 12.0797L26.6808 11.9809C27.4971 11.3738 28.3686 10.8515 29.2817 10.4279C29.586 10.2868 29.8904 10.1597 30.2086 10.0326L30.4576 9.93382C30.4853 9.92677 30.5095 9.91618 30.5337 9.90559C30.5579 9.895 30.5821 9.88441 30.6098 9.87736C30.6098 9.86324 30.6236 9.86324 30.6374 9.86324Z" fill="white"/>
<path d="M25.2559 22.5551C25.5049 23.6139 26.3073 24.4468 27.3449 24.7292L29.8766 25.3927L29.9872 25.421L28.1196 26.7057C27.9813 26.8045 27.8152 26.8468 27.6492 26.8468C27.5524 26.8468 27.4417 26.8327 27.3449 26.7904C27.338 26.7833 27.3276 26.7798 27.3172 26.7763C27.3068 26.7727 27.2965 26.7692 27.2895 26.7621C27.2803 26.7574 27.2696 26.7543 27.2588 26.7512C27.2373 26.7449 27.2158 26.7386 27.2065 26.7198C27.1512 26.6351 27.0682 26.508 26.9852 26.4092L20.5799 18.9268C20.4692 18.8139 20.3447 18.701 20.2202 18.6163L19.819 18.1504C19.6945 18.0092 19.6253 17.8257 19.6115 17.6563C19.5977 17.4727 19.6392 17.3033 19.7222 17.148C19.7429 17.1268 19.7602 17.1021 19.7775 17.0774C19.7948 17.0527 19.8121 17.028 19.8329 17.0068C19.8744 16.9645 19.9159 16.9221 19.9712 16.8798C20.7598 15.948 21.7005 15.1716 22.7381 14.5645C23.0839 14.3668 23.4436 14.1833 23.8171 14.0139L24.163 13.8586C24.1837 13.8445 24.208 13.8339 24.2322 13.8233C24.2564 13.8127 24.2806 13.8021 24.3013 13.788C24.3083 13.788 24.3152 13.7845 24.3221 13.781C24.329 13.7774 24.3359 13.7739 24.3428 13.7739C24.3567 13.7668 24.374 13.7633 24.3913 13.7598C24.4085 13.7563 24.4258 13.7527 24.4397 13.7457C24.4559 13.7457 24.4673 13.7408 24.4768 13.7368C24.4836 13.734 24.4893 13.7316 24.495 13.7316C24.5365 13.7174 24.5642 13.7174 24.6057 13.7174H24.7025C24.7579 13.7174 24.7994 13.7174 24.8409 13.7316C24.8478 13.7316 24.8581 13.7351 24.8685 13.7386C24.8789 13.7421 24.8893 13.7457 24.8962 13.7457C24.917 13.7527 24.9342 13.7598 24.9515 13.7668C24.9688 13.7739 24.9861 13.781 25.0069 13.788C25.0138 13.7951 25.0242 13.7986 25.0346 13.8021C25.0449 13.8057 25.0553 13.8092 25.0622 13.8163C25.1037 13.8304 25.1452 13.8586 25.1729 13.8868L25.2144 13.9292C25.2559 13.9715 25.2974 14.0139 25.3389 14.0704L28.3824 18.348L26.3626 19.3927C25.6709 19.7598 25.2144 20.4233 25.1037 21.1716V21.1857C25.0622 21.4821 25.0761 21.7927 25.1452 22.1033L25.2559 22.5551Z" fill="white"/>
<path d="M12.7359 26.1409L12.6944 26.1833L12.5837 26.3244C12.556 26.3597 12.5318 26.395 12.5076 26.4303C12.4834 26.4656 12.4592 26.5009 12.4315 26.5362C12.4315 26.5362 12.4315 26.5503 12.4177 26.5503L12.4038 26.5644C12.2655 26.7762 12.141 27.0162 12.0303 27.2421L11.9888 27.3127C11.9058 27.4115 11.8505 27.5103 11.8228 27.6233C11.7951 27.7362 11.7813 27.8491 11.7813 27.9621C11.7951 28.1315 11.8643 28.3009 11.975 28.428L12.0995 28.555L13.9533 30.0656L13.981 30.0797L16.2221 31.915L19.0581 34.2303C19.155 34.315 19.2795 34.3715 19.404 34.3997C19.4455 34.4138 19.487 34.4138 19.5285 34.4138H19.5977C19.7914 34.4138 19.985 34.3433 20.1372 34.2021L21.8942 32.6774C22.1017 32.4938 22.1985 32.2397 22.1847 31.9997C22.1847 31.8868 22.1709 31.7738 22.1155 31.675C22.0325 31.5197 21.908 31.3786 21.7697 31.2515L21.1194 30.588L20.6906 30.1644L20.4969 29.9668L16.817 26.2397L16.7755 26.1974L15.3644 24.7715C15.3229 24.7291 15.2814 24.6868 15.226 24.6586C15.226 24.6586 15.2122 24.6586 15.2122 24.6444H15.1984C15.1915 24.6444 15.188 24.6409 15.1845 24.6374C15.1811 24.6339 15.1776 24.6303 15.1707 24.6303C15.1569 24.6233 15.1396 24.6127 15.1223 24.6021C15.105 24.5915 15.0877 24.5809 15.0739 24.5738C15.0462 24.5597 15.0324 24.5597 15.0047 24.5597C14.9909 24.5527 14.9736 24.5491 14.9563 24.5456C14.939 24.5421 14.9217 24.5386 14.9079 24.5315H14.7418C14.7142 24.5315 14.6727 24.5315 14.645 24.5456C14.6173 24.5456 14.6035 24.5456 14.5758 24.5597C14.562 24.5668 14.5447 24.5703 14.5274 24.5738C14.5101 24.5774 14.4928 24.5809 14.479 24.588C14.4652 24.595 14.4548 24.5985 14.4444 24.6021C14.4341 24.6056 14.4237 24.6091 14.4098 24.6162C14.3838 24.6251 14.3632 24.6395 14.3446 24.6525C14.3336 24.6602 14.3233 24.6674 14.313 24.6727C14.3061 24.6797 14.2957 24.6833 14.2853 24.6868C14.2749 24.6903 14.2646 24.6938 14.2576 24.7009C14.2369 24.7221 14.2127 24.7432 14.1885 24.7644C14.1643 24.7856 14.14 24.8068 14.1193 24.828C13.6628 25.1244 13.2477 25.4915 12.9019 25.9009C12.8641 25.978 12.8034 26.0552 12.751 26.1216L12.7359 26.1409Z" fill="white"/>
<path d="M26.3488 27.2138C26.418 27.355 26.4595 27.5103 26.4595 27.6656C26.4595 27.7221 26.4595 27.7644 26.4318 27.8068C26.418 27.9197 26.3765 28.0186 26.3211 28.1033C26.2935 28.1456 26.2658 28.188 26.2243 28.2303L25.1452 29.4021L25.1314 29.388L25.1176 29.4162L23.9001 30.7433C23.7341 30.9268 23.5128 31.0115 23.2914 31.0115C23.0701 31.0115 22.8487 30.9268 22.6827 30.7433L15.9316 23.3738C15.9178 23.3527 15.9005 23.3281 15.8833 23.3034L15.8832 23.3033C15.8659 23.2786 15.8486 23.2538 15.8348 23.2327C15.7517 23.0915 15.7102 22.9362 15.7102 22.7668C15.7102 22.555 15.7933 22.3433 15.9593 22.1738L16.0146 22.0609C16.2498 21.6656 16.5265 21.2986 16.8308 20.9597C17.0383 20.7338 17.2459 20.5221 17.481 20.3244C17.8269 20.0421 18.2004 19.7739 18.6016 19.548C18.6431 19.5056 18.6985 19.4633 18.74 19.435C18.7505 19.4296 18.7591 19.4263 18.7664 19.4235C18.7782 19.4188 18.7867 19.4155 18.7953 19.4068C18.8164 19.3852 18.8456 19.3719 18.8706 19.3605C18.8783 19.357 18.8856 19.3537 18.8921 19.3503C18.906 19.3503 18.9163 19.3468 18.9267 19.3433C18.9371 19.3397 18.9475 19.3362 18.9613 19.3362C18.989 19.3221 19.0305 19.308 19.0581 19.308H19.2242C19.238 19.308 19.2553 19.3115 19.2726 19.315C19.2899 19.3186 19.3072 19.3221 19.321 19.3221C19.3487 19.3362 19.3625 19.3362 19.3902 19.3362C19.4178 19.3362 19.4593 19.3503 19.487 19.3644C19.5008 19.3715 19.5112 19.375 19.5216 19.3786C19.532 19.3821 19.5423 19.3856 19.5562 19.3927C19.57 19.3997 19.5873 19.4103 19.6046 19.4209C19.6219 19.4315 19.6392 19.4421 19.653 19.4491C19.6636 19.4545 19.6721 19.4579 19.6794 19.4607C19.6913 19.4653 19.6998 19.4687 19.7084 19.4774C19.7637 19.5197 19.8052 19.5621 19.8467 19.6044L26.252 27.0868C26.2935 27.1291 26.3211 27.1715 26.3488 27.2138Z" fill="white"/>
<path d="M19.5008 43.7456L16.3881 35.8397C16.3743 35.8256 16.3604 35.7973 16.4019 35.7973L17.7024 34.4279L18.4909 35.0632C18.8091 35.3314 19.2103 35.4726 19.6253 35.4726C20.0542 35.4726 20.4692 35.3173 20.8013 35.035C20.8013 35.035 22.5859 33.482 22.6274 33.4397C22.9732 33.1009 23.1808 32.635 23.1946 32.155V32.0279H23.3191C23.8171 32.0279 24.3013 31.802 24.6472 31.435L26.9852 28.9361C27.2619 28.6397 27.4279 28.2585 27.4694 27.8773C27.5385 27.8914 27.6215 27.8914 27.6907 27.8914C27.9812 27.8914 28.2579 27.8209 28.5208 27.6797L28.7006 27.5667L32.1592 25.195C32.2699 25.1244 32.3667 25.0397 32.4497 24.955L33.4596 24.7291L33.7363 25.3644L33.5703 25.4914L33.3905 25.6326C32.8786 26.0279 32.3944 26.4373 31.924 26.875L31.7857 27.002C31.0386 27.6938 30.3192 28.442 29.6552 29.2185L29.6137 29.2609C28.7421 30.2773 27.9536 31.3785 27.248 32.522C27.2204 32.5644 27.1927 32.6067 27.1789 32.635C27.1443 32.6985 27.1062 32.7585 27.0682 32.8185C27.0301 32.8785 26.9921 32.9385 26.9575 33.002C26.9298 33.0303 26.8883 33.1009 26.8745 33.1291C26.2381 34.2303 25.6848 35.3738 25.2006 36.5597C25.1867 36.595 25.1694 36.6338 25.1521 36.6726C25.1348 36.7114 25.1176 36.7503 25.1037 36.7856L25.076 36.8561C24.9654 37.1385 24.8547 37.4209 24.7579 37.7032C24.6334 38.1832 24.6057 38.5079 24.6195 38.7903L24.8132 41.8538L25.7954 41.7832L25.5879 38.5785C25.5762 38.2329 25.7223 37.8772 25.8097 37.6643C25.8259 37.625 25.84 37.5906 25.8508 37.562C25.8784 37.5197 25.8923 37.4773 25.9061 37.435C25.9061 37.435 25.9614 37.2938 25.9753 37.2656C26.1551 36.7997 26.3488 36.3338 26.5563 35.882C26.667 35.6279 26.9298 35.0914 27.0128 34.922C28.3133 32.3526 30.0149 30.0373 32.0762 28.0609L32.1177 28.0326C32.7817 27.4256 33.4596 26.8609 34.1513 26.3103L34.9537 25.6891L34.1098 23.7409L34.0268 23.5432L32.9616 23.7832L30.7204 24.2914L30.1671 24.4185L27.6354 23.7267C27.4694 23.6703 27.3034 23.5997 27.1512 23.515C27.082 23.4726 27.0128 23.4303 26.9437 23.3738C26.6117 23.1056 26.3626 22.7244 26.252 22.2867L26.1413 21.835C25.9891 21.2138 26.2796 20.5644 26.8468 20.2679L35.0229 16.0185L35.8945 15.5667L36.2542 15.3832C36.2929 15.3535 36.3385 15.3377 36.3861 15.3212C36.4064 15.3141 36.4271 15.307 36.4478 15.2985C36.4548 15.2985 36.4651 15.295 36.4755 15.2914C36.4859 15.2879 36.4963 15.2844 36.5032 15.2844L36.6692 15.242C36.6968 15.242 36.7453 15.2385 36.7937 15.235C36.8421 15.2314 36.8905 15.2279 36.9182 15.2279H36.9597C37.0289 15.2279 37.0842 15.2279 37.1395 15.242H37.1672C37.2364 15.2562 37.2917 15.2703 37.3609 15.2985C37.3678 15.2985 37.3747 15.302 37.3816 15.3056C37.3886 15.3091 37.3955 15.3126 37.4024 15.3126L37.5684 15.3973C37.5684 15.4114 37.5822 15.4114 37.5822 15.4114C37.6376 15.4397 37.6929 15.482 37.7483 15.5244C37.7621 15.5244 37.7759 15.5385 37.7898 15.5526C37.8087 15.572 37.8277 15.5897 37.8462 15.6069C37.8814 15.6398 37.9147 15.6708 37.9419 15.7079L41.6219 23.4303C42.6041 25.5197 42.6318 27.9479 41.691 30.0373L41.4697 30.4891L41.4143 30.5879C41.3867 30.6444 36.9182 39.0726 36.9182 39.0726L37.3471 50.3526C37.3747 50.8044 37.015 51.1856 36.5723 51.1856H20.4554C20.0404 51.1856 19.6945 50.8467 19.6807 50.4091L19.5008 43.7456Z" fill="white"/>
</g>
<path d="M69.0615 24.8319C69.0615 22.0078 67.3185 20.7943 63.8325 20.7943H56V22.7358H56.9487C57.3017 22.7358 57.4121 22.9124 57.4121 23.4419V32.7746C57.4121 33.3262 57.3017 33.5027 56.9487 33.5027H56V35.4443H62.5969V33.5027H61.6482C61.3173 33.5027 61.1849 33.3262 61.1849 32.7746V29.1563H62.4204C64.031 29.1563 64.3841 30.1271 64.4723 31.7377C64.6488 33.7896 65.3548 35.4443 67.164 35.4443H70.0764V33.5027H69.7013C69.0394 33.5027 68.7967 33.2159 68.7305 32.2893C68.5761 30.2594 67.848 28.9356 65.8844 28.3841C68.0245 27.9428 69.0615 26.7955 69.0615 24.8319ZM61.1849 22.7579H62.7293C64.4061 22.7579 65.1121 23.3757 65.1121 25.0746C65.1121 26.8617 64.3179 27.5015 62.4425 27.5015H61.1849V22.7579Z" fill="white"/>
<path d="M81.5574 30.7228V30.2374C81.5574 26.5307 79.7261 24.3685 76.1519 24.3685C72.6879 24.3685 70.4154 26.6411 70.4154 30.0388C70.4154 33.3924 72.4452 35.7532 76.3725 35.7532C79.2187 35.7532 80.741 34.4956 81.4471 32.8629L79.5938 31.7597C79.1525 32.8408 78.3361 33.591 76.902 33.591C75.159 33.591 74.2103 32.554 74.1441 30.7228H81.5574ZM76.1739 26.3322C77.4316 26.3322 77.9831 27.0603 78.0273 29.046H74.1C74.2103 27.1264 74.8943 26.3322 76.1739 26.3322Z" fill="white"/>
<path d="M89.1275 28.8253C89.1275 29.774 89.8777 30.5463 91.025 30.5463C92.4149 30.5463 93.2754 29.5534 93.2754 28.0531C93.2754 25.7585 91.4442 24.3685 88.245 24.3685C84.5163 24.3685 82.2658 26.5087 82.2658 30.0167C82.2658 33.6351 84.428 35.7532 88.245 35.7532C91.0691 35.7532 92.5032 34.4515 93.1872 32.6864L91.2677 31.6715C90.7823 32.9291 89.9439 33.5469 88.5759 33.5469C86.855 33.5469 85.9504 32.4216 85.9504 30.1271V29.7079C85.9504 27.4133 86.9212 26.3101 88.6862 26.3101C89.657 26.3101 90.2748 26.5528 90.6058 27.0382C89.6791 27.2147 89.1275 27.8987 89.1275 28.8253Z" fill="white"/>
<path d="M99.5752 35.7532C103.127 35.7532 105.488 33.4586 105.488 30.0388C105.488 26.6411 103.171 24.3685 99.6634 24.3685C96.1112 24.3685 93.7284 26.6631 93.7284 30.0388C93.7284 33.4807 96.045 35.7532 99.5752 35.7532ZM99.5972 33.6792C98.0528 33.6792 97.3909 32.7085 97.3909 30.2374V29.8844C97.3909 27.3912 98.0749 26.4204 99.6193 26.4204C101.164 26.4204 101.848 27.3912 101.848 29.8844V30.2374C101.848 32.7085 101.164 33.6792 99.5972 33.6792Z" fill="white"/>
<path d="M110.882 24.4127C110.353 24.545 109.36 24.6774 108.234 24.6774H106.116V26.619H106.889C107.198 26.619 107.286 26.7734 107.286 27.3471V32.8629C107.286 33.4145 107.131 33.5027 106.889 33.5027H106.116V35.4443H111.985V33.5027H111.323C111.081 33.5027 110.926 33.4145 110.926 32.8629V29.6196C110.926 27.5677 111.61 26.6852 112.846 26.6852C113.905 26.6852 114.346 27.2147 114.346 28.6047V32.8629C114.346 33.4145 114.214 33.5027 113.949 33.5027H113.287V35.4443H119.178V33.5027H118.406C118.141 33.5027 117.986 33.4145 117.986 32.8629V28.5385C117.986 25.7144 116.773 24.3685 114.478 24.3685C112.78 24.3685 111.566 25.0304 110.882 26.3984V24.4127Z" fill="white"/>
<path d="M119.652 34.8707C120.644 35.2678 122.233 35.7532 124.042 35.7532C127.219 35.7532 129.006 34.297 129.006 32.0024C129.006 29.6196 126.977 29.0018 125.189 28.6267C123.844 28.362 122.873 28.2517 122.873 27.325C122.873 26.5969 123.513 26.1557 124.616 26.1557C125.145 26.1557 125.807 26.266 126.116 26.3984V28.009H128.565V25.229C127.771 24.8539 126.138 24.3685 124.417 24.3685C121.284 24.3685 119.541 25.8026 119.541 28.031C119.541 30.3698 121.505 30.9875 123.314 31.3405C124.704 31.6274 125.653 31.848 125.653 32.7526C125.653 33.591 124.969 33.9661 123.866 33.9661C123.16 33.9661 122.586 33.8778 122.167 33.7675V32.0466H119.652V34.8707Z" fill="white"/>
<path d="M134.366 35.7311C135.183 35.7311 135.977 35.5767 136.462 35.4222V33.4145C136.22 33.5027 135.955 33.5689 135.536 33.5689C134.675 33.5689 134.256 33.238 134.256 32.1348V26.619H136.308V24.6774H134.344V21.5444H131.851L131.631 23.3757C131.476 24.3023 130.902 24.6333 130.042 24.8098L129.358 24.876V26.619H130.726V32.1348C130.726 34.7383 131.719 35.7311 134.366 35.7311Z" fill="white"/>
<path d="M141.953 24.4127C141.424 24.545 140.431 24.6774 139.306 24.6774H137.077V26.619H137.938C138.247 26.619 138.335 26.7734 138.335 27.3471V32.8629C138.335 33.4145 138.202 33.5027 137.938 33.5027H137.165V35.4443H143.233V33.5027H142.394C142.13 33.5027 141.975 33.4145 141.975 32.8629V29.8844C141.997 27.7883 142.615 26.619 143.895 26.619C144.16 26.619 144.38 26.6852 144.535 26.8176C143.939 27.0823 143.564 27.678 143.564 28.3179C143.564 29.2004 144.336 29.8844 145.241 29.8844C146.631 29.8844 147.535 28.8915 147.535 27.325C147.535 25.5158 146.498 24.3685 144.844 24.3685C143.476 24.3685 142.417 25.0746 141.953 26.7734V24.4127Z" fill="white"/>
<path d="M160.974 35.4443V33.5027H160.113C159.804 33.5027 159.716 33.3483 159.716 32.7746V24.6774H154.708V26.619H155.657C155.921 26.619 156.076 26.7072 156.076 27.2588V30.7228C156.076 32.554 155.436 33.4586 154.2 33.4586C153.208 33.4586 152.7 32.9953 152.7 31.5832V24.6774H147.846V26.619H148.64C148.883 26.619 149.038 26.7072 149.038 27.2588V31.6494C149.038 34.4956 150.251 35.7532 152.568 35.7532C154.178 35.7532 155.392 35.1134 156.076 33.8337V35.687C156.605 35.5546 157.598 35.4443 158.723 35.4443H160.974Z" fill="white"/>
<path d="M168.202 28.8253C168.202 29.774 168.952 30.5463 170.099 30.5463C171.489 30.5463 172.35 29.5534 172.35 28.0531C172.35 25.7585 170.519 24.3685 167.319 24.3685C163.591 24.3685 161.34 26.5087 161.34 30.0167C161.34 33.6351 163.503 35.7532 167.319 35.7532C170.144 35.7532 171.578 34.4515 172.262 32.6864L170.342 31.6715C169.857 32.9291 169.018 33.5469 167.65 33.5469C165.929 33.5469 165.025 32.4216 165.025 30.1271V29.7079C165.025 27.4133 165.996 26.3101 167.761 26.3101C168.732 26.3101 169.349 26.5528 169.68 27.0382C168.754 27.2147 168.202 27.8987 168.202 28.8253Z" fill="white"/>
<path d="M177.566 35.7311C178.383 35.7311 179.177 35.5767 179.662 35.4222V33.4145C179.42 33.5027 179.155 33.5689 178.736 33.5689C177.875 33.5689 177.456 33.238 177.456 32.1348V26.619H179.508V24.6774H177.544V21.5444H175.051L174.831 23.3757C174.676 24.3023 174.103 24.6333 173.242 24.8098L172.558 24.876V26.619H173.926V32.1348C173.926 34.7383 174.919 35.7311 177.566 35.7311Z" fill="white"/>
<path d="M183.409 23.8611C184.622 23.8611 185.461 23.0227 185.461 21.9195C185.461 20.8384 184.622 20 183.409 20C182.151 20 181.335 20.8384 181.335 21.9195C181.335 23.0227 182.151 23.8611 183.409 23.8611ZM180.408 35.4443H186.387V33.5027H185.637C185.372 33.5027 185.24 33.3704 185.24 32.8629V24.4127C184.71 24.545 183.718 24.6774 182.592 24.6774H180.408V26.619H181.114C181.489 26.619 181.6 26.8176 181.6 27.5015V32.8629C181.6 33.3704 181.467 33.5027 181.202 33.5027H180.408V35.4443Z" fill="white"/>
<path d="M192.935 35.7532C196.487 35.7532 198.848 33.4586 198.848 30.0388C198.848 26.6411 196.531 24.3685 193.023 24.3685C189.471 24.3685 187.088 26.6631 187.088 30.0388C187.088 33.4807 189.405 35.7532 192.935 35.7532ZM192.957 33.6792C191.412 33.6792 190.751 32.7085 190.751 30.2374V29.8844C190.751 27.3912 191.434 26.4204 192.979 26.4204C194.523 26.4204 195.207 27.3912 195.207 29.8844V30.2374C195.207 32.7085 194.523 33.6792 192.957 33.6792Z" fill="white"/>
<path d="M204.242 24.4127C203.712 24.545 202.719 24.6774 201.594 24.6774H199.476V26.619H200.248C200.557 26.619 200.645 26.7734 200.645 27.3471V32.8629C200.645 33.4145 200.491 33.5027 200.248 33.5027H199.476V35.4443H205.345V33.5027H204.683C204.44 33.5027 204.286 33.4145 204.286 32.8629V29.6196C204.286 27.5677 204.97 26.6852 206.205 26.6852C207.264 26.6852 207.706 27.2147 207.706 28.6047V32.8629C207.706 33.4145 207.573 33.5027 207.308 33.5027H206.647V35.4443H212.537V33.5027H211.765C211.501 33.5027 211.346 33.4145 211.346 32.8629V28.5385C211.346 25.7144 210.133 24.3685 207.838 24.3685C206.139 24.3685 204.926 25.0304 204.242 26.3984V24.4127Z" fill="white"/>
</g>
<defs>
<clipPath id="clip0">
<rect width="212.8" height="56" fill="white"/>
</clipPath>
<clipPath id="clip1">
<rect width="47.6" height="50.4" fill="white" transform="translate(4.19922 0.800781)"/>
</clipPath>
</defs>
</svg>
